<?xml version="1.0" encoding="utf-8"?>
<!-- Generator: Adobe Illustrator 18.0.0, SVG Export Plug-In . SVG Version: 6.00 Build 0)  -->
<!DOCTYPE svg PUBLIC "-//W3C//DTD SVG 1.1//EN" "http://www.w3.org/Graphics/SVG/1.1/DTD/svg11.dtd">
<svg version="1.1" xmlns="http://www.w3.org/2000/svg" xmlns:xlink="http://www.w3.org/1999/xlink" x="0px" y="0px"
	 viewBox="0 0 207.8 188.4" enable-background="new 0 0 207.8 188.4" xml:space="preserve">
<g id="BACKGROUND" display="none">
	<rect x="-530.7" y="-297" display="inline" fill="#FFFFFF" width="800" height="800"/>
</g>
<g id="OBJECTS">
	<g>
		<path fill="#2B292A" d="M21.8-135l-1.8,0.9c0.4,0.8,0.9,1.6,1.5,2.3c0.2,0.2,0.3,0.4,0.5,0.7l1.6-1.2c-0.2-0.2-0.4-0.5-0.5-0.7
			C22.6-133.6,22.1-134.3,21.8-135z"/>
		<path fill="#2B292A" d="M25.5-129.3l-1.7,1c0.6,1,1.1,2,1.5,3l1.8-0.8C26.7-127.2,26.1-128.3,25.5-129.3z"/>
		<path fill="#2B292A" d="M28.5-122.9l-1.9,0.6c0.4,1.1,0.7,2.1,0.9,3.2l2-0.4C29.2-120.6,28.8-121.8,28.5-122.9z"/>
		<path fill="#2B292A" d="M28.8-159.5l-1.9-0.6c-0.3,1.1-0.7,2.1-1.1,3.1l1.9,0.8C28-157.2,28.4-158.4,28.8-159.5z"/>
		<path fill="#2B292A" d="M22.2-147.2l-1.7-1c-0.6,1.1-1.1,2.2-1.5,3.4l1.9,0.6C21.2-145.3,21.6-146.3,22.2-147.2z"/>
		<path fill="#2B292A" d="M26-153l-1.8-1c-0.5,1-1.1,1.9-1.8,2.8l1.7,1.1C24.8-150.9,25.5-151.9,26-153z"/>
		<path fill="#2B292A" d="M18.7-137.6l2-0.4c-0.2-0.9-0.3-1.8-0.3-2.7c0-0.2,0-0.3,0-0.5l-2-0.1c0,0.2,0,0.3,0,0.5
			C18.4-139.6,18.5-138.6,18.7-137.6z"/>
		<g>
			<g>
				<path fill="#2B292A" d="M46-131.5c-1.1,0-2.1-0.1-3-0.4c-0.9-0.3-1.6-0.7-2.1-1.2s-1-1.1-1.4-1.9s-0.6-1.5-0.7-2.4
					c-0.1-0.8-0.2-1.8-0.2-2.9v-9c0-1.1,0.1-2.1,0.2-3c0.1-0.9,0.4-1.7,0.7-2.4c0.3-0.7,0.8-1.4,1.4-1.8c0.6-0.5,1.3-0.9,2.1-1.1
					c0.8-0.3,1.8-0.4,3-0.4c1.3,0,2.4,0.2,3.3,0.5c0.9,0.3,1.6,0.8,2.2,1.5c0.5,0.7,0.9,1.4,1.2,2.3c0.2,0.9,0.4,1.9,0.4,3.1v2.2
					h-4.6v-2.2c0-1.3-0.1-2.2-0.2-2.6c-0.3-0.9-0.9-1.3-2-1.4c-0.1,0-0.2,0-0.3,0c-0.4,0-0.7,0-1,0.1c-0.3,0.1-0.5,0.2-0.7,0.4
					c-0.2,0.2-0.3,0.4-0.5,0.6c-0.1,0.2-0.2,0.5-0.3,0.9c-0.1,0.4-0.1,0.7-0.1,1c0,0.3,0,0.7,0,1.2v11c0,1.5,0.2,2.6,0.6,3.3
					c0.4,0.6,1.1,1,2,1c0.3,0,0.6,0,0.9-0.1c0.3-0.1,0.5-0.2,0.6-0.3c0.2-0.1,0.3-0.3,0.4-0.5c0.1-0.2,0.2-0.4,0.3-0.6
					s0.1-0.5,0.1-0.8c0-0.3,0-0.6,0.1-0.9c0-0.2,0-0.6,0-1v-2.3H53v2.1c0,1-0.1,1.8-0.2,2.6s-0.4,1.5-0.7,2.2
					c-0.3,0.7-0.8,1.2-1.3,1.7s-1.2,0.8-2,1.1C48-131.6,47.1-131.5,46-131.5z"/>
				<path fill="#2B292A" d="M56.3-131.8v-25.9h5.9c1.4,0,2.5,0.1,3.5,0.3c1,0.2,1.8,0.6,2.6,1.1s1.3,1.2,1.6,2.1
					c0.4,0.9,0.5,2,0.5,3.3c0,1.6-0.2,3-0.7,4c-0.5,1-1.3,1.8-2.4,2.3l3.6,12.8h-4.7l-3.1-11.8H61v11.8H56.3z M61-146.7h1.1
					c1.4,0,2.4-0.3,3-0.9s0.9-1.6,0.9-3c0-1.4-0.3-2.4-0.8-3c-0.5-0.6-1.4-0.9-2.8-0.9H61V-146.7z"/>
				<path fill="#2B292A" d="M74.1-131.8v-25.9h10.9v3.3h-6.1v7.4h4.8v3.3h-4.8v8.6H85v3.3H74.1z"/>
				<path fill="#2B292A" d="M86.4-131.8l5.3-25.9h4.9l5.3,25.9h-4.4l-1-6h-4.5l-1.1,6H86.4z M92.4-140.9h3.5l-1.7-10.6L92.4-140.9z"
					/>
				<path fill="#2B292A" d="M106-131.8v-22.4h-4.3v-3.5h13.3v3.5h-4.2v22.4H106z"/>
				<path fill="#2B292A" d="M117.1-131.8v-25.9h4.7v25.9H117.1z"/>
				<path fill="#2B292A" d="M129.8-131.8l-5.3-25.9h4.2l3.4,18l3.2-18h4.3l-5.3,25.9H129.8z"/>
				<path fill="#2B292A" d="M142.3-131.8v-25.9h10.9v3.3h-6.1v7.4h4.8v3.3h-4.8v8.6h6.2v3.3H142.3z"/>
				<path fill="#2B292A" d="M162.5-131.5c-4.6,0-7-2.6-7.2-7.9l4.1-0.9c0.1,3.4,1.1,5.1,2.9,5.1c0.7,0,1.3-0.2,1.6-0.7
					c0.3-0.4,0.5-1,0.5-1.8c0-0.7-0.1-1.4-0.4-2c-0.3-0.6-0.6-1.1-0.9-1.5c-0.3-0.4-0.8-0.9-1.5-1.4l-3.4-3c-1-0.9-1.7-1.8-2.2-2.7
					c-0.5-0.9-0.7-2.1-0.7-3.5c0-2,0.6-3.6,1.8-4.7c1.2-1.1,2.8-1.7,4.9-1.7c0.9,0,1.8,0.1,2.5,0.4c0.7,0.2,1.3,0.6,1.8,1
					c0.5,0.4,0.9,0.9,1.2,1.5s0.6,1.3,0.7,1.9s0.3,1.4,0.3,2.2l-4,0.8c0-0.5-0.1-1-0.1-1.4c0-0.4-0.1-0.8-0.2-1.2
					c-0.1-0.4-0.3-0.7-0.4-1s-0.4-0.4-0.7-0.6s-0.7-0.2-1.1-0.2c-0.7,0-1.2,0.3-1.6,0.7c-0.4,0.4-0.6,1-0.6,1.7
					c0,0.8,0.2,1.5,0.5,2.1c0.3,0.5,0.8,1.1,1.5,1.7l3.4,2.9c0.6,0.5,1.1,1,1.5,1.5s0.8,1,1.2,1.6c0.4,0.6,0.7,1.3,0.9,2
					s0.3,1.5,0.3,2.3c0,1.9-0.6,3.4-1.8,4.6C166-132.1,164.5-131.5,162.5-131.5z"/>
			</g>
			<g>
				<path fill="#2B292A" d="M66-101.3v-22.2h5.2c1.3,0,2.5,0.1,3.4,0.4c0.9,0.3,1.6,0.7,2.2,1.3c0.5,0.6,0.9,1.3,1.2,2.1
					c0.2,0.8,0.3,1.9,0.3,3.1v8c0,1.3-0.1,2.3-0.3,3.2s-0.6,1.6-1.1,2.3c-0.5,0.6-1.2,1.1-2.1,1.4c-0.9,0.3-2,0.4-3.3,0.4H66z
					 M70.1-104.2h1.2c0.4,0,0.8,0,1.1-0.1c0.3-0.1,0.6-0.2,0.8-0.3c0.2-0.1,0.4-0.3,0.5-0.5s0.2-0.4,0.3-0.6
					c0.1-0.2,0.1-0.5,0.2-0.9c0-0.4,0.1-0.7,0.1-1c0-0.3,0-0.7,0-1.2v-8.1c0-0.5,0-1,0-1.3c0-0.3-0.1-0.6-0.1-1
					c-0.1-0.3-0.2-0.6-0.3-0.8c-0.1-0.2-0.3-0.3-0.5-0.5c-0.2-0.1-0.5-0.3-0.8-0.3c-0.3-0.1-0.7-0.1-1.2-0.1h-1.1V-104.2z"/>
				<path fill="#2B292A" d="M81.2-101.3v-22.2h9.3v2.9h-5.3v6.4h4.2v2.9h-4.2v7.3h5.3v2.8H81.2z"/>
				<path fill="#2B292A" d="M98.6-101c-3.9,0-6-2.3-6.2-6.8l3.5-0.7c0.1,2.9,0.9,4.4,2.5,4.4c0.6,0,1.1-0.2,1.4-0.6
					c0.3-0.4,0.4-0.9,0.4-1.5c0-0.6-0.1-1.2-0.3-1.7c-0.2-0.5-0.5-0.9-0.8-1.3s-0.7-0.7-1.3-1.2l-2.9-2.5c-0.9-0.8-1.5-1.5-1.9-2.3
					c-0.4-0.8-0.6-1.8-0.6-3c0-1.7,0.5-3.1,1.5-4c1-1,2.4-1.4,4.2-1.5c0.8,0,1.5,0.1,2.2,0.3c0.6,0.2,1.1,0.5,1.5,0.8
					c0.4,0.4,0.7,0.8,1,1.3c0.3,0.5,0.5,1.1,0.6,1.6c0.1,0.6,0.2,1.2,0.3,1.9l-3.5,0.7c0-0.4,0-0.8-0.1-1.2s-0.1-0.7-0.2-1
					c-0.1-0.3-0.2-0.6-0.4-0.8c-0.2-0.2-0.4-0.4-0.6-0.5c-0.3-0.1-0.6-0.2-0.9-0.1c-0.6,0-1.1,0.2-1.4,0.6s-0.5,0.8-0.5,1.5
					c0,0.7,0.1,1.3,0.4,1.8c0.3,0.5,0.7,1,1.3,1.5l2.9,2.5c0.5,0.4,0.9,0.9,1.3,1.3c0.4,0.4,0.7,0.9,1,1.4c0.3,0.5,0.6,1.1,0.7,1.7
					s0.3,1.3,0.3,2c0,1.6-0.5,2.9-1.5,3.9C101.6-101.5,100.2-101,98.6-101z"/>
				<path fill="#2B292A" d="M106.6-101.3v-22.2h4v22.2H106.6z"/>
				<path fill="#2B292A" d="M119.6-101c-2.1,0-3.6-0.7-4.5-2s-1.4-3.2-1.4-5.7v-7.2c0-1.3,0.1-2.4,0.3-3.3c0.2-0.9,0.5-1.7,1-2.4
					c0.5-0.7,1.1-1.2,2-1.6c0.8-0.3,1.9-0.5,3.1-0.5c2.2,0,3.8,0.5,4.7,1.6c1,1.1,1.4,2.7,1.4,4.9v1.1h-3.9v-1.2c0-0.5,0-0.9,0-1.2
					c0-0.3-0.1-0.6-0.2-0.9c-0.1-0.3-0.2-0.6-0.4-0.7s-0.4-0.3-0.7-0.4c-0.3-0.1-0.6-0.2-1-0.2c-0.3,0-0.6,0-0.8,0.1
					c-0.2,0.1-0.4,0.2-0.6,0.3c-0.2,0.1-0.3,0.3-0.4,0.5c-0.1,0.2-0.2,0.4-0.3,0.6c-0.1,0.2-0.1,0.4-0.1,0.7c0,0.3-0.1,0.6-0.1,0.8
					c0,0.2,0,0.5,0,0.9v9c0,1.3,0.2,2.3,0.5,2.9c0.3,0.6,1,0.9,1.9,0.9c0.5,0,0.9-0.1,1.2-0.3c0.3-0.2,0.6-0.5,0.8-0.8
					s0.3-0.8,0.4-1.3s0.1-1.1,0.1-1.7v-1.8h-2.4v-2.6h6.1v11.3h-2.6l-0.3-2.3C122.7-101.9,121.4-101,119.6-101z"/>
				<path fill="#2B292A" d="M129.4-101.3v-22.2h2.8l5.4,12.6v-12.6h3.4v22.2h-2.7l-5.5-13.2v13.2H129.4z"/>
			</g>
			<g>
				<g>
					<g>
						<path fill="#2B292A" d="M64.9-190.3v1.2h-4.3v2.2h3.9v1.2h-3.9v2.2H65v1.2h-5.8v-7.9H64.9z"/>
						<path fill="#2B292A" d="M69.2-189.1c-0.8,0-1.3,0.3-1.3,0.8c0,1.7,4.3,0.8,4.3,3.7c0,1.4-1.2,2.3-3,2.3
							c-1.2,0-2.4-0.5-3.2-1.3l0.6-1.2c0.8,0.7,1.8,1.2,2.7,1.2c0.9,0,1.5-0.4,1.5-1c0-1.8-4.3-0.8-4.3-3.6c0-1.4,1.2-2.2,2.9-2.2
							c1,0,2,0.3,2.8,0.8l-0.6,1.2C70.6-188.8,69.8-189.1,69.2-189.1z"/>
						<path fill="#2B292A" d="M79.1-190.3v1.2h-2.5v6.7h-1.3v-6.7h-2.5v-1.2H79.1z"/>
						<path fill="#2B292A" d="M80.5-183c0,0.4-0.3,0.8-0.7,0.8c-0.4,0-0.7-0.3-0.7-0.8c0-0.4,0.3-0.7,0.7-0.7
							C80.2-183.7,80.5-183.4,80.5-183z"/>
					</g>
				</g>
				<g>
					<g>
						<path fill="#2B292A" d="M125.1-190.3v7.9h-1.3v-6.7h-1.7v-1.2H125.1z"/>
						<path fill="#2B292A" d="M130.8-183.4c1.5,0,2.2-1.2,2.2-2.9c-0.4,0.7-1.2,1.1-2.2,1.1c-1.6,0-2.5-1-2.5-2.5
							c0-1.6,1.1-2.7,2.8-2.7c2,0,3.2,1.4,3.2,3.9c0,2.5-1.3,4.2-3.4,4.2c-0.8,0-1.7-0.2-2.4-0.6l0.5-1
							C129.5-183.6,130.2-183.4,130.8-183.4z M129.5-187.7c0,0.9,0.6,1.5,1.5,1.5c1.1,0,1.7-0.7,1.7-1.5c0-0.7-0.5-1.5-1.6-1.5
							C130.2-189.2,129.5-188.6,129.5-187.7z"/>
						<path fill="#2B292A" d="M137.8-183.4c1.5,0,2.2-1.2,2.2-2.9c-0.4,0.7-1.2,1.1-2.2,1.1c-1.6,0-2.5-1-2.5-2.5
							c0-1.6,1.1-2.7,2.8-2.7c2,0,3.2,1.4,3.2,3.9c0,2.5-1.3,4.2-3.4,4.2c-0.8,0-1.7-0.2-2.4-0.6l0.5-1
							C136.5-183.6,137.2-183.4,137.8-183.4z M136.5-187.7c0,0.9,0.6,1.5,1.5,1.5c1.1,0,1.7-0.7,1.7-1.5c0-0.7-0.5-1.5-1.6-1.5
							C137.2-189.2,136.5-188.6,136.5-187.7z"/>
						<path fill="#2B292A" d="M148.4-190.3v1l-3.3,6.9h-1.4l3.3-6.7h-3.4l0,1.1h-1.2v-2.3H148.4z"/>
					</g>
				</g>
			</g>
			<g>
				<path fill="#2B292A" d="M68.9-86.5H70v3c-0.8,0.6-2,1-3.1,1c-2.4,0-4.2-1.8-4.2-4.1s1.9-4.1,4.3-4.1c1.2,0,2.3,0.4,3.1,1.1
					l-0.8,1c-0.6-0.6-1.5-0.9-2.3-0.9c-1.6,0-2.9,1.3-2.9,2.9c0,1.6,1.3,2.9,3,2.9c0.6,0,1.3-0.2,1.9-0.6V-86.5z"/>
				<path fill="#2B292A" d="M75.3-83.7c1.3,0,2.1-0.8,2.1-2.2v-4.7h1.4v4.7c0,2.1-1.3,3.4-3.5,3.4c-2.2,0-3.5-1.3-3.5-3.4v-4.7h1.4
					v4.7C73.2-84.5,74-83.7,75.3-83.7z"/>
				<path fill="#2B292A" d="M85.8-84.3h-4.1l-0.8,1.8h-1.4l3.6-8.1h1.4l3.5,8.1h-1.5L85.8-84.3z M85.2-85.5l-1.5-3.6l-1.5,3.6H85.2z
					"/>
				<path fill="#2B292A" d="M94.2-82.5L92.7-85c-0.1,0-0.2,0-0.4,0h-1.9v2.4h-1.4v-8.1h3.3c2.1,0,3.3,1,3.3,2.8
					c0,1.3-0.6,2.2-1.7,2.6l1.8,2.7H94.2z M92.3-86.2c1.2,0,2-0.5,2-1.6c0-1.1-0.7-1.6-2-1.6h-1.9v3.2H92.3z"/>
				<path fill="#2B292A" d="M102.6-84.3h-4.1l-0.8,1.8h-1.4l3.6-8.1h1.4l3.5,8.1h-1.5L102.6-84.3z M102.1-85.5l-1.5-3.6L99-85.5
					H102.1z"/>
				<path fill="#2B292A" d="M107.2-90.6l4.3,5.8v-5.8h1.3v8.1h-1.3l-4.3-5.8v5.8h-1.4v-8.1H107.2z"/>
				<path fill="#2B292A" d="M120.5-90.6v1.2H118v6.9h-1.4v-6.9h-2.5v-1.2H120.5z"/>
				<path fill="#2B292A" d="M127.5-90.6v1.2h-4.4v2.2h3.9v1.2h-3.9v2.2h4.5v1.2h-5.9v-8.1H127.5z"/>
				<path fill="#2B292A" d="M135-90.6v1.2h-4.4v2.2h3.9v1.2h-3.9v2.2h4.5v1.2h-5.9v-8.1H135z"/>
				<path fill="#2B292A" d="M144.3-86.6c0,2.3-1.8,4-4.2,4h-3.3v-8.1h3.3C142.6-90.6,144.3-88.9,144.3-86.6z M142.9-86.5
					c0-1.6-1.2-2.8-2.8-2.8h-1.9v5.6h2C141.7-83.7,142.9-84.9,142.9-86.5z"/>
			</g>
			<path fill="#2B292A" d="M21.6-108.3c-0.6,4.7,0.3,9.3,2.6,13.4c2.4,4.1,5.9,7.2,10.3,9c6.4,2.6,11.6,7.8,14.3,14.3
				c1.8,4.4,4.9,7.9,9,10.3c4.1,2.4,8.7,3.3,13.4,2.6c6.9-1,14,0.9,19.5,5.2c3.7,2.9,8.2,4.4,12.9,4.4c4.7,0,9.2-1.5,12.9-4.4
				c5.5-4.3,12.6-6.2,19.5-5.2c4.7,0.6,9.3-0.3,13.4-2.6c4.1-2.4,7.2-5.9,9-10.3c2.6-6.4,7.8-11.6,14.3-14.3c4.4-1.8,7.9-4.9,10.3-9
				c2.4-4.1,3.3-8.7,2.6-13.4c-1-6.9,0.9-14,5.2-19.5c2.9-3.7,4.4-8.2,4.4-12.9c0-4.7-1.5-9.2-4.4-12.9c-4.3-5.5-6.2-12.6-5.2-19.5
				c0.6-4.7-0.3-9.3-2.6-13.4c-2.4-4.1-5.9-7.2-10.3-9c-6.4-2.6-11.6-7.8-14.3-14.3c-1.8-4.4-4.9-7.9-9-10.3
				c-4.1-2.4-8.7-3.3-13.4-2.6c-6.9,1-14-0.9-19.5-5.2c-3.7-2.9-8.2-4.4-12.9-4.4c-4.7,0-9.2,1.5-12.9,4.4
				c-5.5,4.3-12.6,6.2-19.5,5.2c-4.7-0.6-9.3,0.3-13.4,2.6c-4.1,2.4-7.2,5.9-9,10.3c-2.6,6.4-7.8,11.6-14.3,14.3
				c-4.4,1.8-7.9,4.9-10.3,9c-2.4,4.1-3.3,8.7-2.6,13.4c1,6.9-0.9,14-5.2,19.5c-2.9,3.7-4.4,8.2-4.4,12.9c0,4.7,1.5,9.2,4.4,12.9
				C20.7-122.3,22.6-115.2,21.6-108.3z M25-173.6c-0.5-3.9,0.2-7.8,2.2-11.2c2-3.4,4.9-6,8.6-7.5c7.3-3,13.2-8.9,16.2-16.2
				c1.5-3.6,4.1-6.6,7.5-8.6c3.4-2,7.3-2.7,11.2-2.2c7.8,1.1,15.8-1.1,22.1-5.9c3.1-2.4,6.8-3.7,10.8-3.7s7.7,1.3,10.8,3.7
				c6.2,4.8,14.3,7,22.1,5.9c3.9-0.5,7.8,0.2,11.2,2.2c3.4,2,6,4.9,7.5,8.6c3,7.3,8.9,13.2,16.2,16.2c3.6,1.5,6.6,4.1,8.6,7.5
				c2,3.4,2.7,7.3,2.2,11.2c-1.1,7.8,1.1,15.8,5.9,22.1c2.4,3.1,3.7,6.8,3.7,10.8c0,3.9-1.3,7.7-3.7,10.8c-4.8,6.2-7,14.3-5.9,22.1
				c0.5,3.9-0.2,7.8-2.2,11.2c-2,3.4-4.9,6-8.6,7.5c-7.3,3-13.2,8.9-16.2,16.2c-1.5,3.6-4.1,6.6-7.5,8.6c-3.4,2-7.3,2.7-11.2,2.2
				c-7.8-1.1-15.8,1.1-22.1,5.9c-3.1,2.4-6.8,3.7-10.8,3.7s-7.7-1.3-10.8-3.7c-5.2-4-11.6-6.2-18.1-6.2c-1.3,0-2.7,0.1-4,0.3
				c-3.9,0.5-7.8-0.2-11.2-2.2c-3.4-2-6-4.9-7.5-8.6c-3-7.3-8.9-13.2-16.2-16.2c-3.6-1.5-6.6-4.1-8.6-7.5c-2-3.4-2.7-7.3-2.2-11.2
				c1.1-7.8-1.1-15.8-5.9-22.1c-2.4-3.1-3.7-6.8-3.7-10.8c0-3.9,1.3-7.7,3.7-10.8C23.9-157.7,26.1-165.8,25-173.6z"/>
			<path fill="#2B292A" d="M130.3-67.4l0.1,2c1.1-0.1,2.2-0.1,3.3,0l0.1-2C132.6-67.5,131.4-67.5,130.3-67.4z"/>
			<path fill="#2B292A" d="M137-214.2c1-0.1,2-0.2,3-0.1l0.2-2c-1.1-0.1-2.3-0.1-3.5,0.1l-0.2,0l0.3,2L137-214.2z"/>
			<path fill="#2B292A" d="M30.3-112.4c0-1.2-0.1-2.4-0.2-3.5l-2,0.2c0.1,1.1,0.2,2.2,0.2,3.3L30.3-112.4z"/>
			<path fill="#2B292A" d="M159-196.9c-0.8-0.8-1.5-1.6-2.2-2.5l-1.6,1.2c0.7,0.9,1.5,1.8,2.3,2.7L159-196.9z"/>
			<path fill="#2B292A" d="M137.3-67.1l-0.2,2c0.6,0.1,1.1,0.1,1.7,0.1c0.7,0,1.3,0,2-0.1l-0.3-2C139.4-67,138.4-67,137.3-67.1z"/>
			<path fill="#2B292A" d="M153.2-201.1l1.7-1.1c-0.6-0.9-1.1-1.9-1.6-2.9l-1.8,0.9C152-203.1,152.6-202.1,153.2-201.1z"/>
			<path fill="#2B292A" d="M151.8-208.2c-0.5-1.1-1.2-2.2-2-3.1l-1.5,1.3c0.7,0.8,1.3,1.7,1.7,2.7L151.8-208.2z"/>
			<path fill="#2B292A" d="M30-107.2c0.1-0.6,0.1-1.1,0.2-1.7l-2-0.2c0,0.5-0.1,1.1-0.2,1.6c-0.1,0.6-0.1,1.3-0.1,1.9l2,0
				C29.8-106.1,29.9-106.6,30-107.2z"/>
			<path fill="#2B292A" d="M145-68.7c-0.5,0.3-1,0.5-1.5,0.7l0.8,1.9c0.6-0.2,1.2-0.5,1.7-0.8c0.5-0.3,1-0.6,1.5-1l-1.2-1.6
				C145.9-69.3,145.5-69,145-68.7z"/>
			<path fill="#2B292A" d="M145.9-212.1l1.1-1.7c-0.3-0.2-0.7-0.4-1-0.7c-0.7-0.4-1.5-0.8-2.2-1.1l-0.7,1.9c0.7,0.2,1.3,0.6,1.9,0.9
				C145.3-212.5,145.6-212.3,145.9-212.1z"/>
			<path fill="#2B292A" d="M54.3-79.5l-1.7,1c0.6,1,1.1,1.9,1.6,3l1.8-0.8C55.5-77.4,54.9-78.5,54.3-79.5z"/>
			<path fill="#2B292A" d="M48.6-83.8c0.8,0.8,1.5,1.7,2.1,2.6l1.6-1.2c-0.7-0.9-1.5-1.9-2.3-2.7L48.6-83.8z"/>
			<path fill="#2B292A" d="M28.3-101.9c0.3,1.2,0.8,2.3,1.4,3.4l1.8-1c-0.5-0.9-0.9-1.9-1.2-3L28.3-101.9z"/>
			<path fill="#2B292A" d="M87.7-62.8c1,0.4,2,0.9,3,1.5l1-1.7c-1-0.6-2.1-1.1-3.2-1.6L87.7-62.8z"/>
			<path fill="#2B292A" d="M94.7-61.1l-1.2,1.6c0.4,0.3,0.7,0.5,1.1,0.8c0.6,0.5,1.2,0.9,1.9,1.2l1-1.8c-0.6-0.3-1.1-0.7-1.6-1.1
				C95.4-60.5,95-60.8,94.7-61.1z"/>
			<path fill="#2B292A" d="M55.6-72.3c0.6,1.1,1.4,2.1,2.2,2.9l1.4-1.4c-0.7-0.8-1.4-1.6-1.9-2.5L55.6-72.3z"/>
			<path fill="#2B292A" d="M28.1-173.3c0.1,1.1,0.2,2.2,0.2,3.3l2,0c0-1.2-0.1-2.4-0.2-3.5L28.1-173.3z"/>
			<path fill="#2B292A" d="M43.6-88.2c0.9,0.6,1.8,1.3,2.6,2.1l1.3-1.5c-0.9-0.8-1.8-1.5-2.8-2.2L43.6-88.2z"/>
			<path fill="#2B292A" d="M31.8-95.5c0.8,0.9,1.8,1.7,2.8,2.4l1.1-1.7c-0.9-0.6-1.7-1.2-2.4-2L31.8-95.5z"/>
			<path fill="#2B292A" d="M37.8-91.6c1,0.4,2,1,3,1.5l1-1.7c-1-0.6-2.1-1.1-3.2-1.6L37.8-91.6z"/>
			<path fill="#2B292A" d="M184.3-133.5l1.6,1.2c0.7-1,1.3-2.1,1.7-3.3l-1.9-0.7C185.4-135.3,184.9-134.3,184.3-133.5z"/>
			<path fill="#2B292A" d="M177.9-121l1.9,0.5c0.3-1.1,0.6-2.1,1-3.2l-1.9-0.7C178.6-123.2,178.2-122.1,177.9-121z"/>
			<path fill="#2B292A" d="M99.8-56.1c1.2,0.3,2.4,0.5,3.7,0.5v-2c-1.1,0-2.1-0.1-3.2-0.4L99.8-56.1z"/>
			<path fill="#2B292A" d="M155.6-83.6l1.6,1.3c0.7-0.9,1.5-1.7,2.2-2.5l-1.4-1.4C157.1-85.4,156.3-84.5,155.6-83.6z"/>
			<path fill="#2B292A" d="M182-151.2l1.7-1.1c-0.6-0.9-1.1-1.9-1.6-2.9l-1.8,0.9C180.8-153.3,181.3-152.2,182-151.2z"/>
			<path fill="#2B292A" d="M179.1-164.7c-0.2-1.1-0.3-2.2-0.3-3.3l-2,0.1c0.1,1.2,0.2,2.4,0.3,3.5L179.1-164.7z"/>
			<path fill="#2B292A" d="M180.5-127.6l1.8,0.9c0.5-1,1.1-2,1.7-2.9l-1.7-1.1C181.6-129.6,181-128.6,180.5-127.6z"/>
			<path fill="#2B292A" d="M172.4-95.6l1.3,1.6c1-0.8,1.8-1.7,2.6-2.7l-1.6-1.2C174-97,173.2-96.3,172.4-95.6z"/>
			<path fill="#2B292A" d="M176.2-100.7l1.9,0.8c0.5-1.1,0.8-2.3,1-3.6l-2-0.3C176.9-102.7,176.6-101.7,176.2-100.7z"/>
			<path fill="#2B292A" d="M178.7-110.5l-2,0.1c0,1.1,0.1,2.2,0.3,3.3c0,0.1,0,0.2,0,0.3l2-0.2c0-0.1,0-0.2,0-0.3
				C178.9-108.4,178.8-109.5,178.7-110.5z"/>
			<path fill="#2B292A" d="M176.8-114l2,0.1c0.1-1.1,0.2-2.2,0.4-3.3l-2-0.3C177-116.3,176.8-115.1,176.8-114z"/>
			<path fill="#2B292A" d="M187.4-146.4c-0.5-1.1-1.1-2.2-1.9-3.2l-1.6,1.2c0.7,0.9,1.2,1.8,1.6,2.7L187.4-146.4z"/>
			<path fill="#2B292A" d="M170-189.5c-1-0.4-2-0.9-3-1.4l-0.9,1.8c1,0.6,2.1,1.1,3.2,1.5L170-189.5z"/>
			<path fill="#2B292A" d="M169.3-93.8c-0.9,0.4-1.9,0.8-2.8,1.3l0.9,1.8c0.9-0.4,1.7-0.8,2.6-1.2c0.2-0.1,0.3-0.1,0.5-0.2l-0.8-1.8
				C169.6-93.9,169.4-93.9,169.3-93.8z"/>
			<path fill="#2B292A" d="M164.1-192.6c-0.9-0.6-1.8-1.3-2.7-2l-1.3,1.5c0.9,0.8,1.9,1.5,2.8,2.1L164.1-192.6z"/>
			<path fill="#2B292A" d="M151.7-77.7l1.8,0.9c0.5-1,1.1-2,1.7-2.9l-1.7-1.1C152.8-79.8,152.2-78.8,151.7-77.7z"/>
			<path fill="#2B292A" d="M160.6-88.6l1.3,1.6c0.9-0.7,1.8-1.4,2.7-2l-1.1-1.7C162.5-90.1,161.5-89.4,160.6-88.6z"/>
			<path fill="#2B292A" d="M177-174.2c-0.1,0.9-0.2,1.8-0.3,2.7l2,0.1c0-0.9,0.1-1.7,0.3-2.6c0-0.3,0.1-0.6,0.1-0.8l-2-0.2
				C177.1-174.7,177-174.5,177-174.2z"/>
			<path fill="#2B292A" d="M148.6-71.8l1.6,1.2c0.8-1,1.4-2,1.9-3.2l-1.8-0.8C149.8-73.5,149.2-72.6,148.6-71.8z"/>
			<path fill="#2B292A" d="M178.9-178.5c-0.2-1.2-0.6-2.4-1.1-3.5l-1.8,0.8c0.4,1,0.8,2,0.9,3L178.9-178.5z"/>
			<path fill="#2B292A" d="M178.8-157.6l1.9-0.7c-0.4-1-0.7-2.1-1-3.2l-1.9,0.5C178.1-159.8,178.4-158.7,178.8-157.6z"/>
			<path fill="#2B292A" d="M174.3-183.9l1.6-1.3c-0.8-1-1.7-1.8-2.7-2.6l-1.2,1.6C172.9-185.5,173.7-184.7,174.3-183.9z"/>
			<path fill="#2B292A" d="M186.6-140.7c0,0.5,0,0.9-0.1,1.4l2,0.2c0.1-0.5,0.1-1,0.1-1.6c0-0.7-0.1-1.4-0.2-2.1l-2,0.3
				C186.5-141.9,186.6-141.3,186.6-140.7z"/>
			<path fill="#2B292A" d="M54.8-202.8l-1.8-1c-0.5,1-1.1,1.9-1.8,2.8l1.6,1.2C53.6-200.8,54.2-201.8,54.8-202.8z"/>
			<path fill="#2B292A" d="M56.6-206.5c0.3-0.8,0.8-1.6,1.3-2.4l-1.7-1.1c-0.6,0.9-1.1,1.8-1.5,2.7c-0.1,0.2-0.1,0.3-0.2,0.5
				l1.8,0.8C56.4-206.2,56.5-206.3,56.6-206.5z"/>
			<path fill="#2B292A" d="M50.8-197l-1.5-1.3c-0.7,0.8-1.5,1.7-2.3,2.4l1.4,1.5C49.2-195.3,50-196.1,50.8-197z"/>
			<path fill="#2B292A" d="M61.9-212.7c0.2-0.1,0.4-0.2,0.7-0.4l-0.9-1.8c-0.3,0.1-0.5,0.3-0.8,0.4c-0.8,0.5-1.6,1-2.3,1.6l1.3,1.5
				C60.6-211.8,61.2-212.3,61.9-212.7z"/>
			<path fill="#2B292A" d="M68.8-214.3l0.1-2c-1.2-0.1-2.5,0-3.7,0.3l0.4,2C66.6-214.3,67.7-214.4,68.8-214.3z"/>
			<path fill="#2B292A" d="M61.8-68.8l-1,1.7l0.2,0.1c1,0.6,2.1,1.1,3.2,1.4l0.6-1.9c-1-0.3-1.9-0.7-2.8-1.2L61.8-68.8z"/>
			<path fill="#2B292A" d="M67.8-65.1c0.1,0,0.3,0,0.4,0c0.7,0,1.3,0,2-0.1c0.4-0.1,0.8-0.1,1.2-0.1l-0.2-2c-0.4,0-0.8,0.1-1.2,0.1
				c-0.7,0.1-1.4,0.1-2.1,0.1L67.8-65.1z"/>
			<path fill="#2B292A" d="M45.6-192.2l-1.2-1.6c-0.9,0.7-1.8,1.3-2.8,1.9l1.1,1.7C43.7-190.8,44.7-191.4,45.6-192.2z"/>
			<path fill="#2B292A" d="M30.5-179.9l-1.9-0.6c-0.4,1.2-0.6,2.4-0.7,3.6l2,0.1C29.9-177.8,30.1-178.9,30.5-179.9z"/>
			<path fill="#2B292A" d="M37.7-187.6c0.6-0.3,1.3-0.5,1.9-0.8l-0.9-1.8c-0.6,0.3-1.2,0.5-1.8,0.8c-0.5,0.2-0.9,0.4-1.4,0.7
				l0.9,1.8C36.9-187.3,37.3-187.4,37.7-187.6z"/>
			<path fill="#2B292A" d="M75.7-213.9l-0.1-2c-1.1,0-2.2,0-3.3-0.1l-0.1,2c0.8,0.1,1.7,0.1,2.5,0.1C75-213.9,75.4-213.9,75.7-213.9
				z"/>
			<path fill="#2B292A" d="M30.1-166.4l-2-0.2c-0.1,1.1-0.3,2.2-0.5,3.3l2,0.4C29.9-164.1,30-165.3,30.1-166.4z"/>
			<path fill="#2B292A" d="M33.9-185.2l-1.4-1.5c-0.9,0.8-1.7,1.8-2.4,2.8l1.7,1.1C32.4-183.7,33.1-184.5,33.9-185.2z"/>
			<path fill="#2B292A" d="M116.7-63.7l0.9,1.8c1-0.5,2-1,3-1.4l-0.7-1.9C118.8-64.8,117.7-64.3,116.7-63.7z"/>
			<path fill="#2B292A" d="M120.2-218.3c-1-0.4-2-0.9-3-1.4l-0.9,1.8c1,0.6,2.1,1.1,3.2,1.5L120.2-218.3z"/>
			<path fill="#2B292A" d="M101.2-223.6l-0.4-2c-1.2,0.2-2.4,0.6-3.5,1.1l0.8,1.8C99.1-223.1,100.2-223.4,101.2-223.6z"/>
			<path fill="#2B292A" d="M108.2-225c-1.2-0.4-2.4-0.6-3.6-0.7l-0.1,2c1.1,0.1,2.1,0.3,3.1,0.6L108.2-225z"/>
			<path fill="#2B292A" d="M126.6-216.4c-1.1-0.2-2.2-0.5-3.3-0.8l-0.6,1.9c1.1,0.3,2.3,0.6,3.5,0.8L126.6-216.4z"/>
			<path fill="#2B292A" d="M74.7-65.5c1.1,0,2.2,0.1,3.3,0.2l0.2-2c-1.2-0.1-2.4-0.2-3.5-0.2L74.7-65.5z"/>
			<path fill="#2B292A" d="M111.2-60.3c-0.1,0.1-0.3,0.2-0.4,0.3l1.2,1.6c0.2-0.1,0.3-0.3,0.5-0.4c0.7-0.6,1.5-1.1,2.2-1.6l-1.1-1.7
				C112.8-61.4,112-60.9,111.2-60.3z"/>
			<path fill="#2B292A" d="M123.8-64.3c1.1-0.3,2.2-0.5,3.3-0.7l-0.3-2c-1.2,0.2-2.3,0.4-3.5,0.8L123.8-64.3z"/>
			<path fill="#2B292A" d="M104.9-57.7l0.2,2c1.2-0.1,2.4-0.4,3.6-0.9l-0.7-1.9C107-58.1,105.9-57.8,104.9-57.7z"/>
			<path fill="#2B292A" d="M133.3-213.9l-0.1-2c-1.1,0-2.2,0-3.3-0.1l-0.2,2c0.9,0.1,1.7,0.1,2.6,0.1
				C132.6-213.9,133-213.9,133.3-213.9z"/>
			<path fill="#2B292A" d="M113.2-219.7l1.1-1.7c-0.6-0.4-1.2-0.9-1.8-1.3c-0.3-0.2-0.6-0.5-1-0.7l-1.1,1.7c0.3,0.2,0.6,0.4,0.8,0.6
				C111.8-220.7,112.5-220.2,113.2-219.7z"/>
			<path fill="#2B292A" d="M89.4-217.2l-0.9-1.8c-1,0.5-2,0.9-3.1,1.3l0.7,1.9C87.2-216.3,88.3-216.7,89.4-217.2z"/>
			<path fill="#2B292A" d="M81.3-64.8c1.1,0.2,2.2,0.5,3.2,0.9l0.6-1.9c-1.1-0.4-2.3-0.7-3.4-0.9L81.3-64.8z"/>
			<path fill="#2B292A" d="M95.5-220.9l-1.2-1.6c-0.9,0.7-1.8,1.3-2.8,1.9l1,1.7C93.5-219.5,94.5-220.2,95.5-220.9z"/>
			<path fill="#2B292A" d="M82.7-214.9l-0.5-2c-1.1,0.3-2.2,0.5-3.3,0.6l0.3,2C80.4-214.4,81.6-214.6,82.7-214.9z"/>
			<path fill="#2B292A" d="M102.5-200v-11.6h-1.4c-0.6,2.6-4.5,20.1-9.4,25.6c0,0,4.4,5,4.8,10.3h13.8c0.4-5.3,4.8-10.3,4.8-10.3
				c-4.9-5.5-8.8-23-9.4-25.6h-1.4v11.6c1,0.4,1.7,1.4,1.7,2.5c0,1.5-1.2,2.7-2.7,2.7c-1.5,0-2.7-1.2-2.7-2.7
				C100.8-198.6,101.5-199.6,102.5-200z"/>
			<rect x="95" y="-173.4" fill="#2B292A" width="17" height="7.5"/>
			<polygon fill="#2B292A" points="57.3,-118.9 53.5,-115.1 49.7,-118.9 49.1,-118.3 48.5,-117.7 52.3,-113.9 48.5,-110.1 
				49.1,-109.5 49.7,-108.9 53.5,-112.7 57.3,-108.9 58.5,-110.1 54.7,-113.9 58.5,-117.7 			"/>
			<polygon fill="#2B292A" points="149.7,-118.9 148.5,-117.7 152.3,-113.9 148.5,-110.1 149.7,-108.9 153.5,-112.7 157.3,-108.9 
				157.9,-109.5 158.5,-110.1 154.7,-113.9 158.5,-117.7 157.9,-118.3 157.3,-118.9 153.5,-115.1 			"/>
		</g>
		<path fill="#2B292A" d="M141.7,166.3l1,1.7c1-0.6,2-1.2,3-1.8l-1.1-1.7C143.6,165.1,142.7,165.7,141.7,166.3z"/>
		<path fill="#2B292A" d="M72.3,172.1c1.1,0.5,2.1,0.9,3.2,1.3l0.7-1.9c-1.1-0.4-2.1-0.8-3.1-1.3L72.3,172.1z"/>
		<path fill="#2B292A" d="M92.4,177.7c1.1,0.2,2.3,0.3,3.5,0.4l0.2-2c-1.1-0.1-2.3-0.2-3.4-0.4L92.4,177.7z"/>
		<path fill="#2B292A" d="M66,169c1,0.6,2.1,1.1,3.1,1.6l0.9-1.8c-1-0.5-2-1-3-1.6L66,169z"/>
		<path fill="#2B292A" d="M85.5,176.5c1.1,0.3,2.3,0.5,3.4,0.7l0.4-2c-1.1-0.2-2.2-0.4-3.3-0.7L85.5,176.5z"/>
		<path fill="#2B292A" d="M78.8,174.6c1.1,0.4,2.2,0.7,3.3,1l0.5-1.9c-1.1-0.3-2.2-0.6-3.2-1L78.8,174.6z"/>
		<path fill="#2B292A" d="M104.2,176.4h-1.3c-1.1,0-2.3,0-3.4-0.1l-0.1,2c1.2,0.1,2.3,0.1,3.5,0.1h1.3c0,0,0,0,0,0c0.7,0,1.3,0,2,0
			l-0.1-2C105.5,176.4,104.8,176.4,104.2,176.4z"/>
		<path fill="#2B292A" d="M109.5,176.2l0.1,2c1.2-0.1,2.3-0.2,3.5-0.3l-0.2-2C111.8,176,110.6,176.1,109.5,176.2z"/>
		<path fill="#2B292A" d="M135.7,169.4l0.9,1.8c1-0.5,2.1-1,3.1-1.6l-0.9-1.8C137.7,168.5,136.7,169,135.7,169.4z"/>
		<path fill="#2B292A" d="M129.4,172l0.7,1.9c1.1-0.4,2.2-0.8,3.3-1.3l-0.8-1.9C131.5,171.2,130.5,171.7,129.4,172z"/>
		<path fill="#2B292A" d="M116.3,175.4l0.3,2c1.1-0.2,2.3-0.4,3.4-0.6l-0.4-2C118.5,175,117.4,175.3,116.3,175.4z"/>
		<path fill="#2B292A" d="M122.9,174l0.5,1.9c1.1-0.3,2.3-0.6,3.4-1l-0.6-1.9C125.1,173.4,124,173.8,122.9,174z"/>
		<g>
			<g>
				<g>
					<path fill="#2B292A" d="M43.3,82.6v10.9h12.6V82.6h3.4v26h-3.4V96.5H43.3v12.2H40v-26H43.3z"/>
					<path fill="#2B292A" d="M68.5,82.6v26h-3.4v-26H68.5z"/>
					<path fill="#2B292A" d="M74.4,83c1.6-0.3,3.7-0.5,6.4-0.5c3.3,0,5.8,0.8,7.3,2.2c1.4,1.2,2.3,3.1,2.3,5.4c0,2.4-0.7,4.2-2,5.6
						c-1.8,1.9-4.7,2.9-8,2.9c-1,0-1.9,0-2.7-0.2v10.4h-3.4V83z M77.7,95.5c0.7,0.2,1.7,0.3,2.8,0.3c4.1,0,6.5-2,6.5-5.6
						c0-3.4-2.4-5.1-6.1-5.1c-1.5,0-2.6,0.1-3.2,0.3V95.5z"/>
					<path fill="#2B292A" d="M94.4,104.6c1.5,0.9,3.7,1.7,6,1.7c3.4,0,5.4-1.8,5.4-4.4c0-2.4-1.4-3.8-4.9-5.2
						c-4.2-1.5-6.9-3.7-6.9-7.4c0-4.1,3.4-7.1,8.4-7.1c2.7,0,4.6,0.6,5.8,1.3l-0.9,2.7c-0.8-0.5-2.6-1.2-4.9-1.2
						c-3.6,0-4.9,2.1-4.9,3.9c0,2.4,1.6,3.6,5.2,5c4.4,1.7,6.6,3.8,6.6,7.6c0,4-3,7.5-9.1,7.5c-2.5,0-5.3-0.7-6.6-1.7L94.4,104.6z"
						/>
					<path fill="#2B292A" d="M118.9,85.5H111v-2.9h19.3v2.9h-8v23.2h-3.4V85.5z"/>
					<path fill="#2B292A" d="M146.6,96.5h-10.1v9.4h11.3v2.8h-14.6v-26h14.1v2.8h-10.7v8.2h10.1V96.5z"/>
					<path fill="#2B292A" d="M152.1,83c1.7-0.3,4.1-0.5,6.4-0.5c3.6,0,5.9,0.7,7.5,2.1c1.3,1.2,2,2.9,2,4.9c0,3.4-2.2,5.7-4.9,6.6
						v0.1c2,0.7,3.2,2.5,3.8,5.3c0.8,3.6,1.5,6.1,2,7.1h-3.5c-0.4-0.7-1-3-1.7-6.2c-0.8-3.6-2.2-4.9-5.2-5.1h-3.2v11.3h-3.4V83z
						 M155.5,94.8h3.4c3.6,0,5.9-2,5.9-4.9c0-3.4-2.4-4.8-6-4.9c-1.6,0-2.8,0.2-3.3,0.3V94.8z"/>
				</g>
			</g>
			<g>
				<path fill="#2B292A" d="M71.1,136c0,2.8-1.8,4.4-4.9,4.4h-2.8v3.7h-2.1v-12.3h4.9C69.3,131.7,71.1,133.3,71.1,136z M69.1,136
					c0-1.6-1.1-2.4-3-2.4h-2.8v4.9h2.8C68,138.5,69.1,137.7,69.1,136z"/>
				<path fill="#2B292A" d="M81,144.1l-2.3-3.7c-0.2,0-0.4,0-0.6,0h-2.9v3.7h-2.1v-12.3h5c3.2,0,5,1.5,5,4.2c0,2-0.9,3.4-2.6,4
					l2.8,4.1H81z M78.2,138.5c1.9,0,3-0.8,3-2.5c0-1.6-1.1-2.4-3-2.4h-2.9v4.9H78.2z"/>
				<path fill="#2B292A" d="M94.7,131.7v1.9H88v3.4h6v1.9h-6v3.4h7v1.9h-9v-12.3H94.7z"/>
				<path fill="#2B292A" d="M100,131.7l4.1,8.2l4.1-8.2h2.5v12.3h-1.9l0-9.2l-3.9,7.9h-1.4l-3.9-7.9v9.2h-2v-12.3H100z"/>
				<path fill="#2B292A" d="M115.9,131.7v12.3h-2.1v-12.3H115.9z"/>
				<path fill="#2B292A" d="M124.3,142.3c2,0,3.3-1.2,3.3-3.3v-7.2h2.1v7.2c0,3.2-2,5.2-5.4,5.2s-5.4-2-5.4-5.2v-7.2h2.1v7.2
					C121,141.1,122.3,142.3,124.3,142.3z"/>
				<path fill="#2B292A" d="M135.1,131.7l4.1,8.2l4.1-8.2h2.5v12.3h-1.9l0-9.2l-3.9,7.9h-1.4l-3.9-7.9v9.2h-2v-12.3H135.1z"/>
			</g>
			<g>
				<path fill="#2B292A" d="M82.3,160.5c-0.8,0.7-1.9,1.2-3,1.2c-1.4,0-2.6-0.9-3.5-2.3c-3.3,0-5.8-2.4-5.8-5.5
					c0-3.1,2.5-5.5,5.8-5.5s5.8,2.4,5.8,5.5c0,2.5-1.6,4.5-3.9,5.3c0.6,0.6,1.2,1,1.8,1c0.6,0,1.3-0.3,2-0.9L82.3,160.5z
					 M75.9,157.8c2.1,0,3.9-1.7,3.9-3.9c0-2.2-1.7-3.8-3.9-3.8c-2.2,0-3.9,1.7-3.9,3.8C72,156,73.8,157.8,75.9,157.8z"/>
				<path fill="#2B292A" d="M88.3,157.8c1.8,0,2.9-1.1,2.9-2.9v-6.4H93v6.4c0,2.9-1.8,4.6-4.7,4.6s-4.8-1.7-4.8-4.6v-6.4h1.8v6.4
					C85.4,156.7,86.5,157.8,88.3,157.8z"/>
				<path fill="#2B292A" d="M102.4,156.9h-5.5l-1,2.5h-1.9l4.8-10.9h1.9l4.8,10.9h-2L102.4,156.9z M101.7,155.2l-2.1-4.8l-2.1,4.8
					H101.7z"/>
				<path fill="#2B292A" d="M108.7,148.4v9.2h4.7v1.7h-6.6v-10.9H108.7z"/>
				<path fill="#2B292A" d="M117,148.4v10.9h-1.8v-10.9H117z"/>
				<path fill="#2B292A" d="M127.3,148.4v1.7h-3.5v9.3H122v-9.3h-3.4v-1.7H127.3z"/>
				<path fill="#2B292A" d="M133.4,155.7v3.6h-1.8v-3.6l-4.1-7.3h1.9l3.1,5.3l3.1-5.3h1.9L133.4,155.7z"/>
			</g>
			<path fill="#2B292A" d="M173.8,128c-0.4,1.1-0.8,2.1-1.3,3.2l1.8,0.8c0.5-1.1,0.9-2.2,1.3-3.2L173.8,128z"/>
			<path fill="#2B292A" d="M152.7,158.4l1.3,1.5c0.9-0.8,1.7-1.5,2.6-2.3l-1.4-1.5C154.4,156.9,153.6,157.6,152.7,158.4z"/>
			<path fill="#2B292A" d="M162.1,148.6l1.6,1.3c0.7-0.9,1.4-1.8,2.1-2.8l-1.6-1.2C163.5,146.8,162.8,147.7,162.1,148.6z"/>
			<path fill="#2B292A" d="M147.4,162.6l1.2,1.6c0.9-0.7,1.9-1.4,2.8-2.1l-1.2-1.6C149.2,161.2,148.3,161.9,147.4,162.6z"/>
			<path fill="#2B292A" d="M157.6,153.7l1.4,1.4c0.8-0.8,1.6-1.7,2.4-2.6l-1.5-1.3C159.2,152,158.4,152.9,157.6,153.7z"/>
			<path fill="#2B292A" d="M166.1,143.1l1.7,1.1c0.6-1,1.3-2,1.9-2.9l-1.7-1C167.4,141.2,166.8,142.2,166.1,143.1z"/>
			<path fill="#2B292A" d="M54.5,161.2c0.9,0.7,1.8,1.5,2.7,2.2l1.2-1.6c-0.9-0.7-1.8-1.4-2.7-2.1L54.5,161.2z"/>
			<path fill="#2B292A" d="M169.6,137.3l1.8,1c0.6-1,1.1-2.1,1.6-3.1l-1.8-0.9C170.7,135.3,170.2,136.3,169.6,137.3z"/>
			<path fill="#2B292A" d="M172.5,57.8l1.8-0.8c-0.5-1.1-0.9-2.1-1.4-3.2l-1.8,0.9C171.6,55.7,172.1,56.8,172.5,57.8z"/>
			<path fill="#2B292A" d="M60.1,165.4c1,0.7,1.9,1.3,2.9,1.9l1.1-1.7c-1-0.6-1.9-1.2-2.9-1.8L60.1,165.4z"/>
			<path fill="#2B292A" d="M171.3,50.7c-0.6-1-1.1-2-1.7-3l-1.7,1c0.6,1,1.2,2,1.7,2.9L171.3,50.7z"/>
			<path fill="#2B292A" d="M116.4,11.7c-1.1-0.2-2.3-0.3-3.5-0.5l-0.2,2c1.1,0.1,2.3,0.3,3.4,0.5L116.4,11.7z"/>
			<path fill="#2B292A" d="M32.6,62.8c0.4-1.1,0.8-2.1,1.2-3.2l-1.9-0.7c-0.4,1.1-0.8,2.2-1.2,3.3L32.6,62.8z"/>
			<path fill="#2B292A" d="M95.7,13.1l-0.2-2c-1.2,0.1-2.3,0.2-3.5,0.4l0.3,2C93.4,13.3,94.6,13.2,95.7,13.1z"/>
			<path fill="#2B292A" d="M82.4,15.6l-0.5-1.9c-1.1,0.3-2.2,0.7-3.3,1l0.6,1.9C80.2,16.2,81.3,15.9,82.4,15.6z"/>
			<path fill="#2B292A" d="M39.9,47.5l-1.7-1.1c-0.6,1-1.2,2-1.8,3l1.7,1C38.7,49.5,39.3,48.5,39.9,47.5z"/>
			<path fill="#2B292A" d="M36.5,53.4l-1.8-0.9c-0.5,1-1,2.1-1.5,3.1l1.8,0.8C35.5,55.5,36,54.5,36.5,53.4z"/>
			<path fill="#2B292A" d="M49.3,156.5c0.8,0.8,1.7,1.6,2.5,2.4l1.3-1.5c-0.8-0.8-1.7-1.5-2.5-2.3L49.3,156.5z"/>
			<path fill="#2B292A" d="M123.2,13.1c-1.1-0.3-2.3-0.6-3.4-0.8l-0.4,2c1.1,0.2,2.2,0.5,3.3,0.8L123.2,13.1z"/>
			<path fill="#2B292A" d="M129.9,15.2c-1.1-0.4-2.2-0.8-3.3-1.1L126,16c1.1,0.3,2.2,0.7,3.2,1.1L129.9,15.2z"/>
			<path fill="#2B292A" d="M43.8,42l-1.6-1.2c-0.7,0.9-1.4,1.9-2.1,2.8l1.6,1.1C42.4,43.8,43.1,42.9,43.8,42z"/>
			<path fill="#2B292A" d="M102.5,12.8l0-2c-1.2,0-2.3,0-3.5,0.1l0.1,2C100.2,12.8,101.4,12.8,102.5,12.8z"/>
			<path fill="#2B292A" d="M109.4,10.9c-1.2-0.1-2.3-0.1-3.5-0.2l0,2c1.1,0,2.3,0.1,3.4,0.2L109.4,10.9z"/>
			<path fill="#2B292A" d="M58.2,27.7L57,26c-0.9,0.7-1.8,1.4-2.7,2.2l1.3,1.5C56.4,29,57.3,28.3,58.2,27.7z"/>
			<path fill="#2B292A" d="M148.4,24.8c-0.9-0.7-1.9-1.3-2.9-2l-1.1,1.7c0.9,0.6,1.9,1.3,2.8,1.9L148.4,24.8z"/>
			<path fill="#2B292A" d="M153.9,29.2c-0.9-0.8-1.8-1.5-2.7-2.2l-1.2,1.6c0.9,0.7,1.8,1.4,2.6,2.2L153.9,29.2z"/>
			<path fill="#2B292A" d="M142.5,21.1c-1-0.6-2-1.2-3.1-1.7l-0.9,1.8c1,0.5,2,1.1,3,1.6L142.5,21.1z"/>
			<path fill="#2B292A" d="M163.6,39.2c-0.7-0.9-1.5-1.8-2.3-2.7l-1.5,1.3c0.8,0.8,1.5,1.7,2.2,2.6L163.6,39.2z"/>
			<path fill="#2B292A" d="M157.5,35.3l1.4-1.4c-0.3-0.3-0.5-0.6-0.8-0.8c-0.5-0.5-1.1-1.1-1.7-1.6l-1.4,1.5c0.5,0.5,1.1,1,1.6,1.6
				C157,34.8,157.2,35.1,157.5,35.3z"/>
			<path fill="#2B292A" d="M136.3,17.8c-1-0.5-2.1-1-3.2-1.4l-0.8,1.9c1,0.4,2.1,0.9,3.1,1.4L136.3,17.8z"/>
			<path fill="#2B292A" d="M63.8,23.8l-1.1-1.7c-1,0.6-2,1.3-2.9,1.9l1.1,1.7C61.9,25,62.8,24.4,63.8,23.8z"/>
			<path fill="#2B292A" d="M75.9,17.8l-0.7-1.9c-1.1,0.4-2.2,0.9-3.2,1.3l0.8,1.8C73.8,18.6,74.9,18.2,75.9,17.8z"/>
			<path fill="#2B292A" d="M167.7,44.8c-0.6-1-1.3-1.9-2-2.9l-1.6,1.2c0.7,0.9,1.3,1.8,2,2.8L167.7,44.8z"/>
			<path fill="#2B292A" d="M53,32l-1.4-1.5c-0.9,0.8-1.7,1.6-2.5,2.4l1.4,1.4C51.3,33.5,52.1,32.7,53,32z"/>
			<path fill="#2B292A" d="M69.7,20.5l-0.9-1.8c-1,0.5-2.1,1.1-3.1,1.6l1,1.8C67.7,21.5,68.7,21,69.7,20.5z"/>
			<path fill="#2B292A" d="M48.1,36.8l-1.5-1.4c-0.8,0.9-1.6,1.7-2.3,2.6l1.5,1.3C46.6,38.5,47.4,37.6,48.1,36.8z"/>
			<path fill="#2B292A" d="M89,14l-0.4-2c-1.1,0.2-2.3,0.5-3.4,0.7l0.5,2C86.8,14.5,87.9,14.2,89,14z"/>
			<path fill="#2B292A" d="M44.6,151.4c0.7,0.9,1.5,1.8,2.3,2.6l1.5-1.4c-0.8-0.8-1.5-1.7-2.3-2.5L44.6,151.4z"/>
			<path fill="#2B292A" d="M35.2,133l-1.8,0.8c0.5,1.1,1,2.1,1.5,3.1l1.8-0.9C36.2,135,35.7,134,35.2,133z"/>
			<path fill="#2B292A" d="M36.6,140c0.6,1,1.2,2,1.8,3l1.7-1.1c-0.6-1-1.2-1.9-1.8-2.9L36.6,140z"/>
			<path fill="#2B292A" d="M32.7,126.7l-1.9,0.7c0.4,1.1,0.8,2.2,1.2,3.3l1.9-0.7C33.4,128.8,33,127.7,32.7,126.7z"/>
			<path fill="#2B292A" d="M40.3,145.9c0.7,0.9,1.4,1.9,2.1,2.8l1.6-1.2c-0.7-0.9-1.4-1.8-2-2.7L40.3,145.9z"/>
			<path fill="#2B292A" d="M20.2,126c4,13.8,11.4,26.5,21.8,36.9c16.2,16.2,37.8,25.2,60.8,25.2h1.3c23,0,44.5-8.9,60.8-25.2
				c10.4-10.4,17.9-23.1,21.8-36.9h20.2l-6.5-31.1l6.5-31.7h-20.1c-4-13.8-11.4-26.5-21.8-36.9c-16.2-16.2-37.8-25.2-60.8-25.2h-1.3
				c-23,0-44.5,8.9-60.8,25.2C31.6,36.7,24.2,49.4,20.2,63.2H0l7.5,30.6L0,126H20.2z M11.1,93.8l-5-20.1h11.8h1.7h1.8h6.3h2h155.8
				h1.8h1.7h12.2l-4.4,21.3l4.1,19.7h-11.8h-1.7h-1.7H29.6h-2h-6.3h-1.7h-1.7H6.2L11.1,93.8z M102.8,4.6h1.3
				c22,0,42.7,8.6,58.3,24.2c9.8,9.8,16.8,21.6,20.7,34.5h-6.5c-0.3-1-0.7-2-1-2.9l-1.9,0.7c0.3,0.7,0.5,1.5,0.8,2.2H23.8
				c3.9-12.9,10.9-24.7,20.7-34.5C60.1,13.1,80.8,4.6,102.8,4.6z M22.9,66.6h6.4h2.1h152.7h1.8h1.8h15l-1,5h-12.9h-1.8h-1.8H21.8H20
				h-1.8H5.6l-1.2-5h14.9h1.8H22.9z M104.2,184.6h-1.3c-22,0-42.7-8.6-58.3-24.2c-9.8-9.8-16.8-21.6-20.7-34.5h159.3
				c-3.9,12.9-10.9,24.7-20.7,34.5C146.9,176,126.2,184.6,104.2,184.6z M184.1,122.5h-6.4h-2.1H31.4h-2.1h-6.4h-1.8h-1.8h-15
				l1.4-5.9h12.4h1.8h1.8h6.3h2H177h2h6.3h1.8h1.8h12.5l1.2,5.9h-15h-1.8H184.1z"/>
			<path fill="#2B292A" d="M91.1,55.1c8.9-1,10.6-3.4,12.4-5.3c1.8,1.9,3.5,4.3,12.4,5.3c21,2.3,15.6-22.7,15.6-22.7
				c-0.2,4.3-8.2,8-15.6,0.9c-4.7-4.5-9.5-3.3-12.4-1.8c-2.9-1.5-7.7-2.7-12.4,1.8c-7.4,7.1-15.5,3.4-15.6-0.9
				C75.4,32.4,70.1,57.4,91.1,55.1z"/>
		</g>
		<g>
			<path fill="#2B292A" d="M187.5,298.6v-17.2l-83.1-48l-0.9-0.5l-84,48.5v17.2c-5.3,0.4-10.7,0.9-16,1.4l-1.7,0.2l5.7,60.1l1.7-0.2
				c3.4-0.3,6.9-0.6,10.3-0.9v19.2l83.1,48l0.9,0.5l84-48.5v-19.2c3.4,0.3,6.9,0.6,10.3,0.9l1.7,0.2l5.7-60.1l-1.7-0.2
				C198.1,299.4,192.8,299,187.5,298.6z M31.6,288.4l71.9-41.5l71.9,41.5v9.3c-47.8-3.2-96-3.2-143.8,0V288.4z M104,244.9l-0.5-0.3
				l-73.9,42.7v10.6c-2.2,0.2-4.4,0.3-6.6,0.5v-14.9l80.5-46.5l80.5,46.5v14.9c-2.2-0.2-4.4-0.3-6.6-0.5v-10.6L104,244.9z
				 M184,376.4l-80.5,46.5L23,376.4v-17.5c2.2-0.2,4.4-0.3,6.6-0.5v14.2l73.4,42.4l0.5,0.3l73.9-42.7v-14.2c2.2,0.2,4.4,0.3,6.6,0.5
				V376.4z M176.4,358.4h-1v13l-71.9,41.5l-71.9-41.5v-13h-1h-0.8c0.3,0,0.6,0,0.8-0.1c0.3,0,0.7-0.1,1-0.1c47.8-3.4,96-3.4,143.8,0
				C175.7,358.3,176,358.3,176.4,358.4c0.3,0,0.6,0,0.8,0H176.4z M197.9,340.1l-1.6,16.4c-3-0.3-5.9-0.5-8.9-0.8
				c-0.6,0-1.1-0.1-1.7-0.1c-0.6,0-1.1-0.1-1.7-0.1c-2.2-0.2-4.4-0.3-6.6-0.5c-0.3,0-0.7-0.1-1-0.1c-0.3,0-0.7-0.1-1-0.1
				c-23.9-1.7-47.9-2.6-71.9-2.6c-24,0-48,0.9-71.9,2.6c-0.3,0-0.7,0.1-1,0.1c-0.3,0-0.7,0.1-1,0.1c-2.2,0.2-4.4,0.3-6.6,0.5
				c-0.6,0-1.1,0.1-1.7,0.1c-0.6,0-1.1,0.1-1.7,0.1c-3,0.2-5.9,0.5-8.9,0.8l-1.6-16.4l-3.5-36.9c1.2-0.1,2.3-0.2,3.5-0.3
				c3.5-0.3,7-0.6,10.4-0.9c0.6,0,1.1-0.1,1.7-0.1c0.6,0,1.1-0.1,1.7-0.1c1.6-0.1,3.1-0.2,4.7-0.4c0.6,0,1.3-0.1,1.9-0.1v0.1h1h1
				v-0.3c47.8-3.2,96-3.2,143.8,0v0.3h1h1v-0.1c0.6,0,1.3,0.1,1.9,0.1c1.6,0.1,3.2,0.2,4.7,0.4c0.6,0,1.1,0.1,1.7,0.1
				c0.6,0,1.1,0.1,1.7,0.1c3.5,0.3,7,0.6,10.4,0.9c1.2,0.1,2.3,0.2,3.5,0.3L197.9,340.1z"/>
			<polygon fill="#2B292A" points="122.8,281.9 105.4,256.9 103.5,254.1 101.5,256.9 84.2,281.9 87.8,291.3 119.2,291.3 			"/>
			<polygon fill="#2B292A" points="70.5,280.5 68.6,276.7 66.7,280.5 62.6,281.1 65.6,284.1 64.9,288.3 68.6,286.3 72.4,288.3 
				71.6,284.1 74.7,281.1 			"/>
			<polygon fill="#2B292A" points="134.6,288.3 138.4,286.3 142.1,288.3 141.4,284.1 144.4,281.1 140.2,280.5 138.4,276.7 
				136.5,280.5 132.3,281.1 135.3,284.1 			"/>
			<polygon fill="#2B292A" points="24.1,323.3 23,324.4 21.2,326.2 19.5,327.9 18.1,329.3 19.5,330.8 21.2,332.5 23,334.2 
				24.1,335.3 29.6,329.8 30.1,329.3 29.6,328.8 			"/>
			<polygon fill="#2B292A" points="185.7,327 184,325.3 182,323.3 177.4,327.9 176.4,329 176,329.3 176.4,329.7 177.4,330.7 
				182,335.3 184,333.3 185.7,331.6 187.5,329.9 188,329.3 187.5,328.7 			"/>
			<g>
				<g>
					<path fill="#2B292A" d="M41.2,348.1c-1.3-14-2.6-27.9-4-41.9c3.4-0.3,6.8-0.6,10.2-0.9c2.4-0.2,4.4-0.2,6.1,0.1
						c1.7,0.2,3.2,0.8,4.5,1.5c1.3,0.8,2.3,1.9,3,3.3c0.7,1.4,1.1,3.2,1.2,5.3c0.2,2.6-0.1,4.8-0.8,6.5c-0.7,1.7-2,3-3.8,3.9
						c2.5,6.8,4.9,13.5,7.2,20.3c-2.6,0.2-5.1,0.3-7.7,0.5c-2.1-6.3-4.3-12.5-6.5-18.8c-1.2,0.1-2.3,0.2-3.5,0.3
						c0.5,6.4,1.1,12.8,1.6,19.1C46.3,347.6,43.7,347.9,41.2,348.1z M46.8,323.4c0.6-0.1,1.3-0.1,1.9-0.2c2.3-0.2,4-0.8,4.9-1.8
						c0.9-1,1.3-2.7,1.1-5c-0.2-2.2-0.7-3.8-1.6-4.7c-0.9-0.9-2.6-1.3-4.9-1.1c-0.8,0.1-1.6,0.1-2.4,0.2
						C46.1,315,46.5,319.2,46.8,323.4z"/>
					<path fill="#2B292A" d="M70,346c-0.7-14-1.4-28-2.1-42c6.2-0.3,12.5-0.6,18.7-0.7c0,1.8,0.1,3.6,0.1,5.4
						c-3.5,0.1-7,0.2-10.5,0.3c0.2,4,0.3,8,0.5,12.1c2.7-0.1,5.4-0.2,8.2-0.3c0,1.8,0.1,3.6,0.1,5.4c-2.7,0.1-5.4,0.2-8.1,0.3
						c0.2,4.6,0.4,9.2,0.5,13.9c3.4-0.1,6.8-0.2,10.2-0.3c0,1.8,0.1,3.5,0.1,5.3C81.8,345.5,75.9,345.7,70,346z"/>
					<path fill="#2B292A" d="M96.2,345.2c-0.1-12.1-0.3-24.3-0.4-36.4c-2.5,0-5,0.1-7.4,0.1c0-1.9-0.1-3.8-0.1-5.7
						c7.6-0.2,15.3-0.2,22.9-0.1c0,1.9,0,3.8-0.1,5.7c-2.4,0-4.8,0-7.2,0c0,12.1,0,24.3,0,36.4C101.4,345.2,98.8,345.2,96.2,345.2z"
						/>
					<path fill="#2B292A" d="M114.1,345.2c0.2-14,0.4-28,0.6-42c3.4,0.1,6.8,0.1,10.3,0.2c2.4,0.1,4.4,0.3,6.1,0.8
						c1.7,0.4,3.1,1.1,4.3,2c1.2,0.9,2.1,2.1,2.6,3.6c0.5,1.5,0.8,3.3,0.7,5.4c-0.1,2.6-0.7,4.8-1.5,6.4c-0.9,1.6-2.3,2.8-4.2,3.5
						c1.7,7,3.4,14,5,21c-2.6-0.1-5.1-0.2-7.7-0.3c-1.4-6.5-2.9-12.9-4.4-19.4c-1.2,0-2.3-0.1-3.5-0.1c-0.2,6.4-0.3,12.8-0.5,19.2
						C119.2,345.3,116.7,345.3,114.1,345.2z M122.4,321.3c0.6,0,1.3,0,1.9,0.1c2.4,0.1,4-0.4,5.1-1.3c1-0.9,1.6-2.6,1.7-4.9
						c0.1-2.2-0.3-3.9-1.1-4.9c-0.8-1-2.4-1.5-4.8-1.6c-0.8,0-1.6,0-2.4-0.1C122.7,312.9,122.5,317.1,122.4,321.3z"/>
					<path fill="#2B292A" d="M154.4,347.6c-4.3-0.3-7.3-1.7-9.1-4.2c-1.7-2.5-2.5-6-2.2-10.5c0.3-5.2,0.6-10.3,0.9-15.5
						c0.1-2.2,0.5-4.1,1-5.8c0.5-1.6,1.3-3,2.4-4.1c1.1-1.1,2.5-2,4.2-2.4c1.7-0.5,3.7-0.6,6.1-0.5c4.6,0.4,7.8,1.8,9.6,4.3
						c1.8,2.5,2.5,6,2,10.4c-0.5,5.2-1,10.3-1.5,15.5c-0.2,2.2-0.6,4.1-1.2,5.7c-0.6,1.6-1.4,3-2.5,4.1c-1.1,1.1-2.4,1.9-4,2.4
						C158.5,347.6,156.6,347.8,154.4,347.6z M152.9,341.4c0.5,0.3,1.2,0.4,1.9,0.5c0.7,0.1,1.4,0,1.9-0.2c0.5-0.2,1-0.4,1.3-0.8
						c0.3-0.3,0.6-0.8,0.9-1.3c0.2-0.6,0.4-1.1,0.5-1.7c0.1-0.6,0.2-1.2,0.3-2c0.5-6.3,1-12.7,1.6-19c0.1-1,0.1-1.9,0-2.5
						c0-0.7-0.2-1.3-0.5-2c-0.3-0.6-0.7-1.1-1.3-1.5c-0.6-0.3-1.4-0.6-2.3-0.6c-1-0.1-1.8,0-2.4,0.3c-0.7,0.2-1.2,0.7-1.5,1.2
						c-0.3,0.6-0.6,1.2-0.7,1.9c-0.2,0.7-0.3,1.5-0.3,2.5c-0.4,6.4-0.9,12.7-1.3,19.1c-0.1,0.8-0.1,1.5-0.1,2.1
						c0,0.6,0.1,1.2,0.2,1.7c0.1,0.6,0.4,1.1,0.6,1.4C152,340.9,152.4,341.2,152.9,341.4z"/>
				</g>
			</g>
			<g>
				<path fill="#2B292A" d="M62.6,368.6H64v3.5c-1,0.7-2.4,1.2-3.7,1.2c-2.8,0-5-2.1-5-4.8c0-2.7,2.2-4.8,5.1-4.8
					c1.4,0,2.7,0.5,3.7,1.3l-0.9,1.2c-0.7-0.7-1.8-1.1-2.8-1.1c-1.9,0-3.5,1.5-3.5,3.4c0,1.9,1.5,3.4,3.5,3.4c0.7,0,1.5-0.2,2.2-0.7
					V368.6z"/>
				<path fill="#2B292A" d="M70.3,371.9c1.6,0,2.5-1,2.5-2.6v-5.6h1.6v5.6c0,2.5-1.6,4-4.1,4s-4.2-1.5-4.2-4v-5.6h1.6v5.6
					C67.7,370.9,68.7,371.9,70.3,371.9z"/>
				<path fill="#2B292A" d="M82.6,371.1h-4.8l-0.9,2.2h-1.7l4.2-9.5H81l4.2,9.5h-1.7L82.6,371.1z M82,369.7l-1.8-4.2l-1.8,4.2H82z"
					/>
				<path fill="#2B292A" d="M92.5,373.2l-1.7-2.9c-0.1,0-0.3,0-0.4,0h-2.3v2.9h-1.6v-9.5h3.9c2.4,0,3.8,1.2,3.8,3.3
					c0,1.5-0.7,2.6-2,3.1l2.1,3.2H92.5z M90.3,368.9c1.5,0,2.3-0.6,2.3-1.9c0-1.3-0.8-1.9-2.3-1.9h-2.3v3.8H90.3z"/>
				<path fill="#2B292A" d="M102.4,371.1h-4.8l-0.9,2.2h-1.7l4.2-9.5h1.6l4.2,9.5h-1.7L102.4,371.1z M101.8,369.7l-1.8-4.2l-1.8,4.2
					H101.8z"/>
				<path fill="#2B292A" d="M107.9,363.7l5.1,6.8v-6.8h1.6v9.5H113l-5.1-6.8v6.8h-1.6v-9.5H107.9z"/>
				<path fill="#2B292A" d="M123.6,363.7v1.4h-3v8.1H119v-8.1h-3v-1.4H123.6z"/>
				<path fill="#2B292A" d="M131.8,363.7v1.4h-5.2v2.6h4.7v1.4h-4.7v2.6h5.4v1.4h-7v-9.5H131.8z"/>
				<path fill="#2B292A" d="M140.7,363.7v1.4h-5.2v2.6h4.7v1.4h-4.7v2.6h5.4v1.4h-7v-9.5H140.7z"/>
				<path fill="#2B292A" d="M151.7,368.5c0,2.7-2.1,4.8-5,4.8h-3.9v-9.5h3.9C149.6,363.7,151.7,365.7,151.7,368.5z M150.1,368.5
					c0-1.9-1.5-3.3-3.3-3.3h-2.3v6.6h2.3C148.6,371.8,150.1,370.4,150.1,368.5z"/>
			</g>
			<g>
				<path fill="#2B292A" d="M99.3,381.1v1.1h-3.8v1.9h3.4v1h-3.4v1.9h3.9v1.1h-5.1v-7H99.3z"/>
				<path fill="#2B292A" d="M103.1,382.2c-0.7,0-1.1,0.3-1.1,0.7c0,1.5,3.8,0.7,3.8,3.2c0,1.2-1.1,2-2.6,2c-1.1,0-2.1-0.4-2.9-1.1
					l0.5-1c0.7,0.7,1.6,1,2.4,1c0.8,0,1.3-0.3,1.3-0.8c0-1.6-3.8-0.7-3.8-3.2c0-1.2,1-1.9,2.5-1.9c0.9,0,1.8,0.3,2.4,0.7l-0.5,1
					C104.4,382.4,103.6,382.2,103.1,382.2z"/>
				<path fill="#2B292A" d="M111.9,381.1v1.1h-2.2v5.9h-1.2v-5.9h-2.2v-1.1H111.9z"/>
				<path fill="#2B292A" d="M113.1,387.5c0,0.4-0.3,0.7-0.6,0.7s-0.6-0.3-0.6-0.7c0-0.4,0.3-0.6,0.6-0.6S113.1,387.1,113.1,387.5z"
					/>
				<path fill="#2B292A" d="M94.9,393.1v7h-1.2v-5.9h-1.5v-1.1H94.9z"/>
				<path fill="#2B292A" d="M99.9,399.1c1.3,0,2-1,1.9-2.5c-0.4,0.7-1,1-1.9,1c-1.4,0-2.2-0.9-2.2-2.2c0-1.4,1-2.3,2.4-2.3
					c1.8,0,2.8,1.3,2.8,3.4c0,2.2-1.2,3.7-3,3.7c-0.7,0-1.5-0.2-2.1-0.5l0.5-0.9C98.8,399,99.4,399.1,99.9,399.1z M98.8,395.4
					c0,0.8,0.5,1.3,1.4,1.3c0.9,0,1.5-0.6,1.5-1.3c0-0.6-0.4-1.3-1.4-1.3C99.4,394,98.8,394.5,98.8,395.4z"/>
				<path fill="#2B292A" d="M106.1,399.1c1.3,0,2-1,1.9-2.5c-0.4,0.7-1,1-1.9,1c-1.4,0-2.2-0.9-2.2-2.2c0-1.4,1-2.3,2.4-2.3
					c1.8,0,2.8,1.3,2.8,3.4c0,2.2-1.2,3.7-3,3.7c-0.7,0-1.5-0.2-2.1-0.5l0.5-0.9C105,399,105.6,399.1,106.1,399.1z M105,395.4
					c0,0.8,0.5,1.3,1.4,1.3c0.9,0,1.5-0.6,1.5-1.3c0-0.6-0.4-1.3-1.4-1.3C105.6,394,105,394.5,105,395.4z"/>
				<path fill="#2B292A" d="M115.4,393.1v0.9l-2.9,6.1h-1.2l2.9-5.9h-3l0,1h-1v-2H115.4z"/>
			</g>
			<g>
				<path fill="#FFFFFF" d="M98.6,286.7v-18.2h4.2c1,0,1.8,0.1,2.5,0.2c0.7,0.2,1.3,0.4,1.8,0.8c0.5,0.4,0.9,0.9,1.1,1.5
					c0.3,0.6,0.4,1.4,0.4,2.3c0,1.1-0.2,2.1-0.5,2.8c-0.3,0.7-0.9,1.3-1.7,1.6l2.5,9h-3.3l-2.2-8.3h-1.5v8.3H98.6z M101.9,276.3h0.8
					c1,0,1.7-0.2,2.1-0.6c0.4-0.4,0.6-1.1,0.6-2.1c0-1-0.2-1.7-0.5-2.1c-0.4-0.4-1-0.6-2-0.6h-1V276.3z"/>
			</g>
		</g>
	</g>
</g>
<g id="DESIGNED_BY_FREEPIK">
	<g>
	</g>
	<g>
	</g>
	<g>
	</g>
	<g>
	</g>
	<g>
	</g>
	<g>
	</g>
</g>
</svg>
