<?xml version="1.0" encoding="utf-8"?>
<!-- Generator: Adobe Illustrator 18.0.0, SVG Export Plug-In . SVG Version: 6.00 Build 0)  -->
<!DOCTYPE svg PUBLIC "-//W3C//DTD SVG 1.1//EN" "http://www.w3.org/Graphics/SVG/1.1/DTD/svg11.dtd">
<svg version="1.1" xmlns="http://www.w3.org/2000/svg" xmlns:xlink="http://www.w3.org/1999/xlink" x="0px" y="0px"
	 viewBox="0 0 205.3 195.9" enable-background="new 0 0 205.3 195.9" xml:space="preserve">
<g id="BACKGROUND" display="none">
	<rect x="-531.5" y="-528.8" display="inline" fill="#FFFFFF" width="800" height="800"/>
</g>
<g id="OBJECTS">
	<g>
		<g>
			<path fill="#2B292A" d="M186.6,66.8V49.6l-83.1-48l-0.9-0.5l-84,48.5v17.2c-5.3,0.4-10.7,0.9-16,1.4L1,68.4l5.7,60.1l1.7-0.2
				c3.4-0.3,6.9-0.6,10.3-0.9v19.2l83.1,48l0.9,0.5l84-48.5v-19.2c3.4,0.3,6.9,0.6,10.3,0.9l1.7,0.2l5.7-60.1l-1.7-0.2
				C197.3,67.7,192,67.2,186.6,66.8z M30.8,56.6l71.9-41.5l71.9,41.5v9.3c-47.8-3.2-96-3.2-143.8,0V56.6z M103.2,13.1l-0.5-0.3
				L28.8,55.5v10.6c-2.2,0.2-4.4,0.3-6.6,0.5V51.6l80.5-46.5l80.5,46.5v14.9c-2.2-0.2-4.4-0.3-6.6-0.5V55.5L103.2,13.1z
				 M183.2,144.6l-80.5,46.5l-80.5-46.5v-17.5c2.2-0.2,4.4-0.3,6.6-0.5v14.2l73.4,42.4l0.5,0.3l73.9-42.7v-14.2
				c2.2,0.2,4.4,0.3,6.6,0.5V144.6z M175.5,126.6h-1v13l-71.9,41.5l-71.9-41.5v-13h-1h-0.8c0.3,0,0.6,0,0.8-0.1c0.3,0,0.7-0.1,1-0.1
				c47.8-3.4,96-3.4,143.8,0C174.9,126.5,175.2,126.5,175.5,126.6c0.3,0,0.6,0,0.8,0H175.5z M197.1,108.3l-1.6,16.4
				c-3-0.3-5.9-0.5-8.9-0.8c-0.6,0-1.1-0.1-1.7-0.1c-0.6,0-1.1-0.1-1.7-0.1c-2.2-0.2-4.4-0.3-6.6-0.5c-0.3,0-0.7-0.1-1-0.1
				c-0.3,0-0.7-0.1-1-0.1c-23.9-1.7-47.9-2.6-71.9-2.6c-24,0-48,0.9-71.9,2.6c-0.3,0-0.7,0.1-1,0.1c-0.3,0-0.7,0.1-1,0.1
				c-2.2,0.2-4.4,0.3-6.6,0.5c-0.6,0-1.1,0.1-1.7,0.1c-0.6,0-1.1,0.1-1.7,0.1c-3,0.2-5.9,0.5-8.9,0.8l-1.6-16.4L4.7,71.5
				c1.2-0.1,2.3-0.2,3.5-0.3c3.5-0.3,7-0.6,10.4-0.9c0.6,0,1.1-0.1,1.7-0.1c0.6,0,1.1-0.1,1.7-0.1c1.6-0.1,3.1-0.2,4.7-0.4
				c0.6,0,1.3-0.1,1.9-0.1v0.1h1h1v-0.3c47.8-3.2,96-3.2,143.8,0v0.3h1h1v-0.1c0.6,0,1.3,0.1,1.9,0.1c1.6,0.1,3.2,0.2,4.7,0.4
				c0.6,0,1.1,0.1,1.7,0.1c0.6,0,1.1,0.1,1.7,0.1c3.5,0.3,7,0.6,10.4,0.9c1.2,0.1,2.3,0.2,3.5,0.3L197.1,108.3z"/>
			<polygon fill="#2B292A" points="121.9,50.2 104.6,25.1 102.7,22.3 100.7,25.1 83.4,50.2 87,59.6 118.3,59.6 			"/>
			<polygon fill="#2B292A" points="69.6,48.8 67.8,45 65.9,48.8 61.7,49.4 64.7,52.3 64,56.5 67.8,54.5 71.5,56.5 70.8,52.3 
				73.8,49.4 			"/>
			<polygon fill="#2B292A" points="133.8,56.5 137.5,54.5 141.3,56.5 140.6,52.3 143.6,49.4 139.4,48.8 137.5,45 135.7,48.8 
				131.5,49.4 134.5,52.3 			"/>
			<polygon fill="#2B292A" points="23.3,91.6 22.1,92.7 20.4,94.4 18.7,96.1 17.2,97.6 18.7,99 20.4,100.7 22.1,102.4 23.3,103.6 
				28.8,98.1 29.3,97.6 28.8,97.1 			"/>
			<polygon fill="#2B292A" points="184.9,95.3 183.2,93.5 181.2,91.6 176.5,96.2 175.5,97.2 175.2,97.6 175.5,97.9 176.5,98.9 
				181.2,103.6 183.2,101.6 184.9,99.9 186.6,98.1 187.2,97.6 186.6,97 			"/>
			<g>
				<g>
					<path fill="#2B292A" d="M40.3,116.4c-1.3-14-2.6-27.9-4-41.9c3.4-0.3,6.8-0.6,10.2-0.9c2.4-0.2,4.4-0.2,6.1,0.1
						c1.7,0.2,3.2,0.8,4.5,1.5c1.3,0.8,2.3,1.9,3,3.3c0.7,1.4,1.1,3.2,1.2,5.3c0.2,2.6-0.1,4.8-0.8,6.5c-0.7,1.7-2,3-3.8,3.9
						c2.5,6.8,4.9,13.5,7.2,20.3c-2.6,0.2-5.1,0.3-7.7,0.5c-2.1-6.3-4.3-12.5-6.5-18.8c-1.2,0.1-2.3,0.2-3.5,0.3
						c0.5,6.4,1.1,12.8,1.6,19.1C45.4,115.9,42.9,116.1,40.3,116.4z M46,91.7c0.6-0.1,1.3-0.1,1.9-0.2c2.3-0.2,4-0.8,4.9-1.8
						c0.9-1,1.3-2.7,1.1-5c-0.2-2.2-0.7-3.8-1.6-4.7c-0.9-0.9-2.6-1.3-4.9-1.1c-0.8,0.1-1.6,0.1-2.4,0.2
						C45.3,83.2,45.6,87.5,46,91.7z"/>
					<path fill="#2B292A" d="M69.1,114.3c-0.7-14-1.4-28-2.1-42c6.2-0.3,12.5-0.6,18.7-0.7c0,1.8,0.1,3.6,0.1,5.4
						c-3.5,0.1-7,0.2-10.5,0.3c0.2,4,0.3,8,0.5,12.1c2.7-0.1,5.4-0.2,8.2-0.3c0,1.8,0.1,3.6,0.1,5.4c-2.7,0.1-5.4,0.2-8.1,0.3
						c0.2,4.6,0.4,9.2,0.5,13.9c3.4-0.1,6.8-0.2,10.2-0.3c0,1.8,0.1,3.5,0.1,5.3C81,113.7,75,114,69.1,114.3z"/>
					<path fill="#2B292A" d="M95.4,113.5c-0.1-12.1-0.3-24.3-0.4-36.4c-2.5,0-5,0.1-7.4,0.1c0-1.9-0.1-3.8-0.1-5.7
						c7.6-0.2,15.3-0.2,22.9-0.1c0,1.9,0,3.8-0.1,5.7c-2.4,0-4.8,0-7.2,0c0,12.1,0,24.3,0,36.4C100.5,113.4,98,113.4,95.4,113.5z"/>
					<path fill="#2B292A" d="M113.3,113.5c0.2-14,0.4-28,0.6-42c3.4,0.1,6.8,0.1,10.3,0.2c2.4,0.1,4.4,0.3,6.1,0.8
						c1.7,0.4,3.1,1.1,4.3,2c1.2,0.9,2.1,2.1,2.6,3.6c0.5,1.5,0.8,3.3,0.7,5.4c-0.1,2.6-0.7,4.8-1.5,6.4c-0.9,1.6-2.3,2.8-4.2,3.5
						c1.7,7,3.4,14,5,21c-2.6-0.1-5.1-0.2-7.7-0.3c-1.4-6.5-2.9-12.9-4.4-19.4c-1.2,0-2.3-0.1-3.5-0.1c-0.2,6.4-0.3,12.8-0.5,19.2
						C118.4,113.6,115.8,113.5,113.3,113.5z M121.6,89.6c0.6,0,1.3,0,1.9,0.1c2.4,0.1,4-0.4,5.1-1.3c1-0.9,1.6-2.6,1.7-4.9
						c0.1-2.2-0.3-3.9-1.1-4.9c-0.8-1-2.4-1.5-4.8-1.6c-0.8,0-1.6,0-2.4-0.1C121.8,81.1,121.7,85.3,121.6,89.6z"/>
					<path fill="#2B292A" d="M153.5,115.8c-4.3-0.3-7.3-1.7-9.1-4.2c-1.7-2.5-2.5-6-2.2-10.5c0.3-5.2,0.6-10.3,0.9-15.5
						c0.1-2.2,0.5-4.1,1-5.8c0.5-1.6,1.3-3,2.4-4.1c1.1-1.1,2.5-2,4.2-2.4c1.7-0.5,3.7-0.6,6.1-0.5c4.6,0.4,7.8,1.8,9.6,4.3
						c1.8,2.5,2.5,6,2,10.4c-0.5,5.2-1,10.3-1.5,15.5c-0.2,2.2-0.6,4.1-1.2,5.7c-0.6,1.6-1.4,3-2.5,4.1c-1.1,1.1-2.4,1.9-4,2.4
						C157.6,115.8,155.7,116,153.5,115.8z M152,109.7c0.5,0.3,1.2,0.4,1.9,0.5c0.7,0.1,1.4,0,1.9-0.2c0.5-0.2,1-0.4,1.3-0.8
						c0.3-0.3,0.6-0.8,0.9-1.3c0.2-0.6,0.4-1.1,0.5-1.7c0.1-0.6,0.2-1.2,0.3-2c0.5-6.3,1-12.7,1.6-19c0.1-1,0.1-1.9,0-2.5
						c0-0.7-0.2-1.3-0.5-2c-0.3-0.6-0.7-1.1-1.3-1.5c-0.6-0.3-1.4-0.6-2.3-0.6c-1-0.1-1.8,0-2.4,0.3c-0.7,0.2-1.2,0.7-1.5,1.2
						c-0.3,0.6-0.6,1.2-0.7,1.9c-0.2,0.7-0.3,1.5-0.3,2.5c-0.4,6.4-0.9,12.7-1.3,19.1c-0.1,0.8-0.1,1.5-0.1,2.1
						c0,0.6,0.1,1.2,0.2,1.7c0.1,0.6,0.4,1.1,0.6,1.4C151.1,109.1,151.5,109.4,152,109.7z"/>
				</g>
			</g>
			<g>
				<path fill="#2B292A" d="M61.8,136.8h1.4v3.5c-1,0.7-2.4,1.2-3.7,1.2c-2.8,0-5-2.1-5-4.8c0-2.7,2.2-4.8,5.1-4.8
					c1.4,0,2.7,0.5,3.7,1.3l-0.9,1.2c-0.7-0.7-1.8-1.1-2.8-1.1c-1.9,0-3.5,1.5-3.5,3.4c0,1.9,1.5,3.4,3.5,3.4c0.7,0,1.5-0.2,2.2-0.7
					V136.8z"/>
				<path fill="#2B292A" d="M69.4,140.1c1.6,0,2.5-1,2.5-2.6V132h1.6v5.6c0,2.5-1.6,4-4.1,4s-4.2-1.5-4.2-4V132h1.6v5.6
					C66.9,139.1,67.9,140.1,69.4,140.1z"/>
				<path fill="#2B292A" d="M81.7,139.3h-4.8l-0.9,2.2h-1.7l4.2-9.5h1.6l4.2,9.5h-1.7L81.7,139.3z M81.1,137.9l-1.8-4.2l-1.8,4.2
					H81.1z"/>
				<path fill="#2B292A" d="M91.7,141.5l-1.7-2.9c-0.1,0-0.3,0-0.4,0h-2.3v2.9h-1.6V132h3.9c2.4,0,3.8,1.2,3.8,3.3
					c0,1.5-0.7,2.6-2,3.1l2.1,3.2H91.7z M89.5,137.2c1.5,0,2.3-0.6,2.3-1.9c0-1.3-0.8-1.9-2.3-1.9h-2.3v3.8H89.5z"/>
				<path fill="#2B292A" d="M101.6,139.3h-4.8l-0.9,2.2h-1.7l4.2-9.5h1.6l4.2,9.5h-1.7L101.6,139.3z M101,137.9l-1.8-4.2l-1.8,4.2
					H101z"/>
				<path fill="#2B292A" d="M107.1,132l5.1,6.8V132h1.6v9.5h-1.6l-5.1-6.8v6.8h-1.6V132H107.1z"/>
				<path fill="#2B292A" d="M122.8,132v1.4h-3v8.1h-1.6v-8.1h-3V132H122.8z"/>
				<path fill="#2B292A" d="M131,132v1.4h-5.2v2.6h4.7v1.4h-4.7v2.6h5.4v1.4h-7V132H131z"/>
				<path fill="#2B292A" d="M139.9,132v1.4h-5.2v2.6h4.7v1.4h-4.7v2.6h5.4v1.4h-7V132H139.9z"/>
				<path fill="#2B292A" d="M150.8,136.7c0,2.7-2.1,4.8-5,4.8H142V132h3.9C148.8,132,150.8,134,150.8,136.7z M149.2,136.7
					c0-1.9-1.5-3.3-3.3-3.3h-2.3v6.6h2.3C147.8,140,149.2,138.7,149.2,136.7z"/>
			</g>
			<g>
				<path fill="#2B292A" d="M98.5,149.4v1.1h-3.8v1.9h3.4v1h-3.4v1.9h3.9v1.1h-5.1v-7H98.5z"/>
				<path fill="#2B292A" d="M102.2,150.4c-0.7,0-1.1,0.3-1.1,0.7c0,1.5,3.8,0.7,3.8,3.2c0,1.2-1.1,2-2.6,2c-1.1,0-2.1-0.4-2.9-1.1
					l0.5-1c0.7,0.7,1.6,1,2.4,1c0.8,0,1.3-0.3,1.3-0.8c0-1.6-3.8-0.7-3.8-3.2c0-1.2,1-1.9,2.5-1.9c0.9,0,1.8,0.3,2.4,0.7l-0.5,1
					C103.5,150.6,102.8,150.4,102.2,150.4z"/>
				<path fill="#2B292A" d="M111,149.4v1.1h-2.2v5.9h-1.2v-5.9h-2.2v-1.1H111z"/>
				<path fill="#2B292A" d="M112.3,155.8c0,0.4-0.3,0.7-0.6,0.7s-0.6-0.3-0.6-0.7c0-0.4,0.3-0.6,0.6-0.6S112.3,155.4,112.3,155.8z"
					/>
				<path fill="#2B292A" d="M94.1,161.3v7h-1.2v-5.9h-1.5v-1.1H94.1z"/>
				<path fill="#2B292A" d="M99.1,167.4c1.3,0,2-1,1.9-2.5c-0.4,0.7-1,1-1.9,1c-1.4,0-2.2-0.9-2.2-2.2c0-1.4,1-2.3,2.4-2.3
					c1.8,0,2.8,1.3,2.8,3.4c0,2.2-1.2,3.7-3,3.7c-0.7,0-1.5-0.2-2.1-0.5l0.5-0.9C98,167.2,98.6,167.4,99.1,167.4z M98,163.6
					c0,0.8,0.5,1.3,1.4,1.3c0.9,0,1.5-0.6,1.5-1.3c0-0.6-0.4-1.3-1.4-1.3C98.6,162.3,98,162.8,98,163.6z"/>
				<path fill="#2B292A" d="M105.3,167.4c1.3,0,2-1,1.9-2.5c-0.4,0.7-1,1-1.9,1c-1.4,0-2.2-0.9-2.2-2.2c0-1.4,1-2.3,2.4-2.3
					c1.8,0,2.8,1.3,2.8,3.4c0,2.2-1.2,3.7-3,3.7c-0.7,0-1.5-0.2-2.1-0.5l0.5-0.9C104.1,167.2,104.7,167.4,105.3,167.4z M104.2,163.6
					c0,0.8,0.5,1.3,1.4,1.3c0.9,0,1.5-0.6,1.5-1.3c0-0.6-0.4-1.3-1.4-1.3C104.7,162.3,104.2,162.8,104.2,163.6z"/>
				<path fill="#2B292A" d="M114.6,161.3v0.9l-2.9,6.1h-1.2l2.9-5.9h-3l0,1h-1v-2H114.6z"/>
			</g>
			<g>
				<path fill="#FFFFFF" d="M97.8,55V36.8h4.2c1,0,1.8,0.1,2.5,0.2c0.7,0.2,1.3,0.4,1.8,0.8c0.5,0.4,0.9,0.9,1.1,1.5
					c0.3,0.6,0.4,1.4,0.4,2.3c0,1.1-0.2,2.1-0.5,2.8c-0.3,0.7-0.9,1.3-1.7,1.6l2.5,9h-3.3l-2.2-8.3h-1.5V55H97.8z M101.1,44.5h0.8
					c1,0,1.7-0.2,2.1-0.6c0.4-0.4,0.6-1.1,0.6-2.1c0-1-0.2-1.7-0.5-2.1c-0.4-0.4-1-0.6-2-0.6h-1V44.5z"/>
			</g>
		</g>
	</g>
</g>
<g id="DESIGNED_BY_FREEPIK">
	<g>
	</g>
	<g>
	</g>
	<g>
	</g>
	<g>
	</g>
	<g>
	</g>
	<g>
	</g>
</g>
</svg>
