<?xml version="1.0" encoding="utf-8"?>
<!-- Generator: Adobe Illustrator 18.0.0, SVG Export Plug-In . SVG Version: 6.00 Build 0)  -->
<!DOCTYPE svg PUBLIC "-//W3C//DTD SVG 1.1//EN" "http://www.w3.org/Graphics/SVG/1.1/DTD/svg11.dtd">
<svg version="1.1" xmlns="http://www.w3.org/2000/svg" xmlns:xlink="http://www.w3.org/1999/xlink" x="0px" y="0px"
	 viewBox="0 0 184.4 183.6" enable-background="new 0 0 184.4 183.6" xml:space="preserve">
<g id="BACKGROUND" display="none">
	<rect x="-542" y="-64.5" display="inline" fill="#FFFFFF" width="800" height="800"/>
</g>
<g id="OBJECTS">
	<g>
		<path fill="#2B292A" d="M10.4,97.5l-1.8,0.9c0.4,0.8,0.9,1.6,1.5,2.3c0.2,0.2,0.3,0.4,0.5,0.7l1.6-1.2c-0.2-0.2-0.4-0.5-0.5-0.7
			C11.2,98.8,10.8,98.2,10.4,97.5z"/>
		<path fill="#2B292A" d="M14.2,103.2l-1.7,1c0.6,1,1.1,2,1.5,3l1.8-0.8C15.3,105.2,14.8,104.2,14.2,103.2z"/>
		<path fill="#2B292A" d="M17.1,109.6l-1.9,0.6c0.4,1.1,0.7,2.1,0.9,3.2l2-0.4C17.8,111.9,17.5,110.7,17.1,109.6z"/>
		<path fill="#2B292A" d="M17.4,73l-1.9-0.6c-0.3,1.1-0.7,2.1-1.1,3.1l1.9,0.8C16.7,75.2,17.1,74.1,17.4,73z"/>
		<path fill="#2B292A" d="M10.9,85.3l-1.7-1c-0.6,1.1-1.1,2.2-1.5,3.4l1.9,0.6C9.9,87.2,10.3,86.2,10.9,85.3z"/>
		<path fill="#2B292A" d="M14.7,79.5l-1.8-1c-0.5,1-1.1,1.9-1.8,2.8l1.7,1.1C13.5,81.5,14.1,80.5,14.7,79.5z"/>
		<path fill="#2B292A" d="M7.4,94.9l2-0.4c-0.2-0.9-0.3-1.8-0.3-2.7c0-0.2,0-0.3,0-0.5l-2-0.1c0,0.2,0,0.3,0,0.5
			C7.1,92.8,7.2,93.9,7.4,94.9z"/>
		<g>
			<g>
				<path fill="#2B292A" d="M34.7,101c-1.1,0-2.1-0.1-3-0.4c-0.9-0.3-1.6-0.7-2.1-1.2s-1-1.1-1.4-1.9s-0.6-1.5-0.7-2.4
					c-0.1-0.8-0.2-1.8-0.2-2.9v-9c0-1.1,0.1-2.1,0.2-3c0.1-0.9,0.4-1.7,0.7-2.4c0.3-0.7,0.8-1.4,1.4-1.8c0.6-0.5,1.3-0.9,2.1-1.1
					c0.8-0.3,1.8-0.4,3-0.4c1.3,0,2.4,0.2,3.3,0.5c0.9,0.3,1.6,0.8,2.2,1.5c0.5,0.7,0.9,1.4,1.2,2.3c0.2,0.9,0.4,1.9,0.4,3.1v2.2
					h-4.6v-2.2c0-1.3-0.1-2.2-0.2-2.6c-0.3-0.9-0.9-1.3-2-1.4c-0.1,0-0.2,0-0.3,0c-0.4,0-0.7,0-1,0.1c-0.3,0.1-0.5,0.2-0.7,0.4
					c-0.2,0.2-0.3,0.4-0.5,0.6c-0.1,0.2-0.2,0.5-0.3,0.9c-0.1,0.4-0.1,0.7-0.1,1c0,0.3,0,0.7,0,1.2v11c0,1.5,0.2,2.6,0.6,3.3
					c0.4,0.6,1.1,1,2,1c0.3,0,0.6,0,0.9-0.1c0.3-0.1,0.5-0.2,0.6-0.3c0.2-0.1,0.3-0.3,0.4-0.5c0.1-0.2,0.2-0.4,0.3-0.6
					s0.1-0.5,0.1-0.8c0-0.3,0-0.6,0.1-0.9c0-0.2,0-0.6,0-1v-2.3h4.6V93c0,1-0.1,1.8-0.2,2.6s-0.4,1.5-0.7,2.2
					c-0.3,0.7-0.8,1.2-1.3,1.7s-1.2,0.8-2,1.1C36.7,100.8,35.8,101,34.7,101z"/>
				<path fill="#2B292A" d="M45,100.6V74.7h5.9c1.4,0,2.5,0.1,3.5,0.3c1,0.2,1.8,0.6,2.6,1.1s1.3,1.2,1.6,2.1c0.4,0.9,0.5,2,0.5,3.3
					c0,1.6-0.2,3-0.7,4c-0.5,1-1.3,1.8-2.4,2.3l3.6,12.8h-4.7l-3.1-11.8h-2.1v11.8H45z M49.7,85.8h1.1c1.4,0,2.4-0.3,3-0.9
					s0.9-1.6,0.9-3c0-1.4-0.3-2.4-0.8-3c-0.5-0.6-1.4-0.9-2.8-0.9h-1.4V85.8z"/>
				<path fill="#2B292A" d="M62.7,100.6V74.7h10.9v3.3h-6.1v7.4h4.8v3.3h-4.8v8.6h6.2v3.3H62.7z"/>
				<path fill="#2B292A" d="M75,100.6l5.3-25.9h4.9l5.3,25.9h-4.4l-1-6h-4.5l-1.1,6H75z M81.1,91.5h3.5l-1.7-10.6L81.1,91.5z"/>
				<path fill="#2B292A" d="M94.7,100.6V78.2h-4.3v-3.5h13.3v3.5h-4.2v22.4H94.7z"/>
				<path fill="#2B292A" d="M105.8,100.6V74.7h4.7v25.9H105.8z"/>
				<path fill="#2B292A" d="M118.5,100.6l-5.3-25.9h4.2l3.4,18l3.2-18h4.3l-5.3,25.9H118.5z"/>
				<path fill="#2B292A" d="M131,100.6V74.7h10.9v3.3h-6.1v7.4h4.8v3.3h-4.8v8.6h6.2v3.3H131z"/>
				<path fill="#2B292A" d="M151.2,101c-4.6,0-7-2.6-7.2-7.9l4.1-0.9c0.1,3.4,1.1,5.1,2.9,5.1c0.7,0,1.3-0.2,1.6-0.7
					c0.3-0.4,0.5-1,0.5-1.8c0-0.7-0.1-1.4-0.4-2c-0.3-0.6-0.6-1.1-0.9-1.5c-0.3-0.4-0.8-0.9-1.5-1.4l-3.4-3c-1-0.9-1.7-1.8-2.2-2.7
					c-0.5-0.9-0.7-2.1-0.7-3.5c0-2,0.6-3.6,1.8-4.7c1.2-1.1,2.8-1.7,4.9-1.7c0.9,0,1.8,0.1,2.5,0.4c0.7,0.2,1.3,0.6,1.8,1
					c0.5,0.4,0.9,0.9,1.2,1.5s0.6,1.3,0.7,1.9s0.3,1.4,0.3,2.2l-4,0.8c0-0.5-0.1-1-0.1-1.4c0-0.4-0.1-0.8-0.2-1.2
					c-0.1-0.4-0.3-0.7-0.4-1s-0.4-0.4-0.7-0.6s-0.7-0.2-1.1-0.2c-0.7,0-1.2,0.3-1.6,0.7c-0.4,0.4-0.6,1-0.6,1.7
					c0,0.8,0.2,1.5,0.5,2.1c0.3,0.5,0.8,1.1,1.5,1.7l3.4,2.9c0.6,0.5,1.1,1,1.5,1.5s0.8,1,1.2,1.6c0.4,0.6,0.7,1.3,0.9,2
					s0.3,1.5,0.3,2.3c0,1.9-0.6,3.4-1.8,4.6C154.7,100.4,153.1,101,151.2,101z"/>
			</g>
			<g>
				<path fill="#2B292A" d="M54.7,131.2v-22.2h5.2c1.3,0,2.5,0.1,3.4,0.4c0.9,0.3,1.6,0.7,2.2,1.3c0.5,0.6,0.9,1.3,1.2,2.1
					c0.2,0.8,0.3,1.9,0.3,3.1v8c0,1.3-0.1,2.3-0.3,3.2s-0.6,1.6-1.1,2.3c-0.5,0.6-1.2,1.1-2.1,1.4c-0.9,0.3-2,0.4-3.3,0.4H54.7z
					 M58.7,128.3h1.2c0.4,0,0.8,0,1.1-0.1c0.3-0.1,0.6-0.2,0.8-0.3c0.2-0.1,0.4-0.3,0.5-0.5s0.2-0.4,0.3-0.6
					c0.1-0.2,0.1-0.5,0.2-0.9c0-0.4,0.1-0.7,0.1-1c0-0.3,0-0.7,0-1.2v-8.1c0-0.5,0-1,0-1.3c0-0.3-0.1-0.6-0.1-1
					c-0.1-0.3-0.2-0.6-0.3-0.8c-0.1-0.2-0.3-0.3-0.5-0.5c-0.2-0.1-0.5-0.3-0.8-0.3c-0.3-0.1-0.7-0.1-1.2-0.1h-1.1V128.3z"/>
				<path fill="#2B292A" d="M69.9,131.2v-22.2h9.3v2.9h-5.3v6.4h4.2v2.9h-4.2v7.3h5.3v2.8H69.9z"/>
				<path fill="#2B292A" d="M87.2,131.4c-3.9,0-6-2.3-6.2-6.8l3.5-0.7c0.1,2.9,0.9,4.4,2.5,4.4c0.6,0,1.1-0.2,1.4-0.6
					c0.3-0.4,0.4-0.9,0.4-1.5c0-0.6-0.1-1.2-0.3-1.7c-0.2-0.5-0.5-0.9-0.8-1.3s-0.7-0.7-1.3-1.2l-2.9-2.5c-0.9-0.8-1.5-1.5-1.9-2.3
					c-0.4-0.8-0.6-1.8-0.6-3c0-1.7,0.5-3.1,1.5-4c1-1,2.4-1.4,4.2-1.5c0.8,0,1.5,0.1,2.2,0.3c0.6,0.2,1.1,0.5,1.5,0.8
					c0.4,0.4,0.7,0.8,1,1.3c0.3,0.5,0.5,1.1,0.6,1.6c0.1,0.6,0.2,1.2,0.3,1.9l-3.5,0.7c0-0.4,0-0.8-0.1-1.2s-0.1-0.7-0.2-1
					c-0.1-0.3-0.2-0.6-0.4-0.8c-0.2-0.2-0.4-0.4-0.6-0.5c-0.3-0.1-0.6-0.2-0.9-0.1c-0.6,0-1.1,0.2-1.4,0.6s-0.5,0.8-0.5,1.5
					c0,0.7,0.1,1.3,0.4,1.8c0.3,0.5,0.7,1,1.3,1.5l2.9,2.5c0.5,0.4,0.9,0.9,1.3,1.3c0.4,0.4,0.7,0.9,1,1.4c0.3,0.5,0.6,1.1,0.7,1.7
					s0.3,1.3,0.3,2c0,1.6-0.5,2.9-1.5,3.9C90.2,130.9,88.9,131.4,87.2,131.4z"/>
				<path fill="#2B292A" d="M95.3,131.2v-22.2h4v22.2H95.3z"/>
				<path fill="#2B292A" d="M108.3,131.5c-2.1,0-3.6-0.7-4.5-2s-1.4-3.2-1.4-5.7v-7.2c0-1.3,0.1-2.4,0.3-3.3c0.2-0.9,0.5-1.7,1-2.4
					c0.5-0.7,1.1-1.2,2-1.6c0.8-0.3,1.9-0.5,3.1-0.5c2.2,0,3.8,0.5,4.7,1.6c1,1.1,1.4,2.7,1.4,4.9v1.1H111v-1.2c0-0.5,0-0.9,0-1.2
					c0-0.3-0.1-0.6-0.2-0.9c-0.1-0.3-0.2-0.6-0.4-0.7s-0.4-0.3-0.7-0.4c-0.3-0.1-0.6-0.2-1-0.2c-0.3,0-0.6,0-0.8,0.1
					c-0.2,0.1-0.4,0.2-0.6,0.3c-0.2,0.1-0.3,0.3-0.4,0.5c-0.1,0.2-0.2,0.4-0.3,0.6c-0.1,0.2-0.1,0.4-0.1,0.7c0,0.3-0.1,0.6-0.1,0.8
					c0,0.2,0,0.5,0,0.9v9c0,1.3,0.2,2.3,0.5,2.9c0.3,0.6,1,0.9,1.9,0.9c0.5,0,0.9-0.1,1.2-0.3c0.3-0.2,0.6-0.5,0.8-0.8
					s0.3-0.8,0.4-1.3s0.1-1.1,0.1-1.7v-1.8h-2.4v-2.6h6.1v11.3h-2.6l-0.3-2.3C111.4,130.6,110.1,131.5,108.3,131.5z"/>
				<path fill="#2B292A" d="M118,131.2v-22.2h2.8l5.4,12.6v-12.6h3.4v22.2H127l-5.5-13.2v13.2H118z"/>
			</g>
			<g>
				<g>
					<g>
						<path fill="#2B292A" d="M53.5,42.2v1.2h-4.3v2.2h3.9v1.2h-3.9v2.2h4.5v1.2h-5.8v-7.9H53.5z"/>
						<path fill="#2B292A" d="M57.8,43.4c-0.8,0-1.3,0.3-1.3,0.8c0,1.7,4.3,0.8,4.3,3.7c0,1.4-1.2,2.3-3,2.3c-1.2,0-2.4-0.5-3.2-1.3
							l0.6-1.2c0.8,0.7,1.8,1.2,2.7,1.2c0.9,0,1.5-0.4,1.5-1c0-1.8-4.3-0.8-4.3-3.6c0-1.4,1.2-2.2,2.9-2.2c1,0,2,0.3,2.8,0.8
							l-0.6,1.2C59.3,43.6,58.4,43.4,57.8,43.4z"/>
						<path fill="#2B292A" d="M67.8,42.2v1.2h-2.5v6.7h-1.3v-6.7h-2.5v-1.2H67.8z"/>
						<path fill="#2B292A" d="M69.2,49.5c0,0.4-0.3,0.8-0.7,0.8c-0.4,0-0.7-0.3-0.7-0.8c0-0.4,0.3-0.7,0.7-0.7
							C68.9,48.7,69.2,49.1,69.2,49.5z"/>
					</g>
				</g>
				<g>
					<g>
						<path fill="#2B292A" d="M113.8,42.2v7.9h-1.3v-6.7h-1.7v-1.2H113.8z"/>
						<path fill="#2B292A" d="M119.5,49.1c1.5,0,2.2-1.2,2.2-2.9c-0.4,0.7-1.2,1.1-2.2,1.1c-1.6,0-2.5-1-2.5-2.5
							c0-1.6,1.1-2.7,2.8-2.7c2,0,3.2,1.4,3.2,3.9c0,2.5-1.3,4.2-3.4,4.2c-0.8,0-1.7-0.2-2.4-0.6l0.5-1
							C118.2,48.9,118.9,49.1,119.5,49.1z M118.2,44.8c0,0.9,0.6,1.5,1.5,1.5c1.1,0,1.7-0.7,1.7-1.5c0-0.7-0.5-1.5-1.6-1.5
							C118.9,43.3,118.2,43.9,118.2,44.8z"/>
						<path fill="#2B292A" d="M126.4,49.1c1.5,0,2.2-1.2,2.2-2.9c-0.4,0.7-1.2,1.1-2.2,1.1c-1.6,0-2.5-1-2.5-2.5
							c0-1.6,1.1-2.7,2.8-2.7c2,0,3.2,1.4,3.2,3.9c0,2.5-1.3,4.2-3.4,4.2c-0.8,0-1.7-0.2-2.4-0.6l0.5-1
							C125.2,48.9,125.8,49.1,126.4,49.1z M125.2,44.8c0,0.9,0.6,1.5,1.5,1.5c1.1,0,1.7-0.7,1.7-1.5c0-0.7-0.5-1.5-1.6-1.5
							C125.8,43.3,125.2,43.9,125.2,44.8z"/>
						<path fill="#2B292A" d="M137.1,42.2v1l-3.3,6.9h-1.4l3.3-6.7h-3.4l0,1.1H131v-2.3H137.1z"/>
					</g>
				</g>
			</g>
			<g>
				<path fill="#2B292A" d="M57.5,146h1.2v3c-0.8,0.6-2,1-3.1,1c-2.4,0-4.2-1.8-4.2-4.1s1.9-4.1,4.3-4.1c1.2,0,2.3,0.4,3.1,1.1
					l-0.8,1c-0.6-0.6-1.5-0.9-2.3-0.9c-1.6,0-2.9,1.3-2.9,2.9c0,1.6,1.3,2.9,3,2.9c0.6,0,1.3-0.2,1.9-0.6V146z"/>
				<path fill="#2B292A" d="M64,148.8c1.3,0,2.1-0.8,2.1-2.2v-4.7h1.4v4.7c0,2.1-1.3,3.4-3.5,3.4c-2.2,0-3.5-1.3-3.5-3.4v-4.7h1.4
					v4.7C61.8,148,62.7,148.8,64,148.8z"/>
				<path fill="#2B292A" d="M74.4,148.1h-4.1l-0.8,1.8h-1.4l3.6-8.1h1.4l3.5,8.1h-1.5L74.4,148.1z M73.9,146.9l-1.5-3.6l-1.5,3.6
					H73.9z"/>
				<path fill="#2B292A" d="M82.8,150l-1.5-2.4c-0.1,0-0.2,0-0.4,0h-1.9v2.4h-1.4v-8.1H81c2.1,0,3.3,1,3.3,2.8
					c0,1.3-0.6,2.2-1.7,2.6l1.8,2.7H82.8z M81,146.3c1.2,0,2-0.5,2-1.6c0-1.1-0.7-1.6-2-1.6h-1.9v3.2H81z"/>
				<path fill="#2B292A" d="M91.3,148.1h-4.1l-0.8,1.8H85l3.6-8.1H90l3.5,8.1H92L91.3,148.1z M90.7,146.9l-1.5-3.6l-1.5,3.6H90.7z"
					/>
				<path fill="#2B292A" d="M95.9,141.9l4.3,5.8v-5.8h1.3v8.1h-1.3l-4.3-5.8v5.8h-1.4v-8.1H95.9z"/>
				<path fill="#2B292A" d="M109.2,141.9v1.2h-2.6v6.9h-1.4v-6.9h-2.5v-1.2H109.2z"/>
				<path fill="#2B292A" d="M116.1,141.9v1.2h-4.4v2.2h3.9v1.2h-3.9v2.2h4.5v1.2h-5.9v-8.1H116.1z"/>
				<path fill="#2B292A" d="M123.7,141.9v1.2h-4.4v2.2h3.9v1.2h-3.9v2.2h4.5v1.2h-5.9v-8.1H123.7z"/>
				<path fill="#2B292A" d="M133,145.9c0,2.3-1.8,4-4.2,4h-3.3v-8.1h3.3C131.2,141.9,133,143.6,133,145.9z M131.6,145.9
					c0-1.6-1.2-2.8-2.8-2.8h-1.9v5.6h2C130.4,148.7,131.6,147.6,131.6,145.9z"/>
			</g>
			<path fill="#2B292A" d="M10.3,124.1c-0.6,4.7,0.3,9.3,2.6,13.4c2.4,4.1,5.9,7.2,10.3,9c6.4,2.6,11.6,7.8,14.3,14.3
				c1.8,4.4,4.9,7.9,9,10.3c4.1,2.4,8.7,3.3,13.4,2.6c6.9-1,14,0.9,19.5,5.2c3.7,2.9,8.2,4.4,12.9,4.4c4.7,0,9.2-1.5,12.9-4.4
				c5.5-4.3,12.6-6.2,19.5-5.2c4.7,0.6,9.3-0.3,13.4-2.6c4.1-2.4,7.2-5.9,9-10.3c2.6-6.4,7.8-11.6,14.3-14.3c4.4-1.8,7.9-4.9,10.3-9
				c2.4-4.1,3.3-8.7,2.6-13.4c-1-6.9,0.9-14,5.2-19.5c2.9-3.7,4.4-8.2,4.4-12.9s-1.5-9.2-4.4-12.9c-4.3-5.5-6.2-12.6-5.2-19.5
				c0.6-4.7-0.3-9.3-2.6-13.4c-2.4-4.1-5.9-7.2-10.3-9c-6.4-2.6-11.6-7.8-14.3-14.3c-1.8-4.4-4.9-7.9-9-10.3
				c-4.1-2.4-8.7-3.3-13.4-2.6c-6.9,1-14-0.9-19.5-5.2c-3.7-2.9-8.2-4.4-12.9-4.4c-4.7,0-9.2,1.5-12.9,4.4
				c-5.5,4.3-12.6,6.2-19.5,5.2c-4.7-0.6-9.3,0.3-13.4,2.6c-4.1,2.4-7.2,5.9-9,10.3c-2.6,6.4-7.8,11.6-14.3,14.3
				c-4.4,1.8-7.9,4.9-10.3,9c-2.4,4.1-3.3,8.7-2.6,13.4c1,6.9-0.9,14-5.2,19.5C2.1,82.6,0.6,87,0.6,91.8s1.5,9.2,4.4,12.9
				C9.3,110.2,11.2,117.3,10.3,124.1z M13.7,58.9c-0.5-3.9,0.2-7.8,2.2-11.2c2-3.4,4.9-6,8.6-7.5c7.3-3,13.2-8.9,16.2-16.2
				c1.5-3.6,4.1-6.6,7.5-8.6c3.4-2,7.3-2.7,11.2-2.2c7.8,1.1,15.8-1.1,22.1-5.9c3.1-2.4,6.8-3.7,10.8-3.7s7.7,1.3,10.8,3.7
				c6.2,4.8,14.3,7,22.1,5.9c3.9-0.5,7.8,0.2,11.2,2.2c3.4,2,6,4.9,7.5,8.6c3,7.3,8.9,13.2,16.2,16.2c3.6,1.5,6.6,4.1,8.6,7.5
				s2.7,7.3,2.2,11.2c-1.1,7.8,1.1,15.8,5.9,22.1c2.4,3.1,3.7,6.8,3.7,10.8c0,3.9-1.3,7.7-3.7,10.8c-4.8,6.2-7,14.3-5.9,22.1
				c0.5,3.9-0.2,7.8-2.2,11.2c-2,3.4-4.9,6-8.6,7.5c-7.3,3-13.2,8.9-16.2,16.2c-1.5,3.6-4.1,6.6-7.5,8.6c-3.4,2-7.3,2.7-11.2,2.2
				c-7.8-1.1-15.8,1.1-22.1,5.9c-3.1,2.4-6.8,3.7-10.8,3.7s-7.7-1.3-10.8-3.7c-5.2-4-11.6-6.2-18.1-6.2c-1.3,0-2.7,0.1-4,0.3
				c-3.9,0.5-7.8-0.2-11.2-2.2c-3.4-2-6-4.9-7.5-8.6c-3-7.3-8.9-13.2-16.2-16.2c-3.6-1.5-6.6-4.1-8.6-7.5c-2-3.4-2.7-7.3-2.2-11.2
				c1.1-7.8-1.1-15.8-5.9-22.1c-2.4-3.1-3.7-6.8-3.7-10.8c0-3.9,1.3-7.7,3.7-10.8C12.6,74.8,14.8,66.7,13.7,58.9z"/>
			<path fill="#2B292A" d="M118.9,165l0.1,2c1.1-0.1,2.2-0.1,3.3,0l0.1-2C121.3,164.9,120.1,165,118.9,165z"/>
			<path fill="#2B292A" d="M125.7,18.2c1-0.1,2-0.2,3-0.1l0.2-2c-1.1-0.1-2.3-0.1-3.5,0.1l-0.2,0l0.3,2L125.7,18.2z"/>
			<path fill="#2B292A" d="M18.9,120c0-1.2-0.1-2.4-0.2-3.5l-2,0.2c0.1,1.1,0.2,2.2,0.2,3.3L18.9,120z"/>
			<path fill="#2B292A" d="M147.7,35.5c-0.8-0.8-1.5-1.6-2.2-2.5l-1.6,1.2c0.7,0.9,1.5,1.8,2.3,2.7L147.7,35.5z"/>
			<path fill="#2B292A" d="M126,165.3l-0.2,2c0.6,0.1,1.1,0.1,1.7,0.1c0.7,0,1.3,0,2-0.1l-0.3-2C128.1,165.4,127,165.4,126,165.3z"
				/>
			<path fill="#2B292A" d="M141.9,31.4l1.7-1.1c-0.6-0.9-1.1-1.9-1.6-2.9l-1.8,0.9C140.6,29.4,141.2,30.4,141.9,31.4z"/>
			<path fill="#2B292A" d="M140.5,24.3c-0.5-1.1-1.2-2.2-2-3.1l-1.5,1.3c0.7,0.8,1.3,1.7,1.7,2.7L140.5,24.3z"/>
			<path fill="#2B292A" d="M18.6,125.3c0.1-0.6,0.1-1.1,0.2-1.7l-2-0.2c0,0.5-0.1,1.1-0.2,1.6c-0.1,0.6-0.1,1.3-0.1,1.9l2,0
				C18.5,126.4,18.6,125.8,18.6,125.3z"/>
			<path fill="#2B292A" d="M133.7,163.7c-0.5,0.3-1,0.5-1.5,0.7l0.8,1.9c0.6-0.2,1.2-0.5,1.7-0.8c0.5-0.3,1-0.6,1.5-1l-1.2-1.6
				C134.6,163.2,134.1,163.5,133.7,163.7z"/>
			<path fill="#2B292A" d="M134.6,20.4l1.1-1.7c-0.3-0.2-0.7-0.4-1-0.7c-0.7-0.4-1.5-0.8-2.2-1.1l-0.7,1.9c0.7,0.2,1.3,0.6,1.9,0.9
				C134,20,134.3,20.2,134.6,20.4z"/>
			<path fill="#2B292A" d="M43,153l-1.7,1c0.6,1,1.1,1.9,1.6,3l1.8-0.8C44.1,155.1,43.6,154,43,153z"/>
			<path fill="#2B292A" d="M37.3,148.7c0.8,0.8,1.5,1.7,2.1,2.6L41,150c-0.7-0.9-1.5-1.9-2.3-2.7L37.3,148.7z"/>
			<path fill="#2B292A" d="M16.9,130.6c0.3,1.2,0.8,2.3,1.4,3.4l1.8-1c-0.5-0.9-0.9-1.9-1.2-3L16.9,130.6z"/>
			<path fill="#2B292A" d="M76.4,169.7c1,0.4,2,0.9,3,1.5l1-1.7c-1-0.6-2.1-1.1-3.2-1.6L76.4,169.7z"/>
			<path fill="#2B292A" d="M83.3,171.4l-1.2,1.6c0.4,0.3,0.7,0.5,1.1,0.8c0.6,0.5,1.2,0.9,1.9,1.2l1-1.8c-0.6-0.3-1.1-0.7-1.6-1.1
				C84.1,171.9,83.7,171.6,83.3,171.4z"/>
			<path fill="#2B292A" d="M44.3,160.2c0.6,1.1,1.4,2.1,2.2,2.9l1.4-1.4c-0.7-0.8-1.4-1.6-1.9-2.5L44.3,160.2z"/>
			<path fill="#2B292A" d="M16.7,59.2c0.1,1.1,0.2,2.2,0.2,3.3l2,0c0-1.2-0.1-2.4-0.2-3.5L16.7,59.2z"/>
			<path fill="#2B292A" d="M32.3,144.2c0.9,0.6,1.8,1.3,2.6,2.1l1.3-1.5c-0.9-0.8-1.8-1.5-2.8-2.2L32.3,144.2z"/>
			<path fill="#2B292A" d="M20.4,137c0.8,0.9,1.8,1.7,2.8,2.4l1.1-1.7c-0.9-0.6-1.7-1.2-2.4-2L20.4,137z"/>
			<path fill="#2B292A" d="M26.5,140.9c1,0.4,2,1,3,1.5l1-1.7c-1-0.6-2.1-1.1-3.2-1.6L26.5,140.9z"/>
			<path fill="#2B292A" d="M172.9,99l1.6,1.2c0.7-1,1.3-2.1,1.7-3.3l-1.9-0.7C174.1,97.2,173.6,98.1,172.9,99z"/>
			<path fill="#2B292A" d="M166.6,111.5l1.9,0.5c0.3-1.1,0.6-2.1,1-3.2l-1.9-0.7C167.3,109.2,166.9,110.4,166.6,111.5z"/>
			<path fill="#2B292A" d="M88.5,176.4c1.2,0.3,2.4,0.5,3.7,0.5v-2c-1.1,0-2.1-0.1-3.2-0.4L88.5,176.4z"/>
			<path fill="#2B292A" d="M144.2,148.8l1.6,1.3c0.7-0.9,1.5-1.7,2.2-2.5l-1.4-1.4C145.8,147,145,147.9,144.2,148.8z"/>
			<path fill="#2B292A" d="M170.6,81.2l1.7-1.1c-0.6-0.9-1.1-1.9-1.6-2.9l-1.8,0.9C169.4,79.2,170,80.2,170.6,81.2z"/>
			<path fill="#2B292A" d="M167.7,67.7c-0.2-1.1-0.3-2.2-0.3-3.3l-2,0.1c0.1,1.2,0.2,2.4,0.3,3.5L167.7,67.7z"/>
			<path fill="#2B292A" d="M169.1,104.9l1.8,0.9c0.5-1,1.1-2,1.7-2.9l-1.7-1.1C170.3,102.8,169.7,103.9,169.1,104.9z"/>
			<path fill="#2B292A" d="M161.1,136.9l1.3,1.6c1-0.8,1.8-1.7,2.6-2.7l-1.6-1.2C162.6,135.4,161.9,136.2,161.1,136.9z"/>
			<path fill="#2B292A" d="M164.9,131.8l1.9,0.8c0.5-1.1,0.8-2.3,1-3.6l-2-0.3C165.5,129.8,165.3,130.8,164.9,131.8z"/>
			<path fill="#2B292A" d="M167.4,122l-2,0.1c0,1.1,0.1,2.2,0.3,3.3c0,0.1,0,0.2,0,0.3l2-0.2c0-0.1,0-0.2,0-0.3
				C167.5,124,167.4,123,167.4,122z"/>
			<path fill="#2B292A" d="M165.4,118.5l2,0.1c0.1-1.1,0.2-2.2,0.4-3.3l-2-0.3C165.6,116.1,165.5,117.3,165.4,118.5z"/>
			<path fill="#2B292A" d="M176.1,86.1c-0.5-1.1-1.1-2.2-1.9-3.2l-1.6,1.2c0.7,0.9,1.2,1.8,1.6,2.7L176.1,86.1z"/>
			<path fill="#2B292A" d="M158.7,43c-1-0.4-2-0.9-3-1.4l-0.9,1.8c1,0.6,2.1,1.1,3.2,1.5L158.7,43z"/>
			<path fill="#2B292A" d="M158,138.7c-0.9,0.4-1.9,0.8-2.8,1.3l0.9,1.8c0.9-0.4,1.7-0.8,2.6-1.2c0.2-0.1,0.3-0.1,0.5-0.2l-0.8-1.8
				C158.2,138.6,158.1,138.6,158,138.7z"/>
			<path fill="#2B292A" d="M152.8,39.8c-0.9-0.6-1.8-1.3-2.7-2l-1.3,1.5c0.9,0.8,1.9,1.5,2.8,2.1L152.8,39.8z"/>
			<path fill="#2B292A" d="M140.4,154.8l1.8,0.9c0.5-1,1.1-2,1.7-2.9l-1.7-1.1C141.5,152.7,140.9,153.7,140.4,154.8z"/>
			<path fill="#2B292A" d="M149.2,143.8l1.3,1.6c0.9-0.7,1.8-1.4,2.7-2l-1.1-1.7C151.1,142.4,150.2,143.1,149.2,143.8z"/>
			<path fill="#2B292A" d="M165.7,58.2c-0.1,0.9-0.2,1.8-0.3,2.7l2,0.1c0-0.9,0.1-1.7,0.3-2.6c0-0.3,0.1-0.6,0.1-0.8l-2-0.2
				C165.7,57.7,165.7,58,165.7,58.2z"/>
			<path fill="#2B292A" d="M137.3,160.7l1.6,1.2c0.8-1,1.4-2,1.9-3.2l-1.8-0.8C138.5,158.9,137.9,159.8,137.3,160.7z"/>
			<path fill="#2B292A" d="M167.6,54c-0.2-1.2-0.6-2.4-1.1-3.5l-1.8,0.8c0.4,1,0.8,2,0.9,3L167.6,54z"/>
			<path fill="#2B292A" d="M167.5,74.9l1.9-0.7c-0.4-1-0.7-2.1-1-3.2l-1.9,0.5C166.7,72.6,167.1,73.8,167.5,74.9z"/>
			<path fill="#2B292A" d="M163,48.6l1.6-1.3c-0.8-1-1.7-1.8-2.7-2.6l-1.2,1.6C161.5,47,162.3,47.8,163,48.6z"/>
			<path fill="#2B292A" d="M175.2,91.8c0,0.5,0,0.9-0.1,1.4l2,0.2c0.1-0.5,0.1-1,0.1-1.6c0-0.7-0.1-1.4-0.2-2.1l-2,0.3
				C175.2,90.5,175.2,91.1,175.2,91.8z"/>
			<path fill="#2B292A" d="M43.5,29.7l-1.8-1c-0.5,1-1.1,1.9-1.8,2.8l1.6,1.2C42.3,31.7,42.9,30.7,43.5,29.7z"/>
			<path fill="#2B292A" d="M45.2,26c0.3-0.8,0.8-1.6,1.3-2.4l-1.7-1.1c-0.6,0.9-1.1,1.8-1.5,2.7c-0.1,0.2-0.1,0.3-0.2,0.5l1.8,0.8
				C45.1,26.3,45.2,26.1,45.2,26z"/>
			<path fill="#2B292A" d="M39.4,35.5l-1.5-1.3c-0.7,0.8-1.5,1.7-2.3,2.4L37,38C37.8,37.2,38.7,36.3,39.4,35.5z"/>
			<path fill="#2B292A" d="M50.6,19.8c0.2-0.1,0.4-0.2,0.7-0.4l-0.9-1.8c-0.3,0.1-0.5,0.3-0.8,0.4c-0.8,0.5-1.6,1-2.3,1.6l1.3,1.5
				C49.2,20.7,49.9,20.2,50.6,19.8z"/>
			<path fill="#2B292A" d="M57.4,18.1l0.1-2c-1.2-0.1-2.5,0-3.7,0.3l0.4,2C55.3,18.2,56.4,18.1,57.4,18.1z"/>
			<path fill="#2B292A" d="M50.5,163.6l-1,1.7l0.2,0.1c1,0.6,2.1,1.1,3.2,1.4l0.6-1.9c-1-0.3-1.9-0.7-2.8-1.2L50.5,163.6z"/>
			<path fill="#2B292A" d="M56.5,167.4c0.1,0,0.3,0,0.4,0c0.7,0,1.3,0,2-0.1c0.4-0.1,0.8-0.1,1.2-0.1l-0.2-2c-0.4,0-0.8,0.1-1.2,0.1
				c-0.7,0.1-1.4,0.1-2.1,0.1L56.5,167.4z"/>
			<path fill="#2B292A" d="M34.3,40.3L33,38.7c-0.9,0.7-1.8,1.3-2.8,1.9l1.1,1.7C32.4,41.7,33.3,41,34.3,40.3z"/>
			<path fill="#2B292A" d="M19.1,52.6l-1.9-0.6c-0.4,1.2-0.6,2.4-0.7,3.6l2,0.1C18.6,54.6,18.8,53.6,19.1,52.6z"/>
			<path fill="#2B292A" d="M26.3,44.9c0.6-0.3,1.3-0.5,1.9-0.8l-0.9-1.8c-0.6,0.3-1.2,0.5-1.8,0.8c-0.5,0.2-0.9,0.4-1.4,0.7l0.9,1.8
				C25.5,45.2,25.9,45,26.3,44.9z"/>
			<path fill="#2B292A" d="M64.4,18.5l-0.1-2c-1.1,0-2.2,0-3.3-0.1l-0.1,2c0.8,0.1,1.7,0.1,2.5,0.1C63.7,18.6,64,18.6,64.4,18.5z"/>
			<path fill="#2B292A" d="M18.8,66l-2-0.2c-0.1,1.1-0.3,2.2-0.5,3.3l2,0.4C18.5,68.4,18.7,67.2,18.8,66z"/>
			<path fill="#2B292A" d="M22.5,47.3l-1.4-1.5c-0.9,0.8-1.7,1.8-2.4,2.8l1.7,1.1C21.1,48.8,21.8,48,22.5,47.3z"/>
			<path fill="#2B292A" d="M105.3,168.7l0.9,1.8c1-0.5,2-1,3-1.4l-0.7-1.9C107.5,167.7,106.4,168.2,105.3,168.7z"/>
			<path fill="#2B292A" d="M108.8,14.2c-1-0.4-2-0.9-3-1.4l-0.9,1.8c1,0.6,2.1,1.1,3.2,1.5L108.8,14.2z"/>
			<path fill="#2B292A" d="M89.9,8.9l-0.4-2C88.3,7.1,87.1,7.5,86,8l0.8,1.8C87.8,9.4,88.8,9.1,89.9,8.9z"/>
			<path fill="#2B292A" d="M96.8,7.4c-1.2-0.4-2.4-0.6-3.6-0.7l-0.1,2c1.1,0.1,2.1,0.3,3.1,0.6L96.8,7.4z"/>
			<path fill="#2B292A" d="M115.2,16c-1.1-0.2-2.2-0.5-3.3-0.8l-0.6,1.9c1.1,0.3,2.3,0.6,3.5,0.8L115.2,16z"/>
			<path fill="#2B292A" d="M63.4,167c1.1,0,2.2,0.1,3.3,0.2l0.2-2c-1.2-0.1-2.4-0.2-3.5-0.2L63.4,167z"/>
			<path fill="#2B292A" d="M99.9,172.2c-0.1,0.1-0.3,0.2-0.4,0.3l1.2,1.6c0.2-0.1,0.3-0.3,0.5-0.4c0.7-0.6,1.5-1.1,2.2-1.6l-1.1-1.7
				C101.4,171,100.6,171.6,99.9,172.2z"/>
			<path fill="#2B292A" d="M112.5,168.1c1.1-0.3,2.2-0.5,3.3-0.7l-0.3-2c-1.2,0.2-2.3,0.4-3.5,0.8L112.5,168.1z"/>
			<path fill="#2B292A" d="M93.5,174.8l0.2,2c1.2-0.1,2.4-0.4,3.6-0.9l-0.7-1.9C95.6,174.4,94.6,174.7,93.5,174.8z"/>
			<path fill="#2B292A" d="M121.9,18.5l-0.1-2c-1.1,0-2.2,0-3.3-0.1l-0.2,2c0.9,0.1,1.7,0.1,2.6,0.1
				C121.3,18.6,121.6,18.6,121.9,18.5z"/>
			<path fill="#2B292A" d="M101.8,12.7l1.1-1.7c-0.6-0.4-1.2-0.9-1.8-1.3c-0.3-0.2-0.6-0.5-1-0.7L99,10.7c0.3,0.2,0.6,0.4,0.8,0.6
				C100.5,11.8,101.2,12.3,101.8,12.7z"/>
			<path fill="#2B292A" d="M78.1,15.2l-0.9-1.8c-1,0.5-2,0.9-3.1,1.3l0.7,1.9C75.9,16.2,77,15.7,78.1,15.2z"/>
			<path fill="#2B292A" d="M70,167.7c1.1,0.2,2.2,0.5,3.2,0.9l0.6-1.9c-1.1-0.4-2.3-0.7-3.4-0.9L70,167.7z"/>
			<path fill="#2B292A" d="M84.1,11.6L82.9,10c-0.9,0.7-1.8,1.3-2.8,1.9l1,1.7C82.2,12.9,83.2,12.3,84.1,11.6z"/>
			<path fill="#2B292A" d="M71.4,17.6l-0.5-2c-1.1,0.3-2.2,0.5-3.3,0.6l0.3,2C69.1,18.1,70.3,17.9,71.4,17.6z"/>
			<path fill="#2B292A" d="M91.2,32.5V20.9h-1.4c-0.6,2.6-4.5,20.1-9.4,25.6c0,0,4.4,5,4.8,10.3h13.8c0.4-5.3,4.8-10.3,4.8-10.3
				c-4.9-5.5-8.8-23-9.4-25.6h-1.4v11.6c1,0.4,1.7,1.4,1.7,2.5c0,1.5-1.2,2.7-2.7,2.7c-1.5,0-2.7-1.2-2.7-2.7
				C89.5,33.8,90.2,32.9,91.2,32.5z"/>
			<rect x="83.6" y="59.1" fill="#2B292A" width="17" height="7.5"/>
			<polygon fill="#2B292A" points="46,113.6 42.2,117.4 38.4,113.6 37.8,114.2 37.2,114.8 41,118.6 37.2,122.4 37.8,123 38.4,123.6 
				42.2,119.8 46,123.6 47.2,122.4 43.4,118.6 47.2,114.8 			"/>
			<polygon fill="#2B292A" points="138.3,113.6 137.1,114.8 140.9,118.6 137.1,122.4 138.3,123.6 142.1,119.8 145.9,123.6 
				146.5,123 147.1,122.4 143.4,118.6 147.1,114.8 146.5,114.2 145.9,113.6 142.1,117.4 			"/>
		</g>
	</g>
</g>
<g id="DESIGNED_BY_FREEPIK">
	<g>
	</g>
	<g>
	</g>
	<g>
	</g>
	<g>
	</g>
	<g>
	</g>
	<g>
	</g>
</g>
</svg>
