<?xml version="1.0" encoding="utf-8"?>
<!-- Generator: Adobe Illustrator 18.0.0, SVG Export Plug-In . SVG Version: 6.00 Build 0)  -->
<!DOCTYPE svg PUBLIC "-//W3C//DTD SVG 1.1//EN" "http://www.w3.org/Graphics/SVG/1.1/DTD/svg11.dtd">
<svg version="1.1" xmlns="http://www.w3.org/2000/svg" xmlns:xlink="http://www.w3.org/1999/xlink" x="0px" y="0px"
	 viewBox="0 0 204.8 207.5" enable-background="new 0 0 204.8 207.5" xml:space="preserve">
<g id="BACKGROUND" display="none">
	<rect x="-62.2" y="-51" display="inline" fill="#FFFFFF" width="800" height="800"/>
</g>
<g id="OBJECTS">
	<g>
		<g>
			<polygon fill="#2B292A" points="101.4,77.6 103.7,74.5 124.4,47.1 120.1,36.8 82.7,36.8 78.4,47.1 99.1,74.5 			"/>
			<g>
				<path fill="#2B292A" d="M35.1,123.3l-7.6-37.3h6l4.9,25.9l4.6-25.9h6.2l-7.6,37.3H35.1z"/>
				<path fill="#2B292A" d="M53.3,123.3V86.1H60v37.3H53.3z"/>
				<path fill="#2B292A" d="M65.7,123.3V86.1h4.7l9.1,21.1V86.1h5.6v37.3h-4.4l-9.2-22.2v22.2H65.7z"/>
				<path fill="#2B292A" d="M94.4,123.3V91.1h-6.2v-5h19.1v5h-6v32.2H94.4z"/>
				<path fill="#2B292A" d="M108,123.3l7.6-37.3h7.1l7.6,37.3h-6.3l-1.5-8.7H116l-1.5,8.7H108z M116.7,110.3h5L119.2,95L116.7,110.3
					z"/>
				<path fill="#2B292A" d="M143.1,123.8c-3.5,0-6.1-1.1-7.6-3.3c-1.6-2.2-2.3-5.4-2.3-9.6V98.8c0-2.1,0.2-4,0.5-5.5
					c0.3-1.6,0.9-2.9,1.7-4.1s1.9-2,3.3-2.6c1.4-0.6,3.1-0.9,5.1-0.9c3.7,0,6.3,0.9,7.9,2.7c1.6,1.8,2.4,4.5,2.4,8.2v1.8h-6.5v-1.9
					c0-0.8,0-1.5-0.1-2c0-0.5-0.1-1.1-0.3-1.6c-0.1-0.5-0.3-0.9-0.6-1.2s-0.6-0.5-1.1-0.7s-1-0.3-1.7-0.3c-0.5,0-1,0.1-1.4,0.2
					c-0.4,0.1-0.7,0.3-1,0.5c-0.3,0.2-0.5,0.5-0.7,0.8c-0.2,0.3-0.3,0.7-0.4,1c-0.1,0.3-0.2,0.7-0.2,1.2c-0.1,0.5-0.1,1-0.1,1.3
					c0,0.4,0,0.9,0,1.5v15c0,2.2,0.3,3.9,0.8,4.9c0.6,1,1.6,1.6,3.2,1.6c0.8,0,1.5-0.2,2-0.5c0.5-0.3,1-0.8,1.3-1.4
					c0.3-0.6,0.5-1.3,0.7-2.1s0.2-1.8,0.2-2.9v-3.1h-4v-4.4h10.1v18.9h-4.4l-0.5-3.8C148.3,122.4,146.2,123.8,143.1,123.8z"/>
				<path fill="#2B292A" d="M159.5,123.3V86.1H175v4.8h-8.8v10.7h7v4.8h-7v12.3h8.9v4.7H159.5z"/>
			</g>
			<g>
				<path fill="#2B292A" d="M53.9,132.7v1.7h-6v3h5.4v1.7h-5.4v3H54v1.7H46v-11H53.9z"/>
				<path fill="#2B292A" d="M59.8,134.4c-1.1,0-1.8,0.4-1.8,1.2c0,2.4,6,1.1,5.9,5.1c0,2-1.7,3.2-4.2,3.2c-1.7,0-3.4-0.7-4.5-1.8
					l0.8-1.6c1.1,1,2.6,1.6,3.7,1.6c1.3,0,2.1-0.5,2.1-1.3c0-2.5-6-1.1-6-5c0-1.9,1.6-3.1,4-3.1c1.4,0,2.8,0.5,3.9,1.1l-0.8,1.6
					C61.8,134.7,60.6,134.4,59.8,134.4z"/>
				<path fill="#2B292A" d="M73.7,132.7v1.7h-3.5v9.4h-1.9v-9.4h-3.5v-1.7H73.7z"/>
				<path fill="#2B292A" d="M81.3,141.3h-5.6l-1.1,2.5h-1.9l4.9-11h1.9l4.8,11h-2L81.3,141.3z M80.6,139.6l-2.1-4.9l-2.1,4.9H80.6z"
					/>
				<path fill="#2B292A" d="M94.3,135.5c0,1.2-0.7,2.2-1.9,2.5c1.5,0.3,2.4,1.3,2.4,2.8c0,1.9-1.5,3-4,3h-4.9v-11h4.8
					C92.9,132.7,94.3,133.8,94.3,135.5z M92.4,135.8c0-0.9-0.7-1.4-1.9-1.4h-2.8v2.9h2.8C91.7,137.3,92.4,136.8,92.4,135.8z
					 M92.8,140.5c0-1-0.9-1.6-2.3-1.6h-2.8v3.2h2.8C92,142.1,92.8,141.5,92.8,140.5z"/>
				<path fill="#2B292A" d="M98.8,132.7v9.4h4.8v1.7h-6.6v-11H98.8z"/>
				<path fill="#2B292A" d="M107.2,132.7v11h-1.9v-11H107.2z"/>
				<path fill="#2B292A" d="M113.6,134.4c-1.1,0-1.8,0.4-1.8,1.2c0,2.4,6,1.1,5.9,5.1c0,2-1.7,3.2-4.2,3.2c-1.7,0-3.4-0.7-4.5-1.8
					l0.8-1.6c1.1,1,2.6,1.6,3.7,1.6c1.3,0,2.1-0.5,2.1-1.3c0-2.5-6-1.1-6-5c0-1.9,1.6-3.1,4-3.1c1.4,0,2.8,0.5,3.9,1.1l-0.8,1.6
					C115.7,134.7,114.5,134.4,113.6,134.4z"/>
				<path fill="#2B292A" d="M121.8,132.7v4.8h5.9v-4.8h1.9v11h-1.9v-4.6h-5.9v4.6h-1.9v-11H121.8z"/>
				<path fill="#2B292A" d="M140.3,132.7v1.7h-6v3h5.4v1.7h-5.4v3h6.2v1.7h-8.1v-11H140.3z"/>
				<path fill="#2B292A" d="M153,138.2c0,3.2-2.4,5.5-5.8,5.5h-4.5v-11h4.5C150.6,132.7,153,135,153,138.2z M151.1,138.3
					c0-2.3-1.7-3.9-3.9-3.9h-2.6v7.7h2.7C149.5,142.1,151.1,140.5,151.1,138.3z"/>
				<path fill="#2B292A" d="M87.8,151.6v11.1H86v-9.4h-2.4v-1.7H87.8z"/>
				<path fill="#2B292A" d="M95.8,161.2c2.1,0,3.1-1.6,3.1-4c-0.6,1-1.6,1.6-3,1.6c-2.2,0-3.5-1.4-3.5-3.5c0-2.3,1.5-3.7,3.9-3.7
					c2.8,0,4.5,2,4.5,5.4c0,3.5-1.8,5.8-4.7,5.8c-1.1,0-2.4-0.3-3.3-0.8l0.7-1.4C94,161,94.9,161.2,95.8,161.2z M94,155.3
					c0,1.3,0.8,2.1,2.1,2.1c1.5,0,2.4-1,2.4-2.1c0-1-0.7-2.1-2.3-2.1C94.9,153.1,94,153.9,94,155.3z"/>
				<path fill="#2B292A" d="M105.5,161.2c2.1,0,3.1-1.6,3.1-4c-0.6,1-1.6,1.6-3,1.6c-2.2,0-3.5-1.4-3.5-3.5c0-2.3,1.5-3.7,3.9-3.7
					c2.8,0,4.5,2,4.5,5.4c0,3.5-1.8,5.8-4.7,5.8c-1.1,0-2.4-0.3-3.3-0.8l0.7-1.4C103.8,161,104.7,161.2,105.5,161.2z M103.8,155.3
					c0,1.3,0.8,2.1,2.1,2.1c1.5,0,2.4-1,2.4-2.1c0-1-0.7-2.1-2.3-2.1C104.7,153.1,103.8,153.9,103.8,155.3z"/>
				<path fill="#2B292A" d="M120.3,151.6v1.4l-4.7,9.6h-2l4.6-9.4h-4.7l0,1.5h-1.7v-3.2H120.3z"/>
			</g>
			<g>
				<path fill="#FFFFFF" d="M99.1,64.9l-4.2-20.8h3.4l2.7,14.5l2.6-14.5h3.4l-4.2,20.8H99.1z"/>
			</g>
			<path fill="#2B292A" d="M30.6,176.1c9.2,9.2,19.9,16.4,31.8,21.5c12.3,5.2,25.5,7.9,39,7.9c13.5,0,26.6-2.6,39-7.9
				c11.9-5,22.6-12.3,31.8-21.5c9.2-9.2,16.4-19.9,21.5-31.8c5.2-12.3,7.9-25.5,7.9-39c0-13.5-2.6-26.6-7.9-39
				c-5-11.9-12.3-22.6-21.5-31.8c-9.2-9.2-19.9-16.4-31.8-21.5c-12.3-5.2-25.5-7.9-39-7.9c-13.5,0-26.6,2.6-39,7.9
				c-11.9,5-22.6,12.3-31.8,21.5c-9.2,9.2-16.4,19.9-21.5,31.8c-5.2,12.3-7.9,25.5-7.9,39c0,13.5,2.6,26.6,7.9,39
				C14.2,156.2,21.4,166.9,30.6,176.1z M101.4,8.6c25.8,0,50.1,10.1,68.4,28.3s28.3,42.5,28.3,68.4c0,25.8-10.1,50.1-28.3,68.4
				S127.2,202,101.4,202c-25.8,0-50.1-10.1-68.4-28.3S4.7,131.1,4.7,105.3c0-25.8,10.1-50.1,28.3-68.4S75.6,8.6,101.4,8.6z"/>
			<path fill="#2B292A" d="M16.2,105.3c0,22.8,8.9,44.2,25,60.3c16.1,16.1,37.5,25,60.3,25c22.8,0,44.2-8.9,60.3-25
				c16.1-16.1,25-37.5,25-60.3c0-22.8-8.9-44.2-25-60.3c-16.1-16.1-37.5-25-60.3-25c-22.8,0-44.2,8.9-60.3,25
				C25,61.1,16.2,82.5,16.2,105.3z M101.4,23.5c21.8,0,42.4,8.5,57.8,24c15.4,15.4,24,36,24,57.8s-8.5,42.4-24,57.8
				c-15.4,15.4-36,24-57.8,24c-21.8,0-42.4-8.5-57.8-24c-15.4-15.4-24-36-24-57.8s8.5-42.4,24-57.8C59,32,79.6,23.5,101.4,23.5z"/>
			<path fill="#2B292A" d="M150.8,179.9l1.1,1.7c1-0.6,1.9-1.3,2.8-2l-1.2-1.6C152.7,178.6,151.8,179.2,150.8,179.9z"/>
			<path fill="#2B292A" d="M93,16.2l-0.2-2c-1.1,0.1-2.3,0.2-3.4,0.4l0.3,2C90.7,16.5,91.9,16.3,93,16.2z"/>
			<path fill="#2B292A" d="M184.5,138.5l1.9,0.7c0.4-1.1,0.8-2.2,1.2-3.2l-1.9-0.7C185.3,136.4,184.9,137.5,184.5,138.5z"/>
			<path fill="#2B292A" d="M113.5,14.6c-1.1-0.2-2.3-0.3-3.4-0.4l-0.2,2c1.1,0.1,2.2,0.2,3.4,0.4L113.5,14.6z"/>
			<path fill="#2B292A" d="M106.6,14c-1.1-0.1-2.3-0.1-3.5-0.1l0,2c1.1,0,2.3,0.1,3.4,0.1L106.6,14z"/>
			<path fill="#2B292A" d="M120.3,15.8c-1.1-0.2-2.3-0.5-3.4-0.6l-0.3,2c1.1,0.2,2.2,0.4,3.3,0.6L120.3,15.8z"/>
			<path fill="#2B292A" d="M181.7,144.7l1.8,0.9c0.5-1,1-2.1,1.5-3.1l-1.8-0.8C182.7,142.6,182.2,143.7,181.7,144.7z"/>
			<path fill="#2B292A" d="M166.4,166.8l1.5,1.4c0.8-0.8,1.6-1.7,2.3-2.6l-1.5-1.3C167.9,165.2,167.1,166,166.4,166.8z"/>
			<path fill="#2B292A" d="M86.3,17.1l-0.3-2c-1.1,0.2-2.3,0.4-3.4,0.6l0.4,2C84.1,17.5,85.2,17.3,86.3,17.1z"/>
			<path fill="#2B292A" d="M170.8,161.7l1.6,1.3c0.7-0.9,1.4-1.8,2.1-2.7l-1.6-1.2C172.2,160,171.5,160.9,170.8,161.7z"/>
			<path fill="#2B292A" d="M156.3,175.9l1.2,1.6c0.9-0.7,1.8-1.4,2.7-2.2l-1.3-1.5C158.1,174.5,157.2,175.2,156.3,175.9z"/>
			<path fill="#2B292A" d="M161.5,171.5l1.4,1.5c0.9-0.8,1.7-1.6,2.5-2.4l-1.4-1.4C163.2,170,162.3,170.8,161.5,171.5z"/>
			<path fill="#2B292A" d="M178.5,150.6l1.7,1c0.6-1,1.2-2,1.7-3l-1.8-1C179.7,148.7,179.1,149.7,178.5,150.6z"/>
			<path fill="#2B292A" d="M73.2,20.4l-0.6-1.9c-1.1,0.4-2.2,0.8-3.3,1.2l0.7,1.9C71,21.1,72.1,20.7,73.2,20.4z"/>
			<path fill="#2B292A" d="M174.9,156.3l1.6,1.1c0.7-0.9,1.3-1.9,1.9-2.9l-1.7-1.1C176.2,154.5,175.5,155.4,174.9,156.3z"/>
			<path fill="#2B292A" d="M79.7,18.5l-0.5-1.9c-1.1,0.3-2.2,0.6-3.3,0.9l0.6,1.9C77.5,19.1,78.6,18.8,79.7,18.5z"/>
			<path fill="#2B292A" d="M99.7,15.8l0-2c-1.1,0-2.3,0.1-3.5,0.1l0.1,2C97.5,15.9,98.6,15.9,99.7,15.8z"/>
			<path fill="#2B292A" d="M188.6,85.2l2-0.5c-0.3-1.1-0.5-2.2-0.8-3.4l-1.9,0.5C188.1,83,188.3,84.1,188.6,85.2z"/>
			<path fill="#2B292A" d="M190.6,98.5l2-0.1c-0.1-1.1-0.2-2.3-0.3-3.4l-2,0.2C190.4,96.3,190.5,97.4,190.6,98.5z"/>
			<path fill="#2B292A" d="M189.8,91.8l2-0.3c-0.2-1.1-0.4-2.3-0.6-3.4l-2,0.4C189.5,89.6,189.7,90.7,189.8,91.8z"/>
			<path fill="#2B292A" d="M186.8,78.6l1.9-0.6c-0.3-1.1-0.7-2.2-1.1-3.3l-1.9,0.7C186.1,76.5,186.5,77.5,186.8,78.6z"/>
			<path fill="#2B292A" d="M184.5,72.2l1.9-0.7c-0.4-1.1-0.9-2.1-1.3-3.2l-1.8,0.8C183.7,70.1,184.1,71.2,184.5,72.2z"/>
			<path fill="#2B292A" d="M181.8,66l1.8-0.9c-0.5-1-1-2.1-1.6-3.1l-1.8,1C180.8,64,181.3,65,181.8,66z"/>
			<path fill="#2B292A" d="M188.5,125.6l2,0.5c0.3-1.1,0.5-2.3,0.7-3.4l-2-0.4C189,123.4,188.8,124.5,188.5,125.6z"/>
			<path fill="#2B292A" d="M189.8,119l2,0.3c0.2-1.1,0.3-2.3,0.5-3.4l-2-0.2C190.1,116.7,190,117.9,189.8,119z"/>
			<path fill="#2B292A" d="M190.6,112.2l2,0.2c0.1-1.1,0.2-2.3,0.2-3.5l-2-0.1C190.7,110,190.7,111.1,190.6,112.2z"/>
			<path fill="#2B292A" d="M190.9,105.3l0,0.2l2,0l0-0.2c0-1.1,0-2.3-0.1-3.5l-2,0.1C190.8,103,190.9,104.2,190.9,105.3z"/>
			<path fill="#2B292A" d="M152,29.1c-1-0.6-1.9-1.3-2.9-1.9l-1,1.7c1,0.6,1.9,1.2,2.8,1.8L152,29.1z"/>
			<path fill="#2B292A" d="M127.1,17.5c-1.1-0.3-2.2-0.6-3.3-0.9l-0.5,1.9c1.1,0.3,2.2,0.6,3.3,0.9L127.1,17.5z"/>
			<path fill="#2B292A" d="M146.1,25.5c-1-0.6-2-1.1-3-1.6l-0.9,1.8c1,0.5,2,1,3,1.6L146.1,25.5z"/>
			<path fill="#2B292A" d="M157.6,33.1c-0.9-0.7-1.8-1.4-2.8-2.1l-1.2,1.6c0.9,0.7,1.8,1.3,2.7,2L157.6,33.1z"/>
			<path fill="#2B292A" d="M133.6,19.7c-1.1-0.4-2.2-0.8-3.3-1.2l-0.6,1.9c1.1,0.4,2.1,0.7,3.2,1.1L133.6,19.7z"/>
			<path fill="#2B292A" d="M180.3,59c-0.6-1-1.2-2-1.8-3l-1.7,1.1c0.6,0.9,1.2,1.9,1.8,2.9L180.3,59z"/>
			<path fill="#2B292A" d="M140,22.3c-1-0.5-2.1-1-3.2-1.4l-0.8,1.9c1,0.4,2.1,0.9,3.1,1.4L140,22.3z"/>
			<path fill="#2B292A" d="M162.9,37.6c-0.8-0.8-1.7-1.5-2.6-2.3l-1.3,1.5c0.9,0.7,1.7,1.5,2.5,2.2L162.9,37.6z"/>
			<path fill="#2B292A" d="M176.6,53.2c-0.7-0.9-1.3-1.9-2-2.8l-1.6,1.2c0.7,0.9,1.3,1.8,2,2.7L176.6,53.2z"/>
			<path fill="#2B292A" d="M172.4,47.7c-0.7-0.9-1.5-1.8-2.2-2.6l-1.5,1.3c0.7,0.8,1.5,1.7,2.2,2.6L172.4,47.7z"/>
			<path fill="#2B292A" d="M167.9,42.4c-0.8-0.8-1.6-1.7-2.4-2.5l-1.4,1.4c0.8,0.8,1.6,1.6,2.4,2.4L167.9,42.4z"/>
			<path fill="#2B292A" d="M79,194c1.1,0.3,2.2,0.5,3.4,0.8l0.4-2c-1.1-0.2-2.2-0.5-3.3-0.8L79,194z"/>
			<path fill="#2B292A" d="M17.1,75.3l-1.9-0.7c-0.4,1.1-0.8,2.2-1.1,3.3l1.9,0.6C16.3,77.5,16.7,76.4,17.1,75.3z"/>
			<path fill="#2B292A" d="M15.1,81.8l-1.9-0.5c-0.3,1.1-0.6,2.2-0.8,3.4l2,0.5C14.5,84,14.8,82.9,15.1,81.8z"/>
			<path fill="#2B292A" d="M72.3,192.1c1.1,0.4,2.2,0.7,3.3,1l0.6-1.9c-1.1-0.3-2.2-0.7-3.2-1L72.3,192.1z"/>
			<path fill="#2B292A" d="M13.5,88.4l-2-0.4c-0.2,1.1-0.4,2.3-0.6,3.4l2,0.3C13.1,90.6,13.3,89.5,13.5,88.4z"/>
			<path fill="#2B292A" d="M65.9,189.6c1.1,0.4,2.1,0.9,3.2,1.3l0.7-1.9c-1-0.4-2.1-0.8-3.1-1.3L65.9,189.6z"/>
			<path fill="#2B292A" d="M11.9,105.2c0-1.1,0-2.3,0.1-3.4l-2-0.1c0,1.1-0.1,2.3-0.1,3.5L11.9,105.2z"/>
			<path fill="#2B292A" d="M15,128.6l-1.9,0.5c0.3,1.1,0.6,2.2,1,3.3l1.9-0.6C15.6,130.8,15.3,129.7,15,128.6z"/>
			<path fill="#2B292A" d="M24.2,154.4c0.6,1,1.3,1.9,1.9,2.9l1.7-1.1c-0.6-0.9-1.3-1.9-1.9-2.8L24.2,154.4z"/>
			<path fill="#2B292A" d="M19.6,69l-1.8-0.8c-0.5,1-0.9,2.1-1.3,3.2l1.9,0.7C18.7,71.1,19.1,70.1,19.6,69z"/>
			<path fill="#2B292A" d="M145.1,183.4l1,1.8c1-0.6,2-1.2,3-1.8l-1-1.7C147,182.3,146,182.8,145.1,183.4z"/>
			<path fill="#2B292A" d="M22.6,63l-1.8-1c-0.5,1-1.1,2-1.6,3.1L21,66C21.5,65,22,64,22.6,63z"/>
			<path fill="#2B292A" d="M85.8,195.4c1.1,0.2,2.3,0.4,3.4,0.5l0.3-2c-1.1-0.1-2.2-0.3-3.3-0.5L85.8,195.4z"/>
			<path fill="#2B292A" d="M53.6,183.3c1,0.6,2,1.2,3,1.8l1-1.8c-1-0.5-2-1.1-2.9-1.7L53.6,183.3z"/>
			<path fill="#2B292A" d="M42.4,175.2c0.9,0.7,1.8,1.5,2.7,2.2l1.2-1.6c-0.9-0.7-1.8-1.4-2.6-2.1L42.4,175.2z"/>
			<path fill="#2B292A" d="M17,135.1l-1.9,0.7c0.4,1.1,0.8,2.2,1.2,3.2l1.9-0.7C17.8,137.2,17.4,136.2,17,135.1z"/>
			<path fill="#2B292A" d="M37.3,170.5c0.8,0.8,1.7,1.6,2.5,2.4l1.4-1.5c-0.8-0.8-1.7-1.5-2.5-2.3L37.3,170.5z"/>
			<path fill="#2B292A" d="M13.5,122l-2,0.4c0.2,1.1,0.5,2.3,0.7,3.4l2-0.4C13.9,124.3,13.7,123.1,13.5,122z"/>
			<path fill="#2B292A" d="M12.5,115.3l-2,0.2c0.1,1.1,0.3,2.3,0.4,3.4l2-0.3C12.8,117.6,12.6,116.5,12.5,115.3z"/>
			<path fill="#2B292A" d="M59.6,186.7c1,0.5,2.1,1,3.1,1.5l0.9-1.8c-1-0.5-2-1-3-1.5L59.6,186.7z"/>
			<path fill="#2B292A" d="M12,108.6l-2,0.1c0,1.1,0.1,2.3,0.2,3.5l2-0.1C12.1,110.8,12,109.7,12,108.6z"/>
			<path fill="#2B292A" d="M28.2,160.1c0.7,0.9,1.4,1.8,2.1,2.7l1.6-1.3c-0.7-0.9-1.4-1.8-2.1-2.7L28.2,160.1z"/>
			<path fill="#2B292A" d="M20.7,148.5c0.5,1,1.1,2,1.7,3l1.7-1c-0.6-1-1.1-2-1.7-3L20.7,148.5z"/>
			<path fill="#2B292A" d="M47.9,179.5c0.9,0.7,1.9,1.3,2.8,2l1.1-1.7c-0.9-0.6-1.9-1.3-2.8-1.9L47.9,179.5z"/>
			<path fill="#2B292A" d="M19.5,141.4l-1.8,0.8c0.5,1.1,1,2.1,1.5,3.1l1.8-0.9C20.5,143.5,20,142.4,19.5,141.4z"/>
			<path fill="#2B292A" d="M12.5,95.1l-2-0.2c-0.1,1.1-0.2,2.3-0.3,3.4l2,0.2C12.3,97.3,12.4,96.2,12.5,95.1z"/>
			<path fill="#2B292A" d="M38.7,41.4L37.3,40c-0.8,0.8-1.6,1.6-2.4,2.5l1.5,1.4C37.1,43,37.9,42.2,38.7,41.4z"/>
			<path fill="#2B292A" d="M139,186.5l0.8,1.8c1-0.5,2.1-1,3.1-1.5l-0.9-1.8C141.1,185.5,140,186,139,186.5z"/>
			<path fill="#2B292A" d="M34.1,46.3L32.6,45c-0.8,0.9-1.5,1.8-2.2,2.6l1.6,1.3C32.6,48.1,33.4,47.2,34.1,46.3z"/>
			<path fill="#2B292A" d="M186.8,132.1l1.9,0.6c0.3-1.1,0.7-2.2,1-3.3l-1.9-0.5C187.4,130,187.1,131.1,186.8,132.1z"/>
			<path fill="#2B292A" d="M132.8,189.1l0.7,1.9c1.1-0.4,2.2-0.8,3.2-1.3l-0.8-1.9C134.9,188.3,133.8,188.7,132.8,189.1z"/>
			<path fill="#2B292A" d="M126.3,191.2l0.6,1.9c1.1-0.3,2.2-0.7,3.3-1l-0.6-1.9C128.5,190.6,127.4,190.9,126.3,191.2z"/>
			<path fill="#2B292A" d="M29.8,51.6l-1.6-1.2c-0.7,0.9-1.4,1.9-2,2.8l1.7,1.1C28.5,53.4,29.2,52.5,29.8,51.6z"/>
			<path fill="#2B292A" d="M60.6,25.6l-0.9-1.8c-1,0.5-2.1,1.1-3.1,1.6l1,1.8C58.6,26.7,59.6,26.1,60.6,25.6z"/>
			<path fill="#2B292A" d="M66.8,22.8L66,20.9c-1.1,0.4-2.1,0.9-3.2,1.4l0.8,1.8C64.7,23.7,65.8,23.2,66.8,22.8z"/>
			<path fill="#2B292A" d="M32.5,165.5c0.8,0.9,1.5,1.7,2.3,2.6l1.5-1.4c-0.8-0.8-1.5-1.7-2.3-2.5L32.5,165.5z"/>
			<path fill="#2B292A" d="M49.1,32.7l-1.2-1.6c-0.9,0.7-1.9,1.4-2.8,2.1l1.2,1.6C47.3,34,48.2,33.4,49.1,32.7z"/>
			<path fill="#2B292A" d="M54.7,28.9l-1-1.7c-1,0.6-2,1.2-2.9,1.9l1.1,1.7C52.8,30.1,53.8,29.5,54.7,28.9z"/>
			<path fill="#2B292A" d="M43.8,36.9l-1.3-1.5c-0.9,0.7-1.8,1.5-2.6,2.3l1.4,1.5C42,38.3,42.9,37.6,43.8,36.9z"/>
			<path fill="#2B292A" d="M92.6,196.3c1.1,0.1,2.3,0.2,3.5,0.3l0.1-2c-1.1-0.1-2.3-0.2-3.4-0.3L92.6,196.3z"/>
			<path fill="#2B292A" d="M26,57.2l-1.7-1.1c-0.6,1-1.2,2-1.8,2.9l1.7,1C24.8,59.1,25.4,58.1,26,57.2z"/>
			<path fill="#2B292A" d="M99.6,194.7l0,2c0.6,0,1.2,0,1.9,0c0.5,0,1.1,0,1.6,0l0-2C101.8,194.8,100.7,194.8,99.6,194.7z"/>
			<path fill="#2B292A" d="M113.1,194l0.3,2c1.1-0.1,2.3-0.3,3.4-0.5l-0.3-2C115.3,193.7,114.2,193.9,113.1,194z"/>
			<path fill="#2B292A" d="M106.3,194.6l0.1,2c1.1-0.1,2.3-0.1,3.5-0.3l-0.2-2C108.6,194.5,107.5,194.6,106.3,194.6z"/>
			<path fill="#2B292A" d="M119.8,192.9l0.4,2c1.1-0.2,2.3-0.5,3.4-0.8l-0.5-1.9C122,192.4,120.9,192.6,119.8,192.9z"/>
			<polygon fill="#2B292A" points="103.6,171.5 101.4,167.1 99.2,171.5 94.3,172.2 97.8,175.7 97,180.6 101.4,178.3 105.8,180.6 
				105,175.7 108.5,172.2 			"/>
			<polygon fill="#2B292A" points="76.7,57.2 76.7,56.1 63.9,56.1 63.9,57.2 63.9,58.4 76.7,58.4 			"/>
			<polygon fill="#2B292A" points="76.7,66.6 76.7,65.5 53.9,65.5 53.9,67.7 76.7,67.7 			"/>
			<polygon fill="#2B292A" points="138.9,57.2 138.9,56.1 126.1,56.1 126.1,57.2 126.1,58.4 138.9,58.4 			"/>
			<polygon fill="#2B292A" points="148.9,66.6 148.9,65.5 126.1,65.5 126.1,66.6 126.1,67.7 148.9,67.7 			"/>
		</g>
	</g>
</g>
<g id="DESIGNED_BY_FREEPIK">
	<g>
	</g>
	<g>
	</g>
	<g>
	</g>
	<g>
	</g>
	<g>
	</g>
	<g>
	</g>
</g>
</svg>
