<?xml version="1.0" encoding="utf-8"?>
<!-- Generator: Adobe Illustrator 18.0.0, SVG Export Plug-In . SVG Version: 6.00 Build 0)  -->
<!DOCTYPE svg PUBLIC "-//W3C//DTD SVG 1.1//EN" "http://www.w3.org/Graphics/SVG/1.1/DTD/svg11.dtd">
<svg version="1.1" xmlns="http://www.w3.org/2000/svg" xmlns:xlink="http://www.w3.org/1999/xlink" x="0px" y="0px"
	 viewBox="0 0 200.6 165" enable-background="new 0 0 200.6 165" xml:space="preserve">
<g id="BACKGROUND" display="none">
	<rect x="-63.1" y="-309.4" display="inline" fill="#FFFFFF" width="800" height="800"/>
</g>
<g id="OBJECTS">
	<g>
		<g>
			<g>
				<g>
					<path fill="#2B292A" d="M26.1,91.1v-25h5.7c1.3,0,2.4,0.1,3.4,0.3c0.9,0.2,1.8,0.6,2.5,1.1c0.7,0.5,1.2,1.2,1.6,2.1
						s0.5,1.9,0.5,3.2c0,1.6-0.2,2.8-0.7,3.8s-1.2,1.7-2.3,2.2l3.5,12.3h-4.6l-3-11.4h-2v11.4H26.1z M30.6,76.8h1.1
						c1.3,0,2.3-0.3,2.9-0.9c0.6-0.6,0.9-1.6,0.9-2.9c0-1.3-0.2-2.3-0.7-2.9c-0.5-0.6-1.4-0.9-2.7-0.9h-1.4V76.8z"/>
					<path fill="#2B292A" d="M43.2,91.1v-25h10.4v3.2h-5.9v7.2h4.7v3.2h-4.7V88h6v3.1H43.2z"/>
					<path fill="#2B292A" d="M58.8,91.1V69.5h-4.2v-3.4h12.8v3.4h-4.1v21.6H58.8z"/>
					<path fill="#2B292A" d="M69.3,91.1v-25h5.7c1.3,0,2.4,0.1,3.4,0.3c0.9,0.2,1.8,0.6,2.5,1.1c0.7,0.5,1.2,1.2,1.6,2.1
						s0.5,1.9,0.5,3.2c0,1.6-0.2,2.8-0.7,3.8s-1.2,1.7-2.3,2.2l3.5,12.3h-4.6l-3-11.4h-2v11.4H69.3z M73.9,76.8H75
						c1.3,0,2.3-0.3,2.9-0.9c0.6-0.6,0.9-1.6,0.9-2.9c0-1.3-0.2-2.3-0.7-2.9c-0.5-0.6-1.4-0.9-2.7-0.9h-1.4V76.8z"/>
					<path fill="#2B292A" d="M93.2,91.4c-2.6,0-4.4-0.7-5.5-2.1c-1.1-1.4-1.7-3.4-1.7-6.1V74c0-1.3,0.1-2.5,0.4-3.4s0.7-1.8,1.2-2.5
						s1.3-1.2,2.2-1.6s2.1-0.5,3.4-0.5c2.6,0,4.4,0.7,5.5,2.1c1.1,1.4,1.7,3.4,1.7,6.1v9.2c0,1.3-0.1,2.5-0.4,3.4s-0.7,1.8-1.2,2.6
						c-0.6,0.7-1.3,1.3-2.2,1.6C95.7,91.2,94.5,91.4,93.2,91.4z M92.1,87.9c0.3,0.1,0.7,0.2,1.1,0.2c0.4,0,0.8-0.1,1.1-0.2
						c0.3-0.1,0.6-0.3,0.7-0.5c0.2-0.2,0.3-0.5,0.4-0.8c0.1-0.3,0.2-0.7,0.2-1s0.1-0.7,0.1-1.2V72.9c0-0.6,0-1.1-0.1-1.5
						c-0.1-0.4-0.2-0.8-0.4-1.1s-0.4-0.6-0.8-0.8c-0.4-0.2-0.8-0.3-1.3-0.3s-1,0.1-1.3,0.3c-0.4,0.2-0.6,0.4-0.8,0.8
						c-0.2,0.4-0.3,0.7-0.3,1.1c-0.1,0.4-0.1,0.9-0.1,1.5v11.3c0,0.5,0,0.9,0.1,1.2s0.1,0.7,0.2,1s0.2,0.6,0.4,0.8
						C91.5,87.6,91.8,87.7,92.1,87.9z"/>
					<path fill="#2B292A" d="M111.3,91.1v-25h4.5V88h6v3.1H111.3z"/>
					<path fill="#2B292A" d="M130.7,91.4c-2.6,0-4.4-0.7-5.5-2.1c-1.1-1.4-1.7-3.4-1.7-6.1V74c0-1.3,0.1-2.5,0.4-3.4
						s0.7-1.8,1.2-2.5s1.3-1.2,2.2-1.6s2.1-0.5,3.4-0.5c2.6,0,4.4,0.7,5.5,2.1c1.1,1.4,1.7,3.4,1.7,6.1v9.2c0,1.3-0.1,2.5-0.4,3.4
						s-0.7,1.8-1.2,2.6c-0.6,0.7-1.3,1.3-2.2,1.6C133.2,91.2,132,91.4,130.7,91.4z M129.6,87.9c0.3,0.1,0.7,0.2,1.1,0.2
						c0.4,0,0.8-0.1,1.1-0.2c0.3-0.1,0.6-0.3,0.7-0.5c0.2-0.2,0.3-0.5,0.4-0.8c0.1-0.3,0.2-0.7,0.2-1s0.1-0.7,0.1-1.2V72.9
						c0-0.6,0-1.1-0.1-1.5c-0.1-0.4-0.2-0.8-0.4-1.1s-0.4-0.6-0.8-0.8c-0.4-0.2-0.8-0.3-1.3-0.3s-1,0.1-1.3,0.3
						c-0.4,0.2-0.6,0.4-0.8,0.8c-0.2,0.4-0.3,0.7-0.3,1.1c-0.1,0.4-0.1,0.9-0.1,1.5v11.3c0,0.5,0,0.9,0.1,1.2s0.1,0.7,0.2,1
						s0.2,0.6,0.4,0.8C129,87.6,129.3,87.7,129.6,87.9z"/>
					<path fill="#2B292A" d="M147.5,91.5c-2.4,0-4.1-0.7-5.1-2.2s-1.6-3.6-1.6-6.4v-8.1c0-1.4,0.1-2.7,0.3-3.7c0.2-1,0.6-2,1.1-2.7
						c0.5-0.8,1.3-1.4,2.2-1.8c0.9-0.4,2.1-0.6,3.4-0.6c2.5,0,4.2,0.6,5.3,1.8c1.1,1.2,1.6,3,1.6,5.5v1.2h-4.4v-1.3c0-0.6,0-1,0-1.4
						c0-0.4-0.1-0.7-0.2-1.1c-0.1-0.4-0.2-0.6-0.4-0.8c-0.2-0.2-0.4-0.3-0.7-0.5c-0.3-0.1-0.7-0.2-1.1-0.2c-0.3,0-0.6,0-0.9,0.1
						s-0.5,0.2-0.7,0.3s-0.3,0.3-0.5,0.5c-0.1,0.2-0.2,0.5-0.3,0.7c-0.1,0.2-0.1,0.5-0.2,0.8s-0.1,0.6-0.1,0.9c0,0.3,0,0.6,0,1v10.1
						c0,1.5,0.2,2.6,0.6,3.3c0.4,0.7,1.1,1,2.1,1c0.5,0,1-0.1,1.4-0.3c0.4-0.2,0.7-0.5,0.9-0.9s0.4-0.9,0.4-1.4
						c0.1-0.5,0.1-1.2,0.1-1.9v-2h-2.7v-2.9h6.8v12.7h-3l-0.3-2.5C151,90.5,149.6,91.5,147.5,91.5z"/>
					<path fill="#2B292A" d="M165.3,91.4c-2.6,0-4.4-0.7-5.5-2.1c-1.1-1.4-1.7-3.4-1.7-6.1V74c0-1.3,0.1-2.5,0.4-3.4
						s0.7-1.8,1.2-2.5s1.3-1.2,2.2-1.6s2.1-0.5,3.4-0.5c2.6,0,4.4,0.7,5.5,2.1c1.1,1.4,1.7,3.4,1.7,6.1v9.2c0,1.3-0.1,2.5-0.4,3.4
						s-0.7,1.8-1.2,2.6c-0.6,0.7-1.3,1.3-2.2,1.6C167.7,91.2,166.6,91.4,165.3,91.4z M164.1,87.9c0.3,0.1,0.7,0.2,1.1,0.2
						c0.4,0,0.8-0.1,1.1-0.2c0.3-0.1,0.6-0.3,0.7-0.5c0.2-0.2,0.3-0.5,0.4-0.8c0.1-0.3,0.2-0.7,0.2-1s0.1-0.7,0.1-1.2V72.9
						c0-0.6,0-1.1-0.1-1.5c-0.1-0.4-0.2-0.8-0.4-1.1s-0.4-0.6-0.8-0.8c-0.4-0.2-0.8-0.3-1.3-0.3s-1,0.1-1.3,0.3
						c-0.4,0.2-0.6,0.4-0.8,0.8c-0.2,0.4-0.3,0.7-0.3,1.1c-0.1,0.4-0.1,0.9-0.1,1.5v11.3c0,0.5,0,0.9,0.1,1.2s0.1,0.7,0.2,1
						s0.2,0.6,0.4,0.8C163.6,87.6,163.8,87.7,164.1,87.9z"/>
				</g>
			</g>
			<g>
				<path fill="#2B292A" d="M64.3,114.4h1.2v3.1c-0.9,0.6-2.1,1.1-3.3,1.1c-2.5,0-4.4-1.9-4.4-4.3c0-2.4,2-4.2,4.5-4.2
					c1.2,0,2.4,0.5,3.2,1.2l-0.8,1c-0.6-0.6-1.6-1-2.4-1c-1.7,0-3.1,1.3-3.1,3c0,1.7,1.4,3,3.1,3c0.6,0,1.3-0.2,1.9-0.6V114.4z"/>
				<path fill="#2B292A" d="M71.1,117.3c1.4,0,2.2-0.8,2.2-2.3v-4.9h1.4v4.9c0,2.2-1.4,3.5-3.7,3.5c-2.3,0-3.7-1.3-3.7-3.5v-4.9h1.4
					v4.9C68.8,116.5,69.7,117.3,71.1,117.3z"/>
				<path fill="#2B292A" d="M82,116.7h-4.2l-0.8,1.9h-1.5l3.7-8.4h1.5l3.7,8.4h-1.5L82,116.7z M81.4,115.4l-1.6-3.7l-1.6,3.7H81.4z"
					/>
				<path fill="#2B292A" d="M90.7,118.6l-1.5-2.5c-0.1,0-0.3,0-0.4,0h-2v2.5h-1.4v-8.4h3.4c2.2,0,3.4,1,3.4,2.9
					c0,1.3-0.6,2.3-1.7,2.7l1.9,2.8H90.7z M88.8,114.7c1.3,0,2-0.6,2-1.7c0-1.1-0.7-1.6-2-1.6h-2v3.3H88.8z"/>
				<path fill="#2B292A" d="M99.5,116.7h-4.2l-0.8,1.9H93l3.7-8.4h1.5l3.7,8.4h-1.5L99.5,116.7z M99,115.4l-1.6-3.7l-1.6,3.7H99z"/>
				<path fill="#2B292A" d="M104.3,110.1l4.5,6v-6h1.4v8.4h-1.4l-4.5-6v6H103v-8.4H104.3z"/>
				<path fill="#2B292A" d="M118.2,110.1v1.3h-2.7v7.1h-1.4v-7.1h-2.7v-1.3H118.2z"/>
				<path fill="#2B292A" d="M125.4,110.1v1.3h-4.6v2.3h4.1v1.3h-4.1v2.3h4.7v1.3h-6.2v-8.4H125.4z"/>
				<path fill="#2B292A" d="M133.3,110.1v1.3h-4.6v2.3h4.1v1.3h-4.1v2.3h4.7v1.3h-6.2v-8.4H133.3z"/>
				<path fill="#2B292A" d="M143,114.4c0,2.4-1.8,4.2-4.4,4.2h-3.4v-8.4h3.5C141.2,110.1,143,111.9,143,114.4z M141.6,114.4
					c0-1.7-1.3-2.9-2.9-2.9h-2v5.9h2.1C140.3,117.3,141.6,116.1,141.6,114.4z"/>
			</g>
			<path fill="#2B292A" d="M32.3,117.1c1.2,2.6,2.5,5.1,4,7.6c6.4,10.5,15.2,19.3,26.3,26.1c18.8,11.6,37.4,13.6,38.2,13.6l0.2,0
				l0.2,0c0.7-0.1,18.4-2.2,36.2-13.8c10.5-6.8,18.9-15.4,25-25.7c1.5-2.5,2.8-5.1,4-7.8h34.2l-2.3-18.9l2.3-21.4h-11.6V56h-15.2
				V16.3c0-9-7.3-16.3-16.3-16.3H40.7c-9,0-16.3,7.3-16.3,16.3V56H9.2v20.7H0.3l2.3,21.4l-2.3,18.9H32.3z M9.2,78.8v23.2h17.9
				c1.1,4.6,2.5,9,4.3,13.2H2.6l2-16.8l0-0.1L2.6,78.8H9.2z M11.2,76.8V58.1h13.2h1.7h1.7h5.6h1h1h127.2h1h1h5.6h1.7h1.7h13.2v18.7
				v1v1v21.2h-15.2H170h-1.8h-5.7h-1h-1h-4.6h-1h-1H47h-1h-1h-7h-1h-1h-5.7h-1.8h-1.8H11.2V78.8v-1V76.8z M27.8,16.3
				c0-7.1,5.8-12.9,12.9-12.9h116.6c7.1,0,12.9,5.8,12.9,12.9V56h-5.6V14.9c0-3.3-2.7-6-6-6H39.4c-3.3,0-6,2.7-6,6V56h-5.6V16.3z
				 M162.7,56H35.4V14.9c0-2.2,1.8-4,4-4h119.2c2.2,0,4,1.8,4,4V56z M196.2,98.2l2.1,16.9h-31.1c1.7-4.2,3.1-8.6,4.1-13.2h17.6V78.8
				h9.4L196.2,98.2z M162.6,117.1c-1,2.1-2,4.1-3.1,6c-5.7,9.8-13.7,18.1-23.8,24.6c-16.3,10.5-32.8,13-34.7,13.3
				c-2-0.2-19.4-2.6-36.6-13.2c-10.6-6.6-19-14.9-25.1-25c-1.1-1.8-2.1-3.8-3.1-5.7c-0.2-0.3-0.3-0.7-0.5-1c-0.2-0.3-0.3-0.7-0.5-1
				c-1.9-4.2-3.4-8.5-4.5-13.2h5.8c1.2,4.6,2.9,9,4.9,13.2c0.2,0.3,0.3,0.7,0.5,1c0.2,0.3,0.4,0.7,0.5,1c5.6,10.4,13.7,19,24.5,25.8
				c14.7,9.2,29.7,12,33.9,12.6l0.2,0l0.2,0c4-0.7,18.2-3.6,32-12.6c10.3-6.8,18.1-15.4,23.4-25.7c0.2-0.3,0.3-0.7,0.5-1
				c0.2-0.3,0.3-0.7,0.5-1c1.9-4.1,3.5-8.5,4.6-13.2h5.7c-1.1,4.6-2.5,9-4.3,13.2c-0.1,0.3-0.3,0.7-0.4,1
				C162.9,116.4,162.7,116.8,162.6,117.1z M154.9,115.8c-0.2,0.5-0.5,0.9-0.7,1.3c-5.1,9.6-12.5,17.7-22.2,24.1
				c-13.3,8.7-26.9,11.6-31,12.3c-4.4-0.7-18.9-3.4-33-12.3c-10.1-6.3-17.9-14.4-23.3-24.1c-0.2-0.3-0.4-0.7-0.5-1
				c-0.2-0.3-0.4-0.7-0.5-1c-2.1-4.1-3.8-8.5-5.1-13.2H45h1h1h106.8h1h1h4.1c-1.1,4.1-2.4,8-4.1,11.7
				C155.5,114.4,155.2,115.1,154.9,115.8z"/>
			<rect x="175.1" y="60.8" fill="#2B292A" width="2.6" height="0.9"/>
			<rect x="183.3" y="62.8" fill="#2B292A" width="0.9" height="2.6"/>
			<rect x="183.3" y="73.2" fill="#2B292A" width="0.9" height="2.6"/>
			<rect x="183.3" y="68" fill="#2B292A" width="0.9" height="2.6"/>
			<rect x="180.2" y="60.8" fill="#2B292A" width="2.6" height="0.9"/>
			<rect x="20.1" y="60.8" fill="#2B292A" width="2.6" height="0.9"/>
			<rect x="13.9" y="68.4" fill="#2B292A" width="0.9" height="2.6"/>
			<rect x="13.9" y="73.5" fill="#2B292A" width="0.9" height="2.6"/>
			<rect x="14.9" y="60.8" fill="#2B292A" width="2.6" height="0.9"/>
			<rect x="13.9" y="63.2" fill="#2B292A" width="0.9" height="2.6"/>
			<rect x="18.8" y="96.3" fill="#2B292A" width="2.6" height="0.9"/>
			<polygon fill="#2B292A" points="14.8,78.8 14.8,78.7 13.9,78.7 13.9,78.8 13.9,81.3 14.8,81.3 			"/>
			<rect x="13.9" y="83.9" fill="#2B292A" width="0.9" height="2.6"/>
			<rect x="13.9" y="89" fill="#2B292A" width="0.9" height="2.6"/>
			<polygon fill="#2B292A" points="16.3,96.3 14.8,96.3 14.8,94.2 13.9,94.2 13.9,97.2 16.3,97.2 			"/>
			<rect x="183.3" y="88.7" fill="#2B292A" width="0.9" height="2.6"/>
			<polygon fill="#2B292A" points="184.2,78.8 184.2,78.3 183.3,78.3 183.3,78.8 183.3,80.9 184.2,80.9 			"/>
			<rect x="173.8" y="96.3" fill="#2B292A" width="2.6" height="0.9"/>
			<rect x="183.3" y="83.5" fill="#2B292A" width="0.9" height="2.6"/>
			<rect x="178.9" y="96.3" fill="#2B292A" width="2.6" height="0.9"/>
			<rect x="183.3" y="93.8" fill="#2B292A" width="0.9" height="2.6"/>
			<rect x="164.7" y="60.8" fill="#2B292A" width="2.6" height="0.9"/>
			<rect x="30.4" y="60.8" fill="#2B292A" width="2.6" height="0.9"/>
			<polygon fill="#2B292A" points="31.7,97.2 31.7,96.3 29.4,96.3 29.2,96.3 29.2,97.2 29.6,97.2 			"/>
			<rect x="163.5" y="96.3" fill="#2B292A" width="2.6" height="0.9"/>
			<polygon fill="#2B292A" points="26.6,97.2 26.6,96.3 25.9,96.3 24,96.3 24,97.2 26.1,97.2 			"/>
			<polygon fill="#2B292A" points="172,61.6 172.5,61.6 172.5,60.8 172,60.8 170.3,60.8 169.9,60.8 169.9,61.6 170.3,61.6 			"/>
			<polygon fill="#2B292A" points="27.8,61.6 27.9,61.6 27.9,60.8 27.8,60.8 26.1,60.8 25.3,60.8 25.3,61.6 26.1,61.6 			"/>
			<polygon fill="#2B292A" points="170.5,97.2 171.2,97.2 171.2,96.3 170.7,96.3 168.9,96.3 168.6,96.3 168.6,97.2 168.8,97.2 			
				"/>
			<rect x="87.3" y="60.8" fill="#2B292A" width="2.6" height="0.9"/>
			<rect x="92.4" y="60.8" fill="#2B292A" width="2.6" height="0.9"/>
			<rect x="91.1" y="96.3" fill="#2B292A" width="2.6" height="0.9"/>
			<rect x="86" y="96.3" fill="#2B292A" width="2.6" height="0.9"/>
			<rect x="82.1" y="60.8" fill="#2B292A" width="2.6" height="0.9"/>
			<rect x="80.8" y="96.3" fill="#2B292A" width="2.6" height="0.9"/>
			<rect x="113.1" y="60.8" fill="#2B292A" width="2.6" height="0.9"/>
			<rect x="96.3" y="96.3" fill="#2B292A" width="2.6" height="0.9"/>
			<rect x="106.6" y="96.3" fill="#2B292A" width="2.6" height="0.9"/>
			<rect x="111.8" y="96.3" fill="#2B292A" width="2.6" height="0.9"/>
			<rect x="107.9" y="60.8" fill="#2B292A" width="2.6" height="0.9"/>
			<rect x="117" y="96.3" fill="#2B292A" width="2.6" height="0.9"/>
			<rect x="97.6" y="60.8" fill="#2B292A" width="2.6" height="0.9"/>
			<rect x="101.5" y="96.3" fill="#2B292A" width="2.6" height="0.9"/>
			<rect x="102.8" y="60.8" fill="#2B292A" width="2.6" height="0.9"/>
			<rect x="60.2" y="96.3" fill="#2B292A" width="2.6" height="0.9"/>
			<rect x="55" y="96.3" fill="#2B292A" width="2.6" height="0.9"/>
			<rect x="49.8" y="96.3" fill="#2B292A" width="2.6" height="0.9"/>
			<rect x="51.1" y="60.8" fill="#2B292A" width="2.6" height="0.9"/>
			<rect x="76.9" y="60.8" fill="#2B292A" width="2.6" height="0.9"/>
			<rect x="45.9" y="60.8" fill="#2B292A" width="2.6" height="0.9"/>
			<rect x="40.8" y="60.8" fill="#2B292A" width="2.6" height="0.9"/>
			<rect x="35.6" y="60.8" fill="#2B292A" width="2.6" height="0.9"/>
			<rect x="70.5" y="96.3" fill="#2B292A" width="2.6" height="0.9"/>
			<rect x="71.8" y="60.8" fill="#2B292A" width="2.6" height="0.9"/>
			<rect x="75.6" y="96.3" fill="#2B292A" width="2.6" height="0.9"/>
			<rect x="66.6" y="60.8" fill="#2B292A" width="2.6" height="0.9"/>
			<rect x="61.4" y="60.8" fill="#2B292A" width="2.6" height="0.9"/>
			<rect x="65.3" y="96.3" fill="#2B292A" width="2.6" height="0.9"/>
			<rect x="56.3" y="60.8" fill="#2B292A" width="2.6" height="0.9"/>
			<rect x="148" y="96.3" fill="#2B292A" width="2.6" height="0.9"/>
			<rect x="149.2" y="60.8" fill="#2B292A" width="2.6" height="0.9"/>
			<rect x="154.4" y="60.8" fill="#2B292A" width="2.6" height="0.9"/>
			<rect x="118.2" y="60.8" fill="#2B292A" width="2.6" height="0.9"/>
			<rect x="142.8" y="96.3" fill="#2B292A" width="2.6" height="0.9"/>
			<rect x="159.6" y="60.8" fill="#2B292A" width="2.6" height="0.9"/>
			<rect x="144.1" y="60.8" fill="#2B292A" width="2.6" height="0.9"/>
			<rect x="122.1" y="96.3" fill="#2B292A" width="2.6" height="0.9"/>
			<rect x="128.6" y="60.8" fill="#2B292A" width="2.6" height="0.9"/>
			<rect x="127.3" y="96.3" fill="#2B292A" width="2.6" height="0.9"/>
			<rect x="123.4" y="60.8" fill="#2B292A" width="2.6" height="0.9"/>
			<rect x="138.9" y="60.8" fill="#2B292A" width="2.6" height="0.9"/>
			<rect x="133.7" y="60.8" fill="#2B292A" width="2.6" height="0.9"/>
			<rect x="132.5" y="96.3" fill="#2B292A" width="2.6" height="0.9"/>
			<rect x="137.6" y="96.3" fill="#2B292A" width="2.6" height="0.9"/>
			<rect x="39.5" y="96.3" fill="#2B292A" width="2.6" height="0.9"/>
			<polygon fill="#2B292A" points="46,97.2 47,97.2 47.2,97.2 47.2,96.3 47,96.3 46,96.3 45,96.3 44.7,96.3 44.7,97.2 45,97.2 			
				"/>
			<rect x="158.3" y="96.3" fill="#2B292A" width="2.6" height="0.9"/>
			<polygon fill="#2B292A" points="154.9,97.2 155.7,97.2 155.7,96.3 154.9,96.3 153.9,96.3 153.1,96.3 153.1,97.2 153.9,97.2 			
				"/>
			<polygon fill="#2B292A" points="36.3,97.2 36.9,97.2 36.9,96.3 36.1,96.3 35.1,96.3 34.3,96.3 34.3,97.2 35.3,97.2 			"/>
			<polygon fill="#2B292A" points="102.9,133.3 100.4,128.3 98,133.3 92.5,134.1 96.5,137.9 95.5,143.4 100.4,140.8 105.3,143.4 
				104.4,137.9 108.4,134.1 			"/>
			<path fill="#2B292A" d="M103.4,25.1c-0.5,0.3-1,0.5-1.7,0.7c-2.3,0.7-4.8,0.7-7.1,0c-0.6-0.2-1.2-0.4-1.7-0.7
				c-1.8-1.2-13.4-6.3-37.6-2.3v7.1c0,0,2.9-0.9,3.5,3c0.6,3.9,2.1,16.7,12,17c0,0,9,0.4,10.9,0c1.9-0.4,8.7-1.9,11.3-12.3
				c0,0,0.5-2.3,1.8-4.2c1.6-2.4,5.1-2.4,6.7,0c1.3,1.9,1.8,4.2,1.8,4.2c2.6,10.4,9.4,12,11.3,12.3c1.9,0.4,10.9,0,10.9,0
				c9.9-0.3,11.3-13.1,12-17c0.6-3.9,3.5-3,3.5-3v-7.1C116.9,18.8,105.3,23.9,103.4,25.1z M90,36.9c-2.3,6-5,8.9-8.9,9.6
				c0,0-0.6,0.1-3,0.1c-3.1,0-7-0.2-7.1-0.2l0,0c-3.5-0.1-5.2-2.5-6.2-4.6c-0.7-1.4-1.3-3.1-1.7-5.2l0,0l0,0c0,0-0.5-1.3-0.6-2.9
				c-0.1-1.5,0-3.6,1.2-5.4c1.5-2.3,4.6-3.5,9-3.5c0.4,0,0.8,0,1.2,0c5.3,0,9.9,0.6,14.1,1.9C89.7,27.2,91,29,91,31
				C90.9,33.3,90.6,35.3,90,36.9z M132.9,28.2c1.2,1.8,1.3,3.9,1.2,5.4c-0.2,1.7-0.6,2.9-0.6,2.9l0,0l0,0c-0.5,2-1,3.7-1.7,5.2
				c-1,2.1-2.7,4.5-6.2,4.6l0,0c0,0-4,0.2-7.1,0.2c-2.4,0-3-0.1-3-0.1c-3.9-0.7-6.6-3.6-8.9-9.6c-0.6-1.6-0.9-3.5-1-5.8
				c0-2,1.3-3.8,3.2-4.4c4.3-1.3,8.9-1.9,14.1-1.9c0.4,0,0.8,0,1.2,0C128.3,24.8,131.4,26,132.9,28.2z"/>
		</g>
	</g>
</g>
<g id="DESIGNED_BY_FREEPIK">
	<g>
	</g>
	<g>
	</g>
	<g>
	</g>
	<g>
	</g>
	<g>
	</g>
	<g>
	</g>
</g>
</svg>
