<?xml version="1.0" encoding="utf-8"?>
<!-- Generator: Adobe Illustrator 18.0.0, SVG Export Plug-In . SVG Version: 6.00 Build 0)  -->
<!DOCTYPE svg PUBLIC "-//W3C//DTD SVG 1.1//EN" "http://www.w3.org/Graphics/SVG/1.1/DTD/svg11.dtd">
<svg version="1.1" xmlns="http://www.w3.org/2000/svg" xmlns:xlink="http://www.w3.org/1999/xlink" x="0px" y="0px"
	 viewBox="0 0 206.7 200.7" enable-background="new 0 0 206.7 200.7" xml:space="preserve">
<g id="BACKGROUND" display="none">
	<rect x="-295.3" y="-55.7" display="inline" fill="#FFFFFF" width="800" height="800"/>
</g>
<g id="OBJECTS">
	<g>
		<g>
			<g>
				<g>
					<path fill="#2B292A" d="M32.3,108.7c-1.4,0-2.6-0.2-3.6-0.5c-1-0.3-1.9-0.8-2.6-1.4c-0.7-0.6-1.2-1.4-1.7-2.3
						c-0.4-0.9-0.7-1.9-0.9-2.9c-0.2-1-0.3-2.2-0.3-3.5v-11c0-1.4,0.1-2.6,0.3-3.6s0.5-2,0.9-2.9c0.4-0.9,1-1.6,1.6-2.2
						c0.7-0.6,1.5-1,2.6-1.4c1-0.3,2.2-0.5,3.6-0.5c1.6,0,2.9,0.2,4,0.6s2,1,2.6,1.8c0.6,0.8,1.1,1.8,1.4,2.8
						c0.3,1.1,0.4,2.3,0.4,3.8v2.7h-5.5v-2.7c0-1.6-0.1-2.6-0.2-3.2c-0.3-1.1-1.1-1.6-2.4-1.7c-0.1,0-0.2,0-0.3,0
						c-0.5,0-0.9,0.1-1.3,0.2c-0.4,0.1-0.7,0.3-0.9,0.5c-0.2,0.2-0.4,0.5-0.6,0.8c-0.1,0.3-0.2,0.6-0.3,1.1
						c-0.1,0.4-0.1,0.9-0.1,1.2c0,0.4,0,0.9,0,1.4v13.3c0,1.8,0.2,3.2,0.7,3.9c0.5,0.8,1.3,1.2,2.5,1.2c0.4,0,0.8,0,1.1-0.1
						c0.3-0.1,0.6-0.2,0.8-0.4c0.2-0.1,0.4-0.4,0.5-0.6c0.1-0.3,0.3-0.5,0.3-0.8c0.1-0.2,0.1-0.6,0.2-1c0-0.4,0.1-0.8,0.1-1.1
						c0-0.3,0-0.7,0-1.2v-2.8h5.5v2.6c0,1.2-0.1,2.2-0.2,3.2c-0.2,0.9-0.4,1.8-0.8,2.6c-0.4,0.8-0.9,1.5-1.5,2.1
						c-0.6,0.5-1.4,1-2.4,1.3C34.7,108.5,33.6,108.7,32.3,108.7z"/>
					<path fill="#2B292A" d="M44.7,108.3V76.8H52c1.7,0,3.1,0.1,4.3,0.4c1.2,0.3,2.2,0.7,3.1,1.4s1.5,1.5,2,2.6s0.7,2.4,0.7,4
						c0,2-0.3,3.6-0.9,4.8c-0.6,1.3-1.6,2.2-2.9,2.7l4.4,15.5h-5.8L53,93.9h-2.5v14.4H44.7z M50.5,90.3h1.4c1.7,0,2.9-0.4,3.6-1.1
						c0.7-0.7,1.1-2,1.1-3.7c0-1.7-0.3-2.9-0.9-3.6c-0.6-0.7-1.8-1.1-3.4-1.1h-1.7V90.3z"/>
					<path fill="#2B292A" d="M66.3,108.3V76.8h13.2v4H72v9h5.9v4H72v10.4h7.5v4H66.3z"/>
					<path fill="#2B292A" d="M81.2,108.3l6.4-31.5h6l6.4,31.5h-5.3l-1.3-7.3h-5.4l-1.3,7.3H81.2z M88.6,97.2h4.2l-2.1-12.9
						L88.6,97.2z"/>
					<path fill="#2B292A" d="M105.1,108.3V81.1h-5.3v-4.2h16.1v4.2h-5.1v27.2H105.1z"/>
					<path fill="#2B292A" d="M118.6,108.3V76.8h5.7v31.5H118.6z"/>
					<path fill="#2B292A" d="M134,108.3l-6.4-31.5h5.1l4.1,21.9l3.9-21.9h5.2l-6.4,31.5H134z"/>
					<path fill="#2B292A" d="M149.2,108.3V76.8h13.2v4h-7.4v9h5.9v4h-5.9v10.4h7.5v4H149.2z"/>
					<path fill="#2B292A" d="M173.7,108.7c-5.5,0-8.5-3.2-8.7-9.6l5-1c0.1,4.2,1.3,6.2,3.6,6.2c0.9,0,1.5-0.3,1.9-0.8
						c0.4-0.5,0.6-1.2,0.6-2.1c0-0.9-0.2-1.7-0.5-2.4s-0.7-1.3-1.1-1.8c-0.4-0.5-1-1-1.8-1.7l-4.1-3.6c-1.2-1.1-2.1-2.2-2.7-3.3
						c-0.6-1.1-0.9-2.6-0.9-4.3c0-2.4,0.7-4.3,2.2-5.7c1.4-1.4,3.4-2,5.9-2.1c1.2,0,2.2,0.1,3.1,0.4c0.9,0.3,1.6,0.7,2.2,1.2
						c0.6,0.5,1.1,1.1,1.4,1.9c0.4,0.7,0.7,1.5,0.9,2.3c0.2,0.8,0.3,1.7,0.4,2.7l-4.9,1c0-0.6-0.1-1.2-0.1-1.7
						c-0.1-0.5-0.2-0.9-0.3-1.4c-0.1-0.5-0.3-0.9-0.5-1.2c-0.2-0.3-0.5-0.5-0.9-0.7s-0.8-0.2-1.3-0.2c-0.8,0.1-1.5,0.3-1.9,0.8
						c-0.5,0.5-0.7,1.2-0.7,2.1c0,1,0.2,1.8,0.6,2.5s1,1.4,1.9,2.1l4.1,3.6c0.7,0.6,1.3,1.2,1.8,1.8c0.5,0.6,1,1.2,1.5,2
						c0.5,0.7,0.8,1.6,1.1,2.5c0.2,0.9,0.4,1.8,0.4,2.8c0,2.3-0.7,4.2-2.2,5.6S176.1,108.7,173.7,108.7z"/>
				</g>
			</g>
			<g>
				<path fill="#2B292A" d="M59,52.8v1.1h-3.9v2h3.5v1.1h-3.5v2h4V60h-5.3v-7.2H59z"/>
				<path fill="#2B292A" d="M62.9,53.9c-0.7,0-1.2,0.3-1.2,0.8c0,1.6,3.9,0.7,3.9,3.3c0,1.3-1.1,2.1-2.7,2.1c-1.1,0-2.2-0.5-2.9-1.1
					l0.5-1c0.7,0.7,1.7,1,2.4,1c0.8,0,1.3-0.3,1.3-0.9c0-1.6-3.9-0.7-3.9-3.3c0-1.2,1.1-2,2.6-2c0.9,0,1.8,0.3,2.5,0.7L65,54.6
					C64.2,54.1,63.4,53.9,62.9,53.9z"/>
				<path fill="#2B292A" d="M71.9,52.8v1.1h-2.3V60h-1.2v-6.1h-2.3v-1.1H71.9z"/>
				<path fill="#2B292A" d="M76.9,58.4h-3.6L72.6,60h-1.3l3.2-7.2h1.2l3.1,7.2h-1.3L76.9,58.4z M76.4,57.3l-1.4-3.2l-1.4,3.2H76.4z"
					/>
				<path fill="#2B292A" d="M85.3,54.6c0,0.8-0.5,1.4-1.3,1.6c1,0.2,1.5,0.9,1.5,1.8c0,1.2-1,2-2.6,2h-3.2v-7.2h3.1
					C84.4,52.8,85.3,53.5,85.3,54.6z M84.1,54.8c0-0.6-0.5-0.9-1.2-0.9H81v1.9h1.8C83.6,55.8,84.1,55.5,84.1,54.8z M84.4,57.9
					c0-0.6-0.6-1-1.5-1H81v2.1h1.8C83.8,58.9,84.4,58.6,84.4,57.9z"/>
				<path fill="#2B292A" d="M88.3,52.8v6.1h3.1V60h-4.3v-7.2H88.3z"/>
				<path fill="#2B292A" d="M93.7,52.8V60h-1.2v-7.2H93.7z"/>
				<path fill="#2B292A" d="M97.9,53.9c-0.7,0-1.2,0.3-1.2,0.8c0,1.6,3.9,0.7,3.9,3.3c0,1.3-1.1,2.1-2.7,2.1c-1.1,0-2.2-0.5-2.9-1.1
					l0.5-1c0.7,0.7,1.7,1,2.4,1c0.8,0,1.3-0.3,1.3-0.9c0-1.6-3.9-0.7-3.9-3.3c0-1.2,1.1-2,2.6-2c0.9,0,1.8,0.3,2.5,0.7l-0.5,1.1
					C99.2,54.1,98.4,53.9,97.9,53.9z"/>
				<path fill="#2B292A" d="M103.2,52.8V56h3.8v-3.1h1.2V60H107v-3h-3.8v3H102v-7.2H103.2z"/>
				<path fill="#2B292A" d="M115.3,52.8v1.1h-3.9v2h3.5v1.1h-3.5v2h4V60h-5.3v-7.2H115.3z"/>
				<path fill="#2B292A" d="M123.5,56.4c0,2.1-1.6,3.6-3.7,3.6h-2.9v-7.2h2.9C122,52.8,123.5,54.3,123.5,56.4z M122.3,56.4
					c0-1.5-1.1-2.5-2.5-2.5h-1.7v5h1.8C121.2,58.9,122.3,57.9,122.3,56.4z"/>
				<path fill="#2B292A" d="M130.8,52.8V60h-1.2v-6.1H128v-1.1H130.8z"/>
				<path fill="#2B292A" d="M136,59.1c1.4,0,2-1,2-2.6c-0.4,0.7-1,1-2,1c-1.4,0-2.3-0.9-2.3-2.3c0-1.5,1-2.4,2.5-2.4
					c1.8,0,2.9,1.3,2.9,3.5c0,2.3-1.2,3.8-3.1,3.8c-0.7,0-1.6-0.2-2.1-0.5l0.5-0.9C134.8,58.9,135.4,59.1,136,59.1z M134.8,55.2
					c0,0.8,0.5,1.3,1.4,1.3c1,0,1.5-0.6,1.5-1.4c0-0.6-0.4-1.3-1.5-1.3C135.4,53.8,134.8,54.3,134.8,55.2z"/>
				<path fill="#2B292A" d="M142.3,59.1c1.4,0,2-1,2-2.6c-0.4,0.7-1,1-2,1c-1.4,0-2.3-0.9-2.3-2.3c0-1.5,1-2.4,2.5-2.4
					c1.8,0,2.9,1.3,2.9,3.5c0,2.3-1.2,3.8-3.1,3.8c-0.7,0-1.6-0.2-2.1-0.5l0.5-0.9C141.2,58.9,141.7,59.1,142.3,59.1z M141.2,55.2
					c0,0.8,0.5,1.3,1.4,1.3c1,0,1.5-0.6,1.5-1.4c0-0.6-0.4-1.3-1.5-1.3C141.7,53.8,141.2,54.3,141.2,55.2z"/>
				<path fill="#2B292A" d="M151.9,52.8v0.9l-3,6.3h-1.3l3-6.1h-3l0,1h-1.1v-2.1H151.9z"/>
			</g>
			<path fill="#2B292A" d="M46.6,46.9l0.5,1.9c1.1-0.3,2.2-0.6,3.3-0.9L49.9,46C48.8,46.3,47.7,46.6,46.6,46.9z"/>
			<path fill="#2B292A" d="M128.9,169.7l1.1,1.7c1-0.6,1.9-1.3,2.8-2l-1.2-1.6C130.8,168.4,129.8,169,128.9,169.7z"/>
			<path fill="#2B292A" d="M117.1,176.5l0.9,1.8c1-0.5,2.1-1,3.1-1.6l-0.9-1.8C119.1,175.5,118.1,176,117.1,176.5z"/>
			<path fill="#2B292A" d="M123.1,173.3l1,1.7c1-0.6,2-1.2,3-1.8l-1.1-1.7C125.1,172.1,124.1,172.7,123.1,173.3z"/>
			<path fill="#2B292A" d="M170.6,120.5l-1.8-0.8c-0.5,1-0.9,2.1-1.4,3.1l1.8,0.9C169.7,122.6,170.2,121.5,170.6,120.5z"/>
			<path fill="#2B292A" d="M58.7,152.8l1.5-1.3c-0.7-0.8-1.4-1.7-2.1-2.5l-0.1-0.1l-1.6,1.3l0.1,0.1C57.3,151.1,58,151.9,58.7,152.8
				z"/>
			<path fill="#2B292A" d="M40.2,123.6l1.8-0.9c-0.5-1-1-2.1-1.4-3.1l-1.8,0.8C39.2,121.5,39.7,122.5,40.2,123.6z"/>
			<path fill="#2B292A" d="M110.9,179.3l0.8,1.9c1.1-0.4,2.1-0.9,3.2-1.4l-0.8-1.8C113,178.4,111.9,178.8,110.9,179.3z"/>
			<path fill="#2B292A" d="M94.5,179.7c1,0.5,2.1,0.9,3.2,1.4l0.8-1.9c-1-0.4-2.1-0.9-3.1-1.3L94.5,179.7z"/>
			<path fill="#2B292A" d="M88.3,176.7c1,0.5,2.1,1.1,3.1,1.6l0.9-1.8c-1-0.5-2-1-3-1.6L88.3,176.7z"/>
			<path fill="#2B292A" d="M104.7,181.6c-1-0.3-2.1-0.7-3.1-1.1l-0.7,1.9c1.1,0.4,2.2,0.8,3.3,1.2l0.5-1.3l0.5,1.4l0.1,0
				c1.1-0.4,2.1-0.7,3.2-1.1l-0.7-1.9C106.7,180.9,105.7,181.2,104.7,181.6z"/>
			<path fill="#2B292A" d="M167.7,126.7l-1.8-0.9c-0.5,1-1,2-1.6,3l1.8,0.9C166.7,128.8,167.2,127.8,167.7,126.7z"/>
			<path fill="#2B292A" d="M152.8,150.2L152.8,150.2l-1.5-1.3l-0.1,0.1c-0.7,0.9-1.4,1.7-2.1,2.6l1.5,1.3
				C151.4,152,152.1,151.1,152.8,150.2z"/>
			<path fill="#2B292A" d="M24.9,53.2l-2,0.1c0.1,1.1,0.2,2.3,0.3,3.4l2-0.2C25.1,55.5,25,54.3,24.9,53.2z"/>
			<path fill="#2B292A" d="M164.5,132.9l-1.8-1c-0.6,1-1.1,2-1.7,3l1.7,1C163.3,134.9,163.9,133.9,164.5,132.9z"/>
			<path fill="#2B292A" d="M69.7,161.2c-0.8-0.8-1.7-1.5-2.5-2.3l-1.4,1.4c0.8,0.8,1.7,1.6,2.5,2.4L69.7,161.2z"/>
			<path fill="#2B292A" d="M64.8,156.5c-0.8-0.8-1.6-1.6-2.3-2.5l-1.5,1.4c0.8,0.9,1.6,1.7,2.4,2.5L64.8,156.5z"/>
			<path fill="#2B292A" d="M139.6,161.3l1.3,1.5c0.9-0.8,1.7-1.6,2.5-2.4l-1.4-1.4C141.3,159.7,140.5,160.5,139.6,161.3z"/>
			<path fill="#2B292A" d="M43.2,129.8l1.8-0.9c-0.5-1-1-2-1.6-3l-1.8,0.9C42.2,127.7,42.7,128.8,43.2,129.8z"/>
			<path fill="#2B292A" d="M157.1,144.6l-1.6-1.2c-0.7,0.9-1.3,1.9-2,2.8l1.6,1.2C155.7,146.5,156.4,145.6,157.1,144.6z"/>
			<path fill="#2B292A" d="M101,25.8l-1.1-1.7C99,24.7,98,25.3,97,25.9l1.1,1.7C99.1,27,100.1,26.4,101,25.8z"/>
			<path fill="#2B292A" d="M160.9,138.8l-1.7-1.1c-0.6,1-1.2,1.9-1.9,2.9l1.7,1.1C159.7,140.8,160.3,139.8,160.9,138.8z"/>
			<path fill="#2B292A" d="M148.4,155.4l-1.5-1.4c-0.8,0.8-1.6,1.7-2.3,2.5l1.4,1.4C146.8,157.1,147.6,156.3,148.4,155.4z"/>
			<path fill="#2B292A" d="M82.2,173.2c1,0.6,2,1.2,3,1.8l1-1.7c-1-0.6-2-1.2-2.9-1.8L82.2,173.2z"/>
			<path fill="#2B292A" d="M134.4,165.7l1.2,1.6c0.9-0.7,1.8-1.4,2.7-2.2l-1.3-1.5C136.2,164.2,135.3,165,134.4,165.7z"/>
			<path fill="#2B292A" d="M91.1,29.4l1,1.8c1-0.6,2-1.1,3-1.7l-1-1.7C93.1,28.3,92.1,28.8,91.1,29.4z"/>
			<path fill="#2B292A" d="M108.5,25.9c1,0.6,1.9,1.2,2.9,1.9l1.1-1.7c-1-0.6-1.9-1.2-2.9-1.8L108.5,25.9z"/>
			<path fill="#2B292A" d="M40,48.6l0.4,2c1.1-0.3,2.3-0.5,3.4-0.8l-0.5-2C42.2,48,41.1,48.3,40,48.6z"/>
			<path fill="#2B292A" d="M114.4,29.5c1,0.6,2,1.2,3,1.7l1-1.8c-1-0.6-2-1.1-3-1.7L114.4,29.5z"/>
			<path fill="#2B292A" d="M120.4,32.9c1,0.5,2,1.1,3.1,1.6l0.9-1.8c-1-0.5-2-1-3-1.6L120.4,32.9z"/>
			<path fill="#2B292A" d="M126.6,36c1,0.5,2.1,1,3.1,1.5l0.8-1.8c-1-0.5-2.1-1-3.1-1.4L126.6,36z"/>
			<path fill="#2B292A" d="M78.9,35.6l0.8,1.8c1.1-0.5,2.1-1,3.1-1.5L82,34.1C81,34.6,80,35.1,78.9,35.6z"/>
			<path fill="#2B292A" d="M59.8,43l0.6,1.9c1.1-0.4,2.2-0.7,3.3-1.1L63,41.9C61.9,42.3,60.9,42.7,59.8,43z"/>
			<path fill="#2B292A" d="M53.2,45.1l0.6,1.9c1.1-0.3,2.2-0.7,3.3-1l-0.6-1.9C55.4,44.4,54.3,44.8,53.2,45.1z"/>
			<path fill="#2B292A" d="M66.2,40.8l0.7,1.9c1.1-0.4,2.2-0.8,3.2-1.2l-0.7-1.9C68.4,40,67.3,40.4,66.2,40.8z"/>
			<path fill="#2B292A" d="M72.6,38.3l0.8,1.9c1.1-0.4,2.1-0.9,3.2-1.3L75.8,37C74.7,37.4,73.7,37.9,72.6,38.3z"/>
			<path fill="#2B292A" d="M132.9,38.8c1.1,0.5,2.1,0.9,3.2,1.3l0.8-1.9c-1.1-0.4-2.1-0.9-3.2-1.3L132.9,38.8z"/>
			<path fill="#2B292A" d="M85.1,32.6l0.9,1.8c1-0.5,2.1-1.1,3.1-1.6L88.1,31C87.1,31.6,86.1,32.1,85.1,32.6z"/>
			<path fill="#2B292A" d="M179.2,52.6c1.1,0.2,2.3,0.4,3.4,0.6l0.3-2c-1.1-0.2-2.3-0.4-3.4-0.6L179.2,52.6z"/>
			<path fill="#2B292A" d="M26.5,51.2l0.3,2c1.1-0.2,2.3-0.4,3.4-0.6l-0.4-2C28.8,50.8,27.6,51,26.5,51.2z"/>
			<path fill="#2B292A" d="M184.2,56.7l2,0.2c0.1-1.2,0.2-2.3,0.3-3.4l-2-0.1C184.4,54.4,184.3,55.5,184.2,56.7z"/>
			<path fill="#2B292A" d="M183.5,63.5l2,0.2c0.1-1.1,0.3-2.3,0.4-3.4l-2-0.2C183.8,61.2,183.6,62.4,183.5,63.5z"/>
			<path fill="#2B292A" d="M139.3,41.5c1.1,0.4,2.2,0.8,3.2,1.2l0.7-1.9c-1.1-0.4-2.1-0.8-3.2-1.2L139.3,41.5z"/>
			<path fill="#2B292A" d="M71,165c0.9,0.7,1.8,1.5,2.7,2.2l1.2-1.6c-0.9-0.7-1.8-1.4-2.6-2.1L71,165z"/>
			<path fill="#2B292A" d="M76.5,169.3c0.9,0.7,1.9,1.4,2.8,2l1.1-1.7c-0.9-0.6-1.9-1.3-2.8-2L76.5,169.3z"/>
			<path fill="#2B292A" d="M23.5,60.2c0.1,1.1,0.2,2.3,0.4,3.4l2-0.2c-0.1-1.1-0.3-2.3-0.4-3.4L23.5,60.2z"/>
			<path fill="#2B292A" d="M152.4,46c1.1,0.3,2.2,0.7,3.3,1l0.6-1.9c-1.1-0.3-2.2-0.7-3.3-1L152.4,46z"/>
			<path fill="#2B292A" d="M159,48c1.1,0.3,2.2,0.6,3.3,0.9l0.5-1.9c-1.1-0.3-2.2-0.6-3.3-0.9L159,48z"/>
			<path fill="#2B292A" d="M172.4,51.3c1.1,0.2,2.3,0.5,3.4,0.7l0.4-2c-1.1-0.2-2.3-0.5-3.4-0.7L172.4,51.3z"/>
			<path fill="#2B292A" d="M145.8,43.9c1.1,0.4,2.2,0.8,3.3,1.1l0.6-1.9c-1.1-0.4-2.2-0.7-3.2-1.1L145.8,43.9z"/>
			<path fill="#2B292A" d="M33.3,50l0.4,2c1.1-0.2,2.3-0.5,3.4-0.7l-0.4-2C35.5,49.5,34.4,49.8,33.3,50z"/>
			<path fill="#2B292A" d="M165.7,49.7c1.1,0.3,2.2,0.5,3.4,0.8l0.4-2c-1.1-0.3-2.2-0.5-3.3-0.8L165.7,49.7z"/>
			<path fill="#2B292A" d="M104.7,23.3c0.3,0.2,0.6,0.4,0.9,0.6l1.1-1.7c-0.5-0.3-1-0.7-1.4-1l-0.6-0.4l-0.6,0.4
				c-0.4,0.3-0.9,0.6-1.3,0.9l1.1,1.7C104.2,23.7,104.4,23.5,104.7,23.3z"/>
			<path fill="#2B292A" d="M46.6,135.8l1.7-1c-0.6-1-1.1-2-1.7-3l-1.8,1C45.5,133.8,46,134.8,46.6,135.8z"/>
			<path fill="#2B292A" d="M55.9,146.1c-0.7-0.9-1.4-1.8-2-2.8l-1.6,1.2c0.7,0.9,1.4,1.9,2,2.8L55.9,146.1z"/>
			<path fill="#2B292A" d="M52,140.6c-0.6-0.9-1.3-1.9-1.9-2.9l-1.7,1.1c0.6,1,1.3,2,1.9,2.9L52,140.6z"/>
			<path fill="#2B292A" d="M20.6,117.6c6.1,16.2,14,30.3,23.5,42.3c14.6,18.2,33.1,31.2,55,38.6c1.7,0.6,3.3,1.1,5,1.6l0.5,0.1
				l0.5-0.1c0.8-0.2,1.7-0.5,2.5-0.8c0.8-0.3,1.7-0.5,2.5-0.8c21.9-7.4,40.4-20.4,55-38.6c9.6-11.9,17.4-26.1,23.5-42.3h17.6
				l-7.1-24.9l7-26.4H201c1.9-15.8,1.7-26.5,1.7-26.7l0-1.5l-1.5-0.2c-20.1-2.1-38.8-6.4-55.5-13c-17-6.6-28.4-14.1-34.9-19.2
				c-0.4-0.3-0.9-0.7-1.3-1c-1.2-1-2.4-2-3.6-3l-1.2-1.1l-1.2,1.1c-0.8,0.7-1.7,1.5-2.6,2.2c-0.8,0.7-1.5,1.3-2.3,1.8
				c-6.5,5.1-17.8,12.5-34.9,19.2C47,31.5,28.3,35.8,8.3,37.9L6.8,38l0,1.5c0,0.2-0.2,10.9,1.7,26.7H0.8l5.8,27l-5.8,24.3H20.6z
				 M10.2,41.1c19.8-2.2,38.3-6.5,54.9-13c17.4-6.8,29-14.4,35.7-19.7c0.8-0.6,1.6-1.2,2.4-1.9c0.5-0.4,1-0.9,1.5-1.3
				c0.8,0.7,1.7,1.4,2.5,2.1c0.4,0.4,0.9,0.7,1.4,1.1c6.7,5.2,18.3,12.9,35.7,19.7c16.6,6.5,35.1,10.9,54.9,13
				c0,3.5-0.2,12.7-1.7,25.1h-5.6c1-7.6,1.4-14,1.6-18.6l0.1-1.6l-1.6-0.2c-17.8-2.4-34.5-6.6-49.7-12.6c-14-5.5-26.7-12.4-36.6-20
				l-1.1-0.8l-1.1,0.8c-9.9,7.6-22.6,14.6-36.6,20c-15.2,5.9-31.9,10.2-49.7,12.6l-1.6,0.2l0.1,1.6c0.2,4.6,0.6,11,1.6,18.6h-5.6
				C10.3,53.9,10.2,44.6,10.2,41.1z M20.9,66.2C20,59.4,19.6,53.5,19.4,49c17.5-2.5,33.9-6.7,49-12.5c13.8-5.4,26.4-12.2,36.4-19.7
				c10,7.5,22.5,14.3,36.4,19.7c15,5.9,31.5,10.1,49,12.5c-0.2,4.4-0.7,10.3-1.5,17.2H20.9z M10.6,69.7h1.8h5.6h1.7h1.7h3.3h2h156h2
				h3.3h1.7h1.7h5.6h1.8h1.7h1.3l-3.4,12.6l-2.8,10.4l0.3,1.1l5.8,20.4H190h-1.8h-1.8h-5.9h-1.8h-1.8h-3.5h-2.2H38.3h-2.2h-3.5h-1.8
				h-1.8H23h-1.8h-1.8H5.1l5-20.8l-5-23.6h3.8H10.6z M162.5,157.7c-14.2,17.7-32.1,30.3-53.4,37.5c-0.8,0.3-1.6,0.5-2.4,0.8
				c-0.7,0.2-1.3,0.4-2,0.6c-1.5-0.4-3-0.9-4.4-1.4C79,188,61,175.4,46.9,157.7c-9.1-11.4-16.7-24.8-22.6-40.2h5.9
				c5.6,14,12.7,26.4,21.1,36.9c13.5,16.7,30.5,28.7,50.7,35.5c0.7,0.2,1.4,0.5,2.1,0.7l0.5,0.2l0.5-0.2c0.7-0.2,1.4-0.5,2.1-0.7
				c20.2-6.8,37.2-18.7,50.7-35.5c8.4-10.5,15.5-22.8,21.1-36.9h5.9C179.2,132.9,171.6,146.3,162.5,157.7z M175.4,117.6
				c-5.4,13.2-12.1,24.8-20,34.7c-13,16.2-29.6,27.8-49.1,34.4c-0.5,0.2-1,0.3-1.5,0.5c-0.5-0.2-1-0.3-1.5-0.5
				C83.6,180,67.1,168.5,54,152.3c-7.9-9.9-14.7-21.5-20-34.7H175.4z"/>
			<path fill="#2B292A" d="M15.5,95.3c0.1,0,0.2,0,0.2,0c0.5,0,1-0.2,1.4-0.5c0.5-0.4,0.7-1,0.7-1.6c0-1-0.7-1.9-1.6-2.1
				c-0.2,0-0.3-0.1-0.5-0.1c-0.4,0-0.8,0.1-1.2,0.4c-0.6,0.4-1,1-1,1.8C13.6,94.3,14.4,95.2,15.5,95.3z"/>
			<path fill="#2B292A" d="M186.4,95.1c0.3,0.2,0.7,0.3,1,0.3c1.2,0,2.2-1,2.2-2.2s-1-2.2-2.2-2.2c0,0,0,0,0,0c-1.2,0-2.1,1-2.1,2.2
				C185.3,94,185.8,94.7,186.4,95.1z"/>
			<path fill="#2B292A" d="M69.7,133.2c0.6,3.5,1.9,14.9,10.7,15.2c0,0,8,0.3,9.7,0c1.7-0.3,7.8-1.7,10.1-11c0,0,0.5-2.1,1.6-3.8
				c1.4-2.1,4.6-2.1,6,0c1.1,1.7,1.6,3.8,1.6,3.8c2.3,9.3,8.4,10.7,10.1,11c1.7,0.3,9.7,0,9.7,0c8.8-0.2,10.1-11.7,10.7-15.2
				c0.6-3.5,3.2-2.7,3.2-2.7v-6.3c-21.6-3.6-32,1-33.6,2c-0.4,0.3-0.9,0.5-1.5,0.6c-2.1,0.6-4.3,0.6-6.3,0c-0.6-0.2-1.1-0.4-1.5-0.6
				c-1.6-1.1-12-5.7-33.6-2v6.3C66.5,130.5,69.1,129.7,69.7,133.2z M114.1,127.6c3.8-1.2,7.9-1.7,12.6-1.7c0.3,0,0.7,0,1,0
				c3.9,0.1,6.6,1.1,8,3.2c1.1,1.6,1.2,3.5,1,4.8c-0.1,1.5-0.5,2.6-0.5,2.6l0,0l0,0c-0.4,1.8-0.9,3.3-1.5,4.6
				c-0.9,1.9-2.4,4.1-5.6,4.2l0,0c0,0-3.5,0.1-6.3,0.1c-2.2,0-2.7-0.1-2.7-0.1c-3.5-0.7-5.9-3.2-7.9-8.6c-0.5-1.4-0.8-3.2-0.9-5.2
				C111.2,129.7,112.4,128.1,114.1,127.6z M73.8,129c1.4-2,4.1-3.1,8-3.2c0.3,0,0.7,0,1,0c4.7,0,8.8,0.6,12.6,1.7
				c1.7,0.5,2.9,2.1,2.8,3.9c0,2.1-0.3,3.8-0.9,5.2c-2.1,5.4-4.4,8-7.9,8.6c0,0-0.5,0.1-2.7,0.1c-2.8,0-6.3-0.1-6.3-0.1l0,0
				c-3.2-0.1-4.6-2.3-5.6-4.2c-0.6-1.3-1.1-2.8-1.5-4.6l0,0l0,0c0,0-0.4-1.1-0.5-2.6C72.7,132.5,72.8,130.6,73.8,129z"/>
			<path fill="#2B292A" d="M115.1,151.8c-3.8-3-7.6-2.2-9.9-1.2c-2.3-1-6.1-1.8-9.9,1.2c-6,4.7-12.4,2.2-12.5-0.6
				c0,0-4.3,16.6,12.5,15.1c7.1-0.6,8.5-2.3,9.9-3.5c1.4,1.2,2.8,2.9,9.9,3.5c16.8,1.5,12.5-15.1,12.5-15.1
				C127.4,154,121,156.5,115.1,151.8z"/>
			<polygon fill="#2B292A" points="106.5,38.5 104.1,33.6 101.7,38.5 96.3,39.2 100.2,43.1 99.3,48.4 104.1,45.9 109,48.4 108,43.1 
				111.9,39.2 			"/>
		</g>
	</g>
</g>
<g id="DESIGNED_BY_FREEPIK">
	<g>
	</g>
	<g>
	</g>
	<g>
	</g>
	<g>
	</g>
	<g>
	</g>
	<g>
	</g>
</g>
</svg>
